%TF.GenerationSoftware,KiCad,Pcbnew,9.0.0*%
%TF.CreationDate,2026-04-19T22:58:54+09:00*%
%TF.ProjectId,DRC-DCMD2026.2ch-2E,4452432d-4443-44d4-9432-3032362e3263,rev?*%
%TF.SameCoordinates,Original*%
%TF.FileFunction,Soldermask,Top*%
%TF.FilePolarity,Negative*%
%FSLAX46Y46*%
G04 Gerber Fmt 4.6, Leading zero omitted, Abs format (unit mm)*
G04 Created by KiCad (PCBNEW 9.0.0) date 2026-04-19 22:58:54*
%MOMM*%
%LPD*%
G01*
G04 APERTURE LIST*
G04 Aperture macros list*
%AMRoundRect*
0 Rectangle with rounded corners*
0 $1 Rounding radius*
0 $2 $3 $4 $5 $6 $7 $8 $9 X,Y pos of 4 corners*
0 Add a 4 corners polygon primitive as box body*
4,1,4,$2,$3,$4,$5,$6,$7,$8,$9,$2,$3,0*
0 Add four circle primitives for the rounded corners*
1,1,$1+$1,$2,$3*
1,1,$1+$1,$4,$5*
1,1,$1+$1,$6,$7*
1,1,$1+$1,$8,$9*
0 Add four rect primitives between the rounded corners*
20,1,$1+$1,$2,$3,$4,$5,0*
20,1,$1+$1,$4,$5,$6,$7,0*
20,1,$1+$1,$6,$7,$8,$9,0*
20,1,$1+$1,$8,$9,$2,$3,0*%
%AMRotRect*
0 Rectangle, with rotation*
0 The origin of the aperture is its center*
0 $1 length*
0 $2 width*
0 $3 Rotation angle, in degrees counterclockwise*
0 Add horizontal line*
21,1,$1,$2,0,0,$3*%
%AMFreePoly0*
4,1,23,0.500000,-0.750000,0.000000,-0.750000,0.000000,-0.745722,-0.065263,-0.745722,-0.191342,-0.711940,-0.304381,-0.646677,-0.396677,-0.554381,-0.461940,-0.441342,-0.495722,-0.315263,-0.495722,-0.250000,-0.500000,-0.250000,-0.500000,0.250000,-0.495722,0.250000,-0.495722,0.315263,-0.461940,0.441342,-0.396677,0.554381,-0.304381,0.646677,-0.191342,0.711940,-0.065263,0.745722,0.000000,0.745722,
0.000000,0.750000,0.500000,0.750000,0.500000,-0.750000,0.500000,-0.750000,$1*%
%AMFreePoly1*
4,1,23,0.000000,0.745722,0.065263,0.745722,0.191342,0.711940,0.304381,0.646677,0.396677,0.554381,0.461940,0.441342,0.495722,0.315263,0.495722,0.250000,0.500000,0.250000,0.500000,-0.250000,0.495722,-0.250000,0.495722,-0.315263,0.461940,-0.441342,0.396677,-0.554381,0.304381,-0.646677,0.191342,-0.711940,0.065263,-0.745722,0.000000,-0.745722,0.000000,-0.750000,-0.500000,-0.750000,
-0.500000,0.750000,0.000000,0.750000,0.000000,0.745722,0.000000,0.745722,$1*%
G04 Aperture macros list end*
%ADD10C,3.543406*%
%ADD11C,3.200000*%
%ADD12RoundRect,0.250000X-0.350000X0.850000X-0.350000X-0.850000X0.350000X-0.850000X0.350000X0.850000X0*%
%ADD13RoundRect,0.249997X-2.650003X2.950003X-2.650003X-2.950003X2.650003X-2.950003X2.650003X2.950003X0*%
%ADD14RoundRect,0.250000X0.350000X-0.850000X0.350000X0.850000X-0.350000X0.850000X-0.350000X-0.850000X0*%
%ADD15RoundRect,0.249997X2.650003X-2.950003X2.650003X2.950003X-2.650003X2.950003X-2.650003X-2.950003X0*%
%ADD16RoundRect,0.200000X0.200000X-0.400000X0.200000X0.400000X-0.200000X0.400000X-0.200000X-0.400000X0*%
%ADD17R,2.000000X0.900000*%
%ADD18RoundRect,1.025000X1.025000X-1.025000X1.025000X1.025000X-1.025000X1.025000X-1.025000X-1.025000X0*%
%ADD19C,4.100000*%
%ADD20RotRect,0.400000X3.200000X45.000000*%
%ADD21RoundRect,0.150000X-0.825000X-0.150000X0.825000X-0.150000X0.825000X0.150000X-0.825000X0.150000X0*%
%ADD22R,1.600000X1.600000*%
%ADD23C,1.600000*%
%ADD24RoundRect,0.250000X-0.750000X0.600000X-0.750000X-0.600000X0.750000X-0.600000X0.750000X0.600000X0*%
%ADD25O,2.000000X1.700000*%
%ADD26RoundRect,0.125000X0.530330X-0.353553X-0.353553X0.530330X-0.530330X0.353553X0.353553X-0.530330X0*%
%ADD27RoundRect,0.125000X0.530330X0.353553X0.353553X0.530330X-0.530330X-0.353553X-0.353553X-0.530330X0*%
%ADD28RoundRect,0.237500X-0.300000X-0.237500X0.300000X-0.237500X0.300000X0.237500X-0.300000X0.237500X0*%
%ADD29R,1.500000X1.500000*%
%ADD30RoundRect,0.237500X0.237500X-0.287500X0.237500X0.287500X-0.237500X0.287500X-0.237500X-0.287500X0*%
%ADD31C,3.000000*%
%ADD32C,1.400000*%
%ADD33RoundRect,0.770000X-0.980000X-0.980000X0.980000X-0.980000X0.980000X0.980000X-0.980000X0.980000X0*%
%ADD34C,3.500000*%
%ADD35RoundRect,0.250000X0.725000X-0.600000X0.725000X0.600000X-0.725000X0.600000X-0.725000X-0.600000X0*%
%ADD36O,1.950000X1.700000*%
%ADD37RoundRect,0.190000X-0.610000X-0.190000X0.610000X-0.190000X0.610000X0.190000X-0.610000X0.190000X0*%
%ADD38RoundRect,0.250000X0.600000X0.600000X-0.600000X0.600000X-0.600000X-0.600000X0.600000X-0.600000X0*%
%ADD39C,1.700000*%
%ADD40RoundRect,0.250000X0.300000X-0.300000X0.300000X0.300000X-0.300000X0.300000X-0.300000X-0.300000X0*%
%ADD41R,2.000000X1.600000*%
%ADD42RoundRect,0.250000X-0.600000X-0.725000X0.600000X-0.725000X0.600000X0.725000X-0.600000X0.725000X0*%
%ADD43O,1.700000X1.950000*%
%ADD44RoundRect,0.250000X0.300000X0.300000X-0.300000X0.300000X-0.300000X-0.300000X0.300000X-0.300000X0*%
%ADD45C,0.650000*%
%ADD46RoundRect,0.150000X-0.150000X-0.425000X0.150000X-0.425000X0.150000X0.425000X-0.150000X0.425000X0*%
%ADD47RoundRect,0.075000X-0.075000X-0.500000X0.075000X-0.500000X0.075000X0.500000X-0.075000X0.500000X0*%
%ADD48O,1.000000X2.100000*%
%ADD49O,1.000000X1.800000*%
%ADD50C,1.800000*%
%ADD51RoundRect,0.237500X-0.237500X0.287500X-0.237500X-0.287500X0.237500X-0.287500X0.237500X0.287500X0*%
%ADD52FreePoly0,0.000000*%
%ADD53FreePoly1,0.000000*%
G04 APERTURE END LIST*
D10*
X-94199724Y65971427D02*
G75*
G02*
X-97743130Y65971427I-1771703J0D01*
G01*
X-97743130Y65971427D02*
G75*
G02*
X-94199724Y65971427I1771703J0D01*
G01*
X-2199724Y3971427D02*
G75*
G02*
X-5743130Y3971427I-1771703J0D01*
G01*
X-5743130Y3971427D02*
G75*
G02*
X-2199724Y3971427I1771703J0D01*
G01*
X-94199724Y3971427D02*
G75*
G02*
X-97743130Y3971427I-1771703J0D01*
G01*
X-97743130Y3971427D02*
G75*
G02*
X-94199724Y3971427I1771703J0D01*
G01*
X-2199724Y65971427D02*
G75*
G02*
X-5743130Y65971427I-1771703J0D01*
G01*
X-5743130Y65971427D02*
G75*
G02*
X-2199724Y65971427I1771703J0D01*
G01*
%TO.C,JP1*%
G36*
X-14755000Y18911000D02*
G01*
X-14455000Y18911000D01*
X-14455000Y17411000D01*
X-14755000Y17411000D01*
X-14755000Y18911000D01*
G37*
%TD*%
D11*
%TO.C,REF\u002A\u002A*%
X-95971427Y65971427D03*
%TD*%
D12*
%TO.C,U1*%
X-73844500Y10169000D03*
X-76124500Y10169000D03*
D13*
X-76124500Y3869000D03*
D12*
X-78404500Y10169000D03*
%TD*%
D14*
%TO.C,Q4*%
X-49039000Y43714000D03*
D15*
X-46759000Y50014000D03*
D14*
X-44479000Y43714000D03*
%TD*%
D16*
%TO.C,U11*%
X-23539000Y24130000D03*
X-20999000Y24130000D03*
X-20999000Y30430000D03*
X-22269000Y30430000D03*
X-23539000Y30430000D03*
%TD*%
D17*
%TO.C,J9*%
X-89528000Y31350000D03*
X-89528000Y44850000D03*
D18*
X-83528000Y34500000D03*
D19*
X-83528000Y41700000D03*
%TD*%
D20*
%TO.C,Y2*%
X-57753829Y10296301D03*
X-56905301Y11144829D03*
X-56056773Y11993357D03*
%TD*%
D16*
%TO.C,U14*%
X-46736000Y24130000D03*
X-44196000Y24130000D03*
X-44196000Y30430000D03*
X-45466000Y30430000D03*
X-46736000Y30430000D03*
%TD*%
D21*
%TO.C,U2*%
X-24065000Y19431000D03*
X-24065000Y18161000D03*
X-24065000Y16891000D03*
X-24065000Y15621000D03*
X-19115000Y15621000D03*
X-19115000Y16891000D03*
X-19115000Y18161000D03*
X-19115000Y19431000D03*
%TD*%
D22*
%TO.C,C16*%
X-78232000Y63811651D03*
D23*
X-78232000Y67311651D03*
%TD*%
D11*
%TO.C,REF\u002A\u002A*%
X-95971427Y3971427D03*
%TD*%
D24*
%TO.C,J12*%
X-57658000Y5080000D03*
D25*
X-57658000Y2580000D03*
%TD*%
D11*
%TO.C,REF\u002A\u002A*%
X-3971427Y3971427D03*
%TD*%
D26*
%TO.C,U3*%
X-59870029Y12395287D03*
X-59304344Y12960973D03*
X-58738658Y13526658D03*
X-58172973Y14092343D03*
X-57607287Y14658029D03*
X-57041602Y15223714D03*
X-56475917Y15789400D03*
X-55910231Y16355085D03*
D27*
X-55910231Y18299629D03*
X-56475917Y18865314D03*
X-57041602Y19431000D03*
X-57607287Y19996685D03*
X-58172973Y20562371D03*
X-58738658Y21128056D03*
X-59304344Y21693741D03*
X-59870029Y22259427D03*
D26*
X-61814573Y22259427D03*
X-62380258Y21693741D03*
X-62945944Y21128056D03*
X-63511629Y20562371D03*
X-64077315Y19996685D03*
X-64643000Y19431000D03*
X-65208685Y18865314D03*
X-65774371Y18299629D03*
D27*
X-65774371Y16355085D03*
X-65208685Y15789400D03*
X-64643000Y15223714D03*
X-64077315Y14658029D03*
X-63511629Y14092343D03*
X-62945944Y13526658D03*
X-62380258Y12960973D03*
X-61814573Y12395287D03*
%TD*%
D28*
%TO.C,C29*%
X-56996500Y35433000D03*
X-55271500Y35433000D03*
%TD*%
D29*
%TO.C,SW2*%
X5275000Y-1525000D03*
D23*
X2735000Y-1525000D03*
X7815000Y-1525000D03*
%TD*%
D30*
%TO.C,D5*%
X-68072000Y2836000D03*
X-68072000Y4586000D03*
%TD*%
D22*
%TO.C,C14*%
X-86868000Y63811651D03*
D23*
X-86868000Y67311651D03*
%TD*%
D31*
%TO.C,F1*%
X-96880000Y48113000D03*
X-96905000Y51503000D03*
X-83435000Y48113000D03*
X-83435000Y51503000D03*
%TD*%
D32*
%TO.C,J11*%
X-56407000Y60960000D03*
X-45407000Y60960000D03*
D33*
X-53407000Y55960000D03*
D34*
X-48407000Y55960000D03*
%TD*%
D24*
%TO.C,J4*%
X-51037000Y5080000D03*
D25*
X-51037000Y2580000D03*
%TD*%
D22*
%TO.C,C17*%
X-82550000Y56388000D03*
D23*
X-82550000Y59888000D03*
%TD*%
D35*
%TO.C,J7*%
X-7874000Y28000000D03*
D36*
X-7874000Y30500000D03*
X-7874000Y33000000D03*
X-7874000Y35500000D03*
%TD*%
D30*
%TO.C,D4*%
X-70866000Y2822000D03*
X-70866000Y4572000D03*
%TD*%
D14*
%TO.C,Q8*%
X-57424000Y43714000D03*
D15*
X-55144000Y50014000D03*
D14*
X-52864000Y43714000D03*
%TD*%
D22*
%TO.C,C15*%
X-91186000Y56386349D03*
D23*
X-91186000Y59886349D03*
%TD*%
D37*
%TO.C,SW6*%
X-50165000Y20574000D03*
X-50165000Y19304000D03*
X-42545000Y19304000D03*
X-42545000Y20574000D03*
%TD*%
D38*
%TO.C,J1*%
X-94107000Y13589000D03*
D39*
X-96647000Y13589000D03*
X-94107000Y16129000D03*
X-96647000Y16129000D03*
X-94107000Y18669000D03*
X-96647000Y18669000D03*
%TD*%
D40*
%TO.C,D6*%
X-18967000Y35433000D03*
X-18967000Y38233000D03*
%TD*%
D14*
%TO.C,Q2*%
X-25818000Y43714000D03*
D15*
X-23538000Y50014000D03*
D14*
X-21258000Y43714000D03*
%TD*%
D30*
%TO.C,D9*%
X-65278000Y2822000D03*
X-65278000Y4572000D03*
%TD*%
D16*
%TO.C,U12*%
X-31623000Y24202000D03*
X-29083000Y24202000D03*
X-29083000Y30502000D03*
X-30353000Y30502000D03*
X-31623000Y30502000D03*
%TD*%
D40*
%TO.C,D11*%
X-50565000Y35430000D03*
X-50565000Y38230000D03*
%TD*%
D41*
%TO.C,SW1*%
X-74566800Y17932400D03*
X-79966800Y17932400D03*
%TD*%
D35*
%TO.C,J8*%
X-7874000Y14852000D03*
D36*
X-7874000Y17352000D03*
X-7874000Y19852000D03*
X-7874000Y22352000D03*
%TD*%
D28*
%TO.C,C30*%
X-48461000Y35433000D03*
X-46736000Y35433000D03*
%TD*%
D14*
%TO.C,Q6*%
X-33941000Y43714000D03*
D15*
X-31661000Y50014000D03*
D14*
X-29381000Y43714000D03*
%TD*%
D40*
%TO.C,D10*%
X-27095000Y35433000D03*
X-27095000Y38233000D03*
%TD*%
D42*
%TO.C,J6*%
X-38939000Y9292000D03*
D43*
X-36439000Y9292000D03*
X-33939000Y9292000D03*
X-31439000Y9292000D03*
X-28939000Y9292000D03*
%TD*%
D44*
%TO.C,D2*%
X-80642000Y10160000D03*
X-83442000Y10160000D03*
%TD*%
D40*
%TO.C,D7*%
X-42183000Y35433000D03*
X-42183000Y38233000D03*
%TD*%
D42*
%TO.C,J5*%
X-23271000Y9292000D03*
D43*
X-20771000Y9292000D03*
X-18271000Y9292000D03*
X-15771000Y9292000D03*
X-13271000Y9292000D03*
%TD*%
D32*
%TO.C,J10*%
X-33098000Y60960000D03*
X-22098000Y60960000D03*
D33*
X-30098000Y55960000D03*
D34*
X-25098000Y55960000D03*
%TD*%
D45*
%TO.C,J2*%
X-89247000Y6415000D03*
X-83467000Y6415000D03*
D46*
X-89557000Y7490000D03*
X-88757000Y7490000D03*
D47*
X-87607000Y7490000D03*
X-86607000Y7490000D03*
X-86107000Y7490000D03*
X-85107000Y7490000D03*
D46*
X-83957000Y7490000D03*
X-83157000Y7490000D03*
X-83157000Y7490000D03*
X-83957000Y7490000D03*
D47*
X-84607000Y7490000D03*
X-85607000Y7490000D03*
X-87107000Y7490000D03*
X-88107000Y7490000D03*
D46*
X-88757000Y7490000D03*
X-89557000Y7490000D03*
D48*
X-90677000Y6915000D03*
D49*
X-90677000Y2735000D03*
D48*
X-82037000Y6915000D03*
D49*
X-82037000Y2735000D03*
%TD*%
D50*
%TO.C,SW5*%
X-64770000Y8382000D03*
X-67310000Y8382000D03*
X-69850000Y8382000D03*
%TD*%
D24*
%TO.C,J3*%
X-44433000Y5080000D03*
D25*
X-44433000Y2580000D03*
%TD*%
D16*
%TO.C,U15*%
X-55245000Y24130000D03*
X-52705000Y24130000D03*
X-52705000Y30430000D03*
X-53975000Y30430000D03*
X-55245000Y30430000D03*
%TD*%
D28*
%TO.C,C27*%
X-25246500Y35433000D03*
X-23521500Y35433000D03*
%TD*%
%TO.C,C26*%
X-33374500Y35433000D03*
X-31649500Y35433000D03*
%TD*%
D51*
%TO.C,D8*%
X-76454000Y58138000D03*
X-76454000Y56388000D03*
%TD*%
D52*
%TO.C,JP1*%
X-15255000Y18161000D03*
D53*
X-13955000Y18161000D03*
%TD*%
D11*
%TO.C,REF\u002A\u002A*%
X-3971427Y65971427D03*
%TD*%
G36*
X-16566961Y49297315D02*
G01*
X-16521206Y49244511D01*
X-16510000Y49193000D01*
X-16510000Y45631000D01*
X-16529685Y45563961D01*
X-16582489Y45518206D01*
X-16634000Y45507000D01*
X-17021000Y45507000D01*
X-17088039Y45526685D01*
X-17133794Y45579489D01*
X-17145000Y45631000D01*
X-17145000Y49193000D01*
X-17125315Y49260039D01*
X-17072511Y49305794D01*
X-17021000Y49317000D01*
X-16634000Y49317000D01*
X-16566961Y49297315D01*
G37*
G36*
X-39426961Y49297315D02*
G01*
X-39381206Y49244511D01*
X-39370000Y49193000D01*
X-39370000Y45631000D01*
X-39389685Y45563961D01*
X-39442489Y45518206D01*
X-39494000Y45507000D01*
X-39881000Y45507000D01*
X-39948039Y45526685D01*
X-39993794Y45579489D01*
X-40005000Y45631000D01*
X-40005000Y49193000D01*
X-39985315Y49260039D01*
X-39932511Y49305794D01*
X-39881000Y49317000D01*
X-39494000Y49317000D01*
X-39426961Y49297315D01*
G37*
G36*
X-15296961Y46757315D02*
G01*
X-15251206Y46704511D01*
X-15240000Y46653000D01*
X-15240000Y43091000D01*
X-15259685Y43023961D01*
X-15312489Y42978206D01*
X-15364000Y42967000D01*
X-15751000Y42967000D01*
X-15818039Y42986685D01*
X-15863794Y43039489D01*
X-15875000Y43091000D01*
X-15875000Y46653000D01*
X-15855315Y46720039D01*
X-15802511Y46765794D01*
X-15751000Y46777000D01*
X-15364000Y46777000D01*
X-15296961Y46757315D01*
G37*
G36*
X-15296961Y51837315D02*
G01*
X-15251206Y51784511D01*
X-15240000Y51733000D01*
X-15240000Y48171000D01*
X-15259685Y48103961D01*
X-15312489Y48058206D01*
X-15364000Y48047000D01*
X-15751000Y48047000D01*
X-15818039Y48066685D01*
X-15863794Y48119489D01*
X-15875000Y48171000D01*
X-15875000Y51733000D01*
X-15855315Y51800039D01*
X-15802511Y51845794D01*
X-15751000Y51857000D01*
X-15364000Y51857000D01*
X-15296961Y51837315D01*
G37*
G36*
X-62540961Y59457315D02*
G01*
X-62495206Y59404511D01*
X-62484000Y59353000D01*
X-62484000Y58331000D01*
X-62503685Y58263961D01*
X-62556489Y58218206D01*
X-62608000Y58207000D01*
X-62995000Y58207000D01*
X-63062039Y58226685D01*
X-63107794Y58279489D01*
X-63119000Y58331000D01*
X-63119000Y59353000D01*
X-63099315Y59420039D01*
X-63046511Y59465794D01*
X-62995000Y59477000D01*
X-62608000Y59477000D01*
X-62540961Y59457315D01*
G37*
G36*
X-16566961Y59457315D02*
G01*
X-16521206Y59404511D01*
X-16510000Y59353000D01*
X-16510000Y55791000D01*
X-16529685Y55723961D01*
X-16582489Y55678206D01*
X-16634000Y55667000D01*
X-17021000Y55667000D01*
X-17088039Y55686685D01*
X-17133794Y55739489D01*
X-17145000Y55791000D01*
X-17145000Y59353000D01*
X-17125315Y59420039D01*
X-17072511Y59465794D01*
X-17021000Y59477000D01*
X-16634000Y59477000D01*
X-16566961Y59457315D01*
G37*
G36*
X-39426961Y44217315D02*
G01*
X-39381206Y44164511D01*
X-39370000Y44113000D01*
X-39370000Y43091000D01*
X-39389685Y43023961D01*
X-39442489Y42978206D01*
X-39494000Y42967000D01*
X-39881000Y42967000D01*
X-39948039Y42986685D01*
X-39993794Y43039489D01*
X-40005000Y43091000D01*
X-40005000Y44113000D01*
X-39985315Y44180039D01*
X-39932511Y44225794D01*
X-39881000Y44237000D01*
X-39494000Y44237000D01*
X-39426961Y44217315D01*
G37*
G36*
X-15296961Y56917315D02*
G01*
X-15251206Y56864511D01*
X-15240000Y56813000D01*
X-15240000Y53251000D01*
X-15259685Y53183961D01*
X-15312489Y53138206D01*
X-15364000Y53127000D01*
X-15751000Y53127000D01*
X-15818039Y53146685D01*
X-15863794Y53199489D01*
X-15875000Y53251000D01*
X-15875000Y56813000D01*
X-15855315Y56880039D01*
X-15802511Y56925794D01*
X-15751000Y56937000D01*
X-15364000Y56937000D01*
X-15296961Y56917315D01*
G37*
G36*
X-63810961Y44217315D02*
G01*
X-63765206Y44164511D01*
X-63754000Y44113000D01*
X-63754000Y43091000D01*
X-63773685Y43023961D01*
X-63826489Y42978206D01*
X-63878000Y42967000D01*
X-64265000Y42967000D01*
X-64332039Y42986685D01*
X-64377794Y43039489D01*
X-64389000Y43091000D01*
X-64389000Y44113000D01*
X-64369315Y44180039D01*
X-64316511Y44225794D01*
X-64265000Y44237000D01*
X-63878000Y44237000D01*
X-63810961Y44217315D01*
G37*
G36*
X-63810961Y59457315D02*
G01*
X-63765206Y59404511D01*
X-63754000Y59353000D01*
X-63754000Y55791000D01*
X-63773685Y55723961D01*
X-63826489Y55678206D01*
X-63878000Y55667000D01*
X-64265000Y55667000D01*
X-64332039Y55686685D01*
X-64377794Y55739489D01*
X-64389000Y55791000D01*
X-64389000Y59353000D01*
X-64369315Y59420039D01*
X-64316511Y59465794D01*
X-64265000Y59477000D01*
X-63878000Y59477000D01*
X-63810961Y59457315D01*
G37*
G36*
X-39426961Y54377315D02*
G01*
X-39381206Y54324511D01*
X-39370000Y54273000D01*
X-39370000Y50711000D01*
X-39389685Y50643961D01*
X-39442489Y50598206D01*
X-39494000Y50587000D01*
X-39881000Y50587000D01*
X-39948039Y50606685D01*
X-39993794Y50659489D01*
X-40005000Y50711000D01*
X-40005000Y54273000D01*
X-39985315Y54340039D01*
X-39932511Y54385794D01*
X-39881000Y54397000D01*
X-39494000Y54397000D01*
X-39426961Y54377315D01*
G37*
G36*
X-16566961Y44217315D02*
G01*
X-16521206Y44164511D01*
X-16510000Y44113000D01*
X-16510000Y43091000D01*
X-16529685Y43023961D01*
X-16582489Y42978206D01*
X-16634000Y42967000D01*
X-17021000Y42967000D01*
X-17088039Y42986685D01*
X-17133794Y43039489D01*
X-17145000Y43091000D01*
X-17145000Y44113000D01*
X-17125315Y44180039D01*
X-17072511Y44225794D01*
X-17021000Y44237000D01*
X-16634000Y44237000D01*
X-16566961Y44217315D01*
G37*
G36*
X-38156961Y51837315D02*
G01*
X-38111206Y51784511D01*
X-38100000Y51733000D01*
X-38100000Y48171000D01*
X-38119685Y48103961D01*
X-38172489Y48058206D01*
X-38224000Y48047000D01*
X-38611000Y48047000D01*
X-38678039Y48066685D01*
X-38723794Y48119489D01*
X-38735000Y48171000D01*
X-38735000Y51733000D01*
X-38715315Y51800039D01*
X-38662511Y51845794D01*
X-38611000Y51857000D01*
X-38224000Y51857000D01*
X-38156961Y51837315D01*
G37*
G36*
X-62540961Y56917315D02*
G01*
X-62495206Y56864511D01*
X-62484000Y56813000D01*
X-62484000Y53251000D01*
X-62503685Y53183961D01*
X-62556489Y53138206D01*
X-62608000Y53127000D01*
X-62995000Y53127000D01*
X-63062039Y53146685D01*
X-63107794Y53199489D01*
X-63119000Y53251000D01*
X-63119000Y56813000D01*
X-63099315Y56880039D01*
X-63046511Y56925794D01*
X-62995000Y56937000D01*
X-62608000Y56937000D01*
X-62540961Y56917315D01*
G37*
G36*
X-62540961Y51837315D02*
G01*
X-62495206Y51784511D01*
X-62484000Y51733000D01*
X-62484000Y48171000D01*
X-62503685Y48103961D01*
X-62556489Y48058206D01*
X-62608000Y48047000D01*
X-62995000Y48047000D01*
X-63062039Y48066685D01*
X-63107794Y48119489D01*
X-63119000Y48171000D01*
X-63119000Y51733000D01*
X-63099315Y51800039D01*
X-63046511Y51845794D01*
X-62995000Y51857000D01*
X-62608000Y51857000D01*
X-62540961Y51837315D01*
G37*
G36*
X-63810961Y54377315D02*
G01*
X-63765206Y54324511D01*
X-63754000Y54273000D01*
X-63754000Y50711000D01*
X-63773685Y50643961D01*
X-63826489Y50598206D01*
X-63878000Y50587000D01*
X-64265000Y50587000D01*
X-64332039Y50606685D01*
X-64377794Y50659489D01*
X-64389000Y50711000D01*
X-64389000Y54273000D01*
X-64369315Y54340039D01*
X-64316511Y54385794D01*
X-64265000Y54397000D01*
X-63878000Y54397000D01*
X-63810961Y54377315D01*
G37*
G36*
X-38156961Y46757315D02*
G01*
X-38111206Y46704511D01*
X-38100000Y46653000D01*
X-38100000Y43091000D01*
X-38119685Y43023961D01*
X-38172489Y42978206D01*
X-38224000Y42967000D01*
X-38611000Y42967000D01*
X-38678039Y42986685D01*
X-38723794Y43039489D01*
X-38735000Y43091000D01*
X-38735000Y46653000D01*
X-38715315Y46720039D01*
X-38662511Y46765794D01*
X-38611000Y46777000D01*
X-38224000Y46777000D01*
X-38156961Y46757315D01*
G37*
G36*
X-15296961Y59457315D02*
G01*
X-15251206Y59404511D01*
X-15240000Y59353000D01*
X-15240000Y58331000D01*
X-15259685Y58263961D01*
X-15312489Y58218206D01*
X-15364000Y58207000D01*
X-15751000Y58207000D01*
X-15818039Y58226685D01*
X-15863794Y58279489D01*
X-15875000Y58331000D01*
X-15875000Y59353000D01*
X-15855315Y59420039D01*
X-15802511Y59465794D01*
X-15751000Y59477000D01*
X-15364000Y59477000D01*
X-15296961Y59457315D01*
G37*
G36*
X-38156961Y56917315D02*
G01*
X-38111206Y56864511D01*
X-38100000Y56813000D01*
X-38100000Y53251000D01*
X-38119685Y53183961D01*
X-38172489Y53138206D01*
X-38224000Y53127000D01*
X-38611000Y53127000D01*
X-38678039Y53146685D01*
X-38723794Y53199489D01*
X-38735000Y53251000D01*
X-38735000Y56813000D01*
X-38715315Y56880039D01*
X-38662511Y56925794D01*
X-38611000Y56937000D01*
X-38224000Y56937000D01*
X-38156961Y56917315D01*
G37*
G36*
X-63810961Y49297315D02*
G01*
X-63765206Y49244511D01*
X-63754000Y49193000D01*
X-63754000Y45631000D01*
X-63773685Y45563961D01*
X-63826489Y45518206D01*
X-63878000Y45507000D01*
X-64265000Y45507000D01*
X-64332039Y45526685D01*
X-64377794Y45579489D01*
X-64389000Y45631000D01*
X-64389000Y49193000D01*
X-64369315Y49260039D01*
X-64316511Y49305794D01*
X-64265000Y49317000D01*
X-63878000Y49317000D01*
X-63810961Y49297315D01*
G37*
G36*
X-38156961Y59457315D02*
G01*
X-38111206Y59404511D01*
X-38100000Y59353000D01*
X-38100000Y58331000D01*
X-38119685Y58263961D01*
X-38172489Y58218206D01*
X-38224000Y58207000D01*
X-38611000Y58207000D01*
X-38678039Y58226685D01*
X-38723794Y58279489D01*
X-38735000Y58331000D01*
X-38735000Y59353000D01*
X-38715315Y59420039D01*
X-38662511Y59465794D01*
X-38611000Y59477000D01*
X-38224000Y59477000D01*
X-38156961Y59457315D01*
G37*
G36*
X-16566961Y54377315D02*
G01*
X-16521206Y54324511D01*
X-16510000Y54273000D01*
X-16510000Y50711000D01*
X-16529685Y50643961D01*
X-16582489Y50598206D01*
X-16634000Y50587000D01*
X-17021000Y50587000D01*
X-17088039Y50606685D01*
X-17133794Y50659489D01*
X-17145000Y50711000D01*
X-17145000Y54273000D01*
X-17125315Y54340039D01*
X-17072511Y54385794D01*
X-17021000Y54397000D01*
X-16634000Y54397000D01*
X-16566961Y54377315D01*
G37*
G36*
X-62540961Y46757315D02*
G01*
X-62495206Y46704511D01*
X-62484000Y46653000D01*
X-62484000Y43091000D01*
X-62503685Y43023961D01*
X-62556489Y42978206D01*
X-62608000Y42967000D01*
X-62995000Y42967000D01*
X-63062039Y42986685D01*
X-63107794Y43039489D01*
X-63119000Y43091000D01*
X-63119000Y46653000D01*
X-63099315Y46720039D01*
X-63046511Y46765794D01*
X-62995000Y46777000D01*
X-62608000Y46777000D01*
X-62540961Y46757315D01*
G37*
G36*
X-39426961Y59457315D02*
G01*
X-39381206Y59404511D01*
X-39370000Y59353000D01*
X-39370000Y55791000D01*
X-39389685Y55723961D01*
X-39442489Y55678206D01*
X-39494000Y55667000D01*
X-39881000Y55667000D01*
X-39948039Y55686685D01*
X-39993794Y55739489D01*
X-40005000Y55791000D01*
X-40005000Y59353000D01*
X-39985315Y59420039D01*
X-39932511Y59465794D01*
X-39881000Y59477000D01*
X-39494000Y59477000D01*
X-39426961Y59457315D01*
G37*
M02*
