%TF.GenerationSoftware,KiCad,Pcbnew,9.0.0*%
%TF.CreationDate,2026-04-19T22:58:54+09:00*%
%TF.ProjectId,DRC-DCMD2026.2ch-2E,4452432d-4443-44d4-9432-3032362e3263,rev?*%
%TF.SameCoordinates,Original*%
%TF.FileFunction,Soldermask,Bot*%
%TF.FilePolarity,Negative*%
%FSLAX46Y46*%
G04 Gerber Fmt 4.6, Leading zero omitted, Abs format (unit mm)*
G04 Created by KiCad (PCBNEW 9.0.0) date 2026-04-19 22:58:54*
%MOMM*%
%LPD*%
G01*
G04 APERTURE LIST*
G04 Aperture macros list*
%AMRoundRect*
0 Rectangle with rounded corners*
0 $1 Rounding radius*
0 $2 $3 $4 $5 $6 $7 $8 $9 X,Y pos of 4 corners*
0 Add a 4 corners polygon primitive as box body*
4,1,4,$2,$3,$4,$5,$6,$7,$8,$9,$2,$3,0*
0 Add four circle primitives for the rounded corners*
1,1,$1+$1,$2,$3*
1,1,$1+$1,$4,$5*
1,1,$1+$1,$6,$7*
1,1,$1+$1,$8,$9*
0 Add four rect primitives between the rounded corners*
20,1,$1+$1,$2,$3,$4,$5,0*
20,1,$1+$1,$4,$5,$6,$7,0*
20,1,$1+$1,$6,$7,$8,$9,0*
20,1,$1+$1,$8,$9,$2,$3,0*%
G04 Aperture macros list end*
%ADD10C,3.543406*%
%ADD11C,3.200000*%
%ADD12R,2.000000X0.900000*%
%ADD13RoundRect,1.025000X1.025000X-1.025000X1.025000X1.025000X-1.025000X1.025000X-1.025000X-1.025000X0*%
%ADD14C,4.100000*%
%ADD15R,1.600000X1.600000*%
%ADD16C,1.600000*%
%ADD17RoundRect,0.250000X-0.750000X0.600000X-0.750000X-0.600000X0.750000X-0.600000X0.750000X0.600000X0*%
%ADD18O,2.000000X1.700000*%
%ADD19R,1.500000X1.500000*%
%ADD20C,3.000000*%
%ADD21C,1.400000*%
%ADD22RoundRect,0.770000X-0.980000X-0.980000X0.980000X-0.980000X0.980000X0.980000X-0.980000X0.980000X0*%
%ADD23C,3.500000*%
%ADD24RoundRect,0.250000X0.725000X-0.600000X0.725000X0.600000X-0.725000X0.600000X-0.725000X-0.600000X0*%
%ADD25O,1.950000X1.700000*%
%ADD26RoundRect,0.250000X0.600000X0.600000X-0.600000X0.600000X-0.600000X-0.600000X0.600000X-0.600000X0*%
%ADD27C,1.700000*%
%ADD28RoundRect,0.250000X-0.600000X-0.725000X0.600000X-0.725000X0.600000X0.725000X-0.600000X0.725000X0*%
%ADD29O,1.700000X1.950000*%
%ADD30C,0.650000*%
%ADD31O,1.000000X2.100000*%
%ADD32O,1.000000X1.800000*%
%ADD33C,1.800000*%
%ADD34RoundRect,0.237500X0.237500X-0.250000X0.237500X0.250000X-0.237500X0.250000X-0.237500X-0.250000X0*%
%ADD35RoundRect,0.237500X-0.237500X0.250000X-0.237500X-0.250000X0.237500X-0.250000X0.237500X0.250000X0*%
%ADD36RoundRect,0.087500X0.087500X-0.537500X0.087500X0.537500X-0.087500X0.537500X-0.087500X-0.537500X0*%
%ADD37RoundRect,0.250000X0.337500X0.475000X-0.337500X0.475000X-0.337500X-0.475000X0.337500X-0.475000X0*%
%ADD38RoundRect,0.137500X-0.137500X0.662500X-0.137500X-0.662500X0.137500X-0.662500X0.137500X0.662500X0*%
%ADD39RoundRect,0.237500X0.380070X-0.044194X-0.044194X0.380070X-0.380070X0.044194X0.044194X-0.380070X0*%
%ADD40RoundRect,0.237500X-0.300000X-0.237500X0.300000X-0.237500X0.300000X0.237500X-0.300000X0.237500X0*%
%ADD41RoundRect,0.150000X0.150000X-0.825000X0.150000X0.825000X-0.150000X0.825000X-0.150000X-0.825000X0*%
%ADD42RoundRect,0.237500X0.237500X-0.300000X0.237500X0.300000X-0.237500X0.300000X-0.237500X-0.300000X0*%
%ADD43RoundRect,0.237500X0.300000X0.237500X-0.300000X0.237500X-0.300000X-0.237500X0.300000X-0.237500X0*%
%ADD44RoundRect,0.250000X-0.350000X0.850000X-0.350000X-0.850000X0.350000X-0.850000X0.350000X0.850000X0*%
%ADD45RoundRect,0.249997X-2.650003X2.950003X-2.650003X-2.950003X2.650003X-2.950003X2.650003X2.950003X0*%
%ADD46RoundRect,0.237500X-0.237500X0.300000X-0.237500X-0.300000X0.237500X-0.300000X0.237500X0.300000X0*%
%ADD47RoundRect,0.225000X0.225000X0.375000X-0.225000X0.375000X-0.225000X-0.375000X0.225000X-0.375000X0*%
%ADD48RoundRect,0.250000X-0.475000X0.337500X-0.475000X-0.337500X0.475000X-0.337500X0.475000X0.337500X0*%
%ADD49R,1.000000X1.500000*%
%ADD50RoundRect,0.237500X0.250000X0.237500X-0.250000X0.237500X-0.250000X-0.237500X0.250000X-0.237500X0*%
%ADD51RoundRect,0.237500X-0.250000X-0.237500X0.250000X-0.237500X0.250000X0.237500X-0.250000X0.237500X0*%
%ADD52RoundRect,0.087500X0.087500X-0.725000X0.087500X0.725000X-0.087500X0.725000X-0.087500X-0.725000X0*%
%ADD53RoundRect,0.250000X0.300000X-0.300000X0.300000X0.300000X-0.300000X0.300000X-0.300000X-0.300000X0*%
G04 APERTURE END LIST*
D10*
X-2199724Y65971427D02*
G75*
G02*
X-5743130Y65971427I-1771703J0D01*
G01*
X-5743130Y65971427D02*
G75*
G02*
X-2199724Y65971427I1771703J0D01*
G01*
X-94199724Y3971427D02*
G75*
G02*
X-97743130Y3971427I-1771703J0D01*
G01*
X-97743130Y3971427D02*
G75*
G02*
X-94199724Y3971427I1771703J0D01*
G01*
X-94199724Y65971427D02*
G75*
G02*
X-97743130Y65971427I-1771703J0D01*
G01*
X-97743130Y65971427D02*
G75*
G02*
X-94199724Y65971427I1771703J0D01*
G01*
X-2199724Y3971427D02*
G75*
G02*
X-5743130Y3971427I-1771703J0D01*
G01*
X-5743130Y3971427D02*
G75*
G02*
X-2199724Y3971427I1771703J0D01*
G01*
%TO.C,JP2*%
G36*
X-66362000Y35445000D02*
G01*
X-64762000Y35445000D01*
X-64762000Y36945000D01*
X-66362000Y36945000D01*
X-66362000Y35445000D01*
G37*
%TD*%
D11*
%TO.C,REF\u002A\u002A*%
X-95971427Y65971427D03*
%TD*%
D12*
%TO.C,J9*%
X-89528000Y31350000D03*
X-89528000Y44850000D03*
D13*
X-83528000Y34500000D03*
D14*
X-83528000Y41700000D03*
%TD*%
D15*
%TO.C,C16*%
X-78232000Y63811651D03*
D16*
X-78232000Y67311651D03*
%TD*%
D11*
%TO.C,REF\u002A\u002A*%
X-95971427Y3971427D03*
%TD*%
D17*
%TO.C,J12*%
X-57658000Y5080000D03*
D18*
X-57658000Y2580000D03*
%TD*%
D11*
%TO.C,REF\u002A\u002A*%
X-3971427Y3971427D03*
%TD*%
D19*
%TO.C,SW2*%
X5275000Y-1525000D03*
D16*
X2735000Y-1525000D03*
X7815000Y-1525000D03*
%TD*%
D15*
%TO.C,C14*%
X-86868000Y63811651D03*
D16*
X-86868000Y67311651D03*
%TD*%
D20*
%TO.C,F1*%
X-96880000Y48113000D03*
X-96905000Y51503000D03*
X-83435000Y48113000D03*
X-83435000Y51503000D03*
%TD*%
D21*
%TO.C,J11*%
X-56407000Y60960000D03*
X-45407000Y60960000D03*
D22*
X-53407000Y55960000D03*
D23*
X-48407000Y55960000D03*
%TD*%
D17*
%TO.C,J4*%
X-51037000Y5080000D03*
D18*
X-51037000Y2580000D03*
%TD*%
D15*
%TO.C,C17*%
X-82550000Y56388000D03*
D16*
X-82550000Y59888000D03*
%TD*%
D24*
%TO.C,J7*%
X-7874000Y28000000D03*
D25*
X-7874000Y30500000D03*
X-7874000Y33000000D03*
X-7874000Y35500000D03*
%TD*%
D15*
%TO.C,C15*%
X-91186000Y56386349D03*
D16*
X-91186000Y59886349D03*
%TD*%
D26*
%TO.C,J1*%
X-94107000Y13589000D03*
D27*
X-96647000Y13589000D03*
X-94107000Y16129000D03*
X-96647000Y16129000D03*
X-94107000Y18669000D03*
X-96647000Y18669000D03*
%TD*%
D24*
%TO.C,J8*%
X-7874000Y14852000D03*
D25*
X-7874000Y17352000D03*
X-7874000Y19852000D03*
X-7874000Y22352000D03*
%TD*%
D28*
%TO.C,J6*%
X-38939000Y9292000D03*
D29*
X-36439000Y9292000D03*
X-33939000Y9292000D03*
X-31439000Y9292000D03*
X-28939000Y9292000D03*
%TD*%
D28*
%TO.C,J5*%
X-23271000Y9292000D03*
D29*
X-20771000Y9292000D03*
X-18271000Y9292000D03*
X-15771000Y9292000D03*
X-13271000Y9292000D03*
%TD*%
D21*
%TO.C,J10*%
X-33098000Y60960000D03*
X-22098000Y60960000D03*
D22*
X-30098000Y55960000D03*
D23*
X-25098000Y55960000D03*
%TD*%
D30*
%TO.C,J2*%
X-89247000Y6415000D03*
X-83467000Y6415000D03*
D31*
X-90677000Y6915000D03*
D32*
X-90677000Y2735000D03*
D31*
X-82037000Y6915000D03*
D32*
X-82037000Y2735000D03*
%TD*%
D33*
%TO.C,SW5*%
X-64770000Y8382000D03*
X-67310000Y8382000D03*
X-69850000Y8382000D03*
%TD*%
D17*
%TO.C,J3*%
X-44433000Y5080000D03*
D18*
X-44433000Y2580000D03*
%TD*%
D11*
%TO.C,REF\u002A\u002A*%
X-3971427Y65971427D03*
%TD*%
D34*
%TO.C,R33*%
X-55245000Y22303500D03*
X-55245000Y24128500D03*
%TD*%
D35*
%TO.C,R9*%
X-20999000Y41552500D03*
X-20999000Y39727500D03*
%TD*%
D36*
%TO.C,U13*%
X-12771000Y2410000D03*
X-13271000Y2410000D03*
X-13771000Y2410000D03*
X-14271000Y2410000D03*
X-14271000Y5210000D03*
X-13771000Y5210000D03*
X-13271000Y5210000D03*
X-12771000Y5210000D03*
%TD*%
D35*
%TO.C,R21*%
X-58159600Y41529000D03*
X-58159600Y39704000D03*
%TD*%
D37*
%TO.C,C20*%
X-21337000Y37781000D03*
X-23412000Y37781000D03*
%TD*%
%TO.C,C23*%
X-53005350Y37846000D03*
X-55080350Y37846000D03*
%TD*%
D35*
%TO.C,R14*%
X-26587000Y41552500D03*
X-26587000Y39727500D03*
%TD*%
D38*
%TO.C,U10*%
X-69215000Y28575000D03*
X-66675000Y28575000D03*
X-66675000Y22075000D03*
X-69215000Y22075000D03*
%TD*%
D39*
%TO.C,C8*%
X-59588120Y9859477D03*
X-60807880Y11079237D03*
%TD*%
D35*
%TO.C,R22*%
X-29127000Y41552500D03*
X-29127000Y39727500D03*
%TD*%
D40*
%TO.C,C28*%
X-79933800Y17932400D03*
X-78208800Y17932400D03*
%TD*%
D41*
%TO.C,U6*%
X-20999000Y30483000D03*
X-22269000Y30483000D03*
X-23539000Y30483000D03*
X-24809000Y30483000D03*
X-24809000Y35433000D03*
X-23539000Y35433000D03*
X-22269000Y35433000D03*
X-20999000Y35433000D03*
%TD*%
D34*
%TO.C,R6*%
X-18967000Y36420500D03*
X-18967000Y38245500D03*
%TD*%
D42*
%TO.C,C24*%
X-27349000Y30760500D03*
X-27349000Y32485500D03*
%TD*%
D43*
%TO.C,C6*%
X-61367500Y23876000D03*
X-63092500Y23876000D03*
%TD*%
%TO.C,C7*%
X-53393000Y13462000D03*
X-55118000Y13462000D03*
%TD*%
D35*
%TO.C,R10*%
X-24809000Y41552500D03*
X-24809000Y39727500D03*
%TD*%
D34*
%TO.C,R32*%
X-46736000Y22278500D03*
X-46736000Y24103500D03*
%TD*%
D42*
%TO.C,C33*%
X-27034000Y5233500D03*
X-27034000Y6958500D03*
%TD*%
D41*
%TO.C,U7*%
X-44215000Y30483000D03*
X-45485000Y30483000D03*
X-46755000Y30483000D03*
X-48025000Y30483000D03*
X-48025000Y35433000D03*
X-46755000Y35433000D03*
X-45485000Y35433000D03*
X-44215000Y35433000D03*
%TD*%
D44*
%TO.C,Q3*%
X-49034000Y52206000D03*
D45*
X-46754000Y45906000D03*
D44*
X-44474000Y52206000D03*
%TD*%
%TO.C,Q1*%
X-25820000Y52197000D03*
D45*
X-23540000Y45897000D03*
D44*
X-21260000Y52197000D03*
%TD*%
D40*
%TO.C,C1*%
X-74980800Y12319000D03*
X-73255800Y12319000D03*
%TD*%
D46*
%TO.C,C12*%
X-70994200Y36245800D03*
X-70994200Y34520800D03*
%TD*%
D34*
%TO.C,R2*%
X-84579000Y3001000D03*
X-84579000Y4826000D03*
%TD*%
D47*
%TO.C,D1*%
X-75055000Y10160000D03*
X-78355000Y10160000D03*
%TD*%
D42*
%TO.C,C19*%
X-42437000Y30787000D03*
X-42437000Y32512000D03*
%TD*%
D35*
%TO.C,R4*%
X-70866000Y2794000D03*
X-70866000Y969000D03*
%TD*%
D34*
%TO.C,R26*%
X-27095000Y36420500D03*
X-27095000Y38245500D03*
%TD*%
D40*
%TO.C,C2*%
X-20775000Y15621000D03*
X-19050000Y15621000D03*
%TD*%
D37*
%TO.C,C22*%
X-29486500Y37846000D03*
X-31561500Y37846000D03*
%TD*%
D34*
%TO.C,R30*%
X-23520400Y22255000D03*
X-23520400Y24080000D03*
%TD*%
%TO.C,R7*%
X-42183000Y36420500D03*
X-42183000Y38245500D03*
%TD*%
%TO.C,R27*%
X-50565000Y36405000D03*
X-50565000Y38230000D03*
%TD*%
D48*
%TO.C,C13*%
X-69089200Y36293800D03*
X-69089200Y34218800D03*
%TD*%
D35*
%TO.C,R16*%
X-49803000Y41529000D03*
X-49803000Y39704000D03*
%TD*%
D41*
%TO.C,U9*%
X-52645850Y30483000D03*
X-53915850Y30483000D03*
X-55185850Y30483000D03*
X-56455850Y30483000D03*
X-56455850Y35433000D03*
X-55185850Y35433000D03*
X-53915850Y35433000D03*
X-52645850Y35433000D03*
%TD*%
D35*
%TO.C,R12*%
X-48025000Y41529000D03*
X-48025000Y39704000D03*
%TD*%
D40*
%TO.C,C10*%
X-88720000Y17145000D03*
X-86995000Y17145000D03*
%TD*%
D49*
%TO.C,JP2*%
X-66862000Y36195000D03*
X-65562000Y36195000D03*
X-64262000Y36195000D03*
%TD*%
D43*
%TO.C,C5*%
X-22378500Y16891000D03*
X-24103500Y16891000D03*
%TD*%
%TO.C,C31*%
X-25326000Y2413000D03*
X-27051000Y2413000D03*
%TD*%
D42*
%TO.C,C25*%
X-50946000Y30787000D03*
X-50946000Y32512000D03*
%TD*%
D43*
%TO.C,C32*%
X-9578000Y2413000D03*
X-11303000Y2413000D03*
%TD*%
D34*
%TO.C,R34*%
X-64846200Y22074500D03*
X-64846200Y23899500D03*
%TD*%
D47*
%TO.C,D3*%
X-63628000Y33655000D03*
X-66928000Y33655000D03*
%TD*%
D42*
%TO.C,C9*%
X-79630200Y36375000D03*
X-79630200Y38100000D03*
%TD*%
D44*
%TO.C,Q7*%
X-57417000Y52197000D03*
D45*
X-55137000Y45897000D03*
D44*
X-52857000Y52197000D03*
%TD*%
D35*
%TO.C,R24*%
X-52698600Y41529000D03*
X-52698600Y39704000D03*
%TD*%
%TO.C,R13*%
X-22777000Y41552500D03*
X-22777000Y39727500D03*
%TD*%
D36*
%TO.C,U18*%
X-28439000Y2407000D03*
X-28939000Y2407000D03*
X-29439000Y2407000D03*
X-29939000Y2407000D03*
X-29939000Y5207000D03*
X-29439000Y5207000D03*
X-28939000Y5207000D03*
X-28439000Y5207000D03*
%TD*%
D44*
%TO.C,U4*%
X-77592200Y36372800D03*
X-75312200Y36372800D03*
D45*
X-75312200Y30072800D03*
D44*
X-73032200Y36372800D03*
%TD*%
D35*
%TO.C,R25*%
X-56381600Y41529000D03*
X-56381600Y39704000D03*
%TD*%
D40*
%TO.C,C4*%
X-78384400Y12319000D03*
X-76659400Y12319000D03*
%TD*%
D35*
%TO.C,R5*%
X-68075000Y2808000D03*
X-68075000Y983000D03*
%TD*%
D50*
%TO.C,R3*%
X-13961500Y18161000D03*
X-15786500Y18161000D03*
%TD*%
D35*
%TO.C,R1*%
X-87627000Y4826000D03*
X-87627000Y3001000D03*
%TD*%
%TO.C,R11*%
X-44215000Y41529000D03*
X-44215000Y39704000D03*
%TD*%
D42*
%TO.C,C34*%
X-11413000Y5207000D03*
X-11413000Y6932000D03*
%TD*%
D51*
%TO.C,R35*%
X-64846200Y28575000D03*
X-63021200Y28575000D03*
%TD*%
D35*
%TO.C,R18*%
X-30905000Y41552500D03*
X-30905000Y39727500D03*
%TD*%
%TO.C,R20*%
X-54476600Y41529000D03*
X-54476600Y39704000D03*
%TD*%
D44*
%TO.C,Q5*%
X-33930000Y52197000D03*
D45*
X-31650000Y45897000D03*
D44*
X-29370000Y52197000D03*
%TD*%
D35*
%TO.C,R8*%
X-76454000Y58175500D03*
X-76454000Y56350500D03*
%TD*%
D50*
%TO.C,R28*%
X-78158800Y16383000D03*
X-79983800Y16383000D03*
%TD*%
D35*
%TO.C,R23*%
X-32937000Y41552500D03*
X-32937000Y39727500D03*
%TD*%
D52*
%TO.C,U5*%
X-85487000Y11095500D03*
X-85987000Y11095500D03*
X-86487000Y11095500D03*
X-86987000Y11095500D03*
X-87487000Y11095500D03*
X-87487000Y15320500D03*
X-86987000Y15320500D03*
X-86487000Y15320500D03*
X-85987000Y15320500D03*
X-85487000Y15320500D03*
%TD*%
D35*
%TO.C,R15*%
X-45993000Y41529000D03*
X-45993000Y39704000D03*
%TD*%
D34*
%TO.C,R31*%
X-31623000Y22352000D03*
X-31623000Y24177000D03*
%TD*%
D35*
%TO.C,R17*%
X-65281000Y2808000D03*
X-65281000Y983000D03*
%TD*%
D42*
%TO.C,C18*%
X-19221000Y30760500D03*
X-19221000Y32485500D03*
%TD*%
D37*
%TO.C,C21*%
X-44574500Y37846000D03*
X-46649500Y37846000D03*
%TD*%
D53*
%TO.C,D12*%
X-96647000Y8760000D03*
X-96647000Y11560000D03*
%TD*%
D35*
%TO.C,R19*%
X-34715000Y41552500D03*
X-34715000Y39727500D03*
%TD*%
D41*
%TO.C,U8*%
X-29127000Y30483000D03*
X-30397000Y30483000D03*
X-31667000Y30483000D03*
X-32937000Y30483000D03*
X-32937000Y35433000D03*
X-31667000Y35433000D03*
X-30397000Y35433000D03*
X-29127000Y35433000D03*
%TD*%
G36*
X-16566961Y49297315D02*
G01*
X-16521206Y49244511D01*
X-16510000Y49193000D01*
X-16510000Y45631000D01*
X-16529685Y45563961D01*
X-16582489Y45518206D01*
X-16634000Y45507000D01*
X-17021000Y45507000D01*
X-17088039Y45526685D01*
X-17133794Y45579489D01*
X-17145000Y45631000D01*
X-17145000Y49193000D01*
X-17125315Y49260039D01*
X-17072511Y49305794D01*
X-17021000Y49317000D01*
X-16634000Y49317000D01*
X-16566961Y49297315D01*
G37*
G36*
X-39426961Y49297315D02*
G01*
X-39381206Y49244511D01*
X-39370000Y49193000D01*
X-39370000Y45631000D01*
X-39389685Y45563961D01*
X-39442489Y45518206D01*
X-39494000Y45507000D01*
X-39881000Y45507000D01*
X-39948039Y45526685D01*
X-39993794Y45579489D01*
X-40005000Y45631000D01*
X-40005000Y49193000D01*
X-39985315Y49260039D01*
X-39932511Y49305794D01*
X-39881000Y49317000D01*
X-39494000Y49317000D01*
X-39426961Y49297315D01*
G37*
G36*
X-15296961Y46757315D02*
G01*
X-15251206Y46704511D01*
X-15240000Y46653000D01*
X-15240000Y43091000D01*
X-15259685Y43023961D01*
X-15312489Y42978206D01*
X-15364000Y42967000D01*
X-15751000Y42967000D01*
X-15818039Y42986685D01*
X-15863794Y43039489D01*
X-15875000Y43091000D01*
X-15875000Y46653000D01*
X-15855315Y46720039D01*
X-15802511Y46765794D01*
X-15751000Y46777000D01*
X-15364000Y46777000D01*
X-15296961Y46757315D01*
G37*
G36*
X-15296961Y51837315D02*
G01*
X-15251206Y51784511D01*
X-15240000Y51733000D01*
X-15240000Y48171000D01*
X-15259685Y48103961D01*
X-15312489Y48058206D01*
X-15364000Y48047000D01*
X-15751000Y48047000D01*
X-15818039Y48066685D01*
X-15863794Y48119489D01*
X-15875000Y48171000D01*
X-15875000Y51733000D01*
X-15855315Y51800039D01*
X-15802511Y51845794D01*
X-15751000Y51857000D01*
X-15364000Y51857000D01*
X-15296961Y51837315D01*
G37*
G36*
X-62540961Y59457315D02*
G01*
X-62495206Y59404511D01*
X-62484000Y59353000D01*
X-62484000Y58331000D01*
X-62503685Y58263961D01*
X-62556489Y58218206D01*
X-62608000Y58207000D01*
X-62995000Y58207000D01*
X-63062039Y58226685D01*
X-63107794Y58279489D01*
X-63119000Y58331000D01*
X-63119000Y59353000D01*
X-63099315Y59420039D01*
X-63046511Y59465794D01*
X-62995000Y59477000D01*
X-62608000Y59477000D01*
X-62540961Y59457315D01*
G37*
G36*
X-16566961Y59457315D02*
G01*
X-16521206Y59404511D01*
X-16510000Y59353000D01*
X-16510000Y55791000D01*
X-16529685Y55723961D01*
X-16582489Y55678206D01*
X-16634000Y55667000D01*
X-17021000Y55667000D01*
X-17088039Y55686685D01*
X-17133794Y55739489D01*
X-17145000Y55791000D01*
X-17145000Y59353000D01*
X-17125315Y59420039D01*
X-17072511Y59465794D01*
X-17021000Y59477000D01*
X-16634000Y59477000D01*
X-16566961Y59457315D01*
G37*
G36*
X-39426961Y44217315D02*
G01*
X-39381206Y44164511D01*
X-39370000Y44113000D01*
X-39370000Y43091000D01*
X-39389685Y43023961D01*
X-39442489Y42978206D01*
X-39494000Y42967000D01*
X-39881000Y42967000D01*
X-39948039Y42986685D01*
X-39993794Y43039489D01*
X-40005000Y43091000D01*
X-40005000Y44113000D01*
X-39985315Y44180039D01*
X-39932511Y44225794D01*
X-39881000Y44237000D01*
X-39494000Y44237000D01*
X-39426961Y44217315D01*
G37*
G36*
X-15296961Y56917315D02*
G01*
X-15251206Y56864511D01*
X-15240000Y56813000D01*
X-15240000Y53251000D01*
X-15259685Y53183961D01*
X-15312489Y53138206D01*
X-15364000Y53127000D01*
X-15751000Y53127000D01*
X-15818039Y53146685D01*
X-15863794Y53199489D01*
X-15875000Y53251000D01*
X-15875000Y56813000D01*
X-15855315Y56880039D01*
X-15802511Y56925794D01*
X-15751000Y56937000D01*
X-15364000Y56937000D01*
X-15296961Y56917315D01*
G37*
G36*
X-63810961Y44217315D02*
G01*
X-63765206Y44164511D01*
X-63754000Y44113000D01*
X-63754000Y43091000D01*
X-63773685Y43023961D01*
X-63826489Y42978206D01*
X-63878000Y42967000D01*
X-64265000Y42967000D01*
X-64332039Y42986685D01*
X-64377794Y43039489D01*
X-64389000Y43091000D01*
X-64389000Y44113000D01*
X-64369315Y44180039D01*
X-64316511Y44225794D01*
X-64265000Y44237000D01*
X-63878000Y44237000D01*
X-63810961Y44217315D01*
G37*
G36*
X-63810961Y59457315D02*
G01*
X-63765206Y59404511D01*
X-63754000Y59353000D01*
X-63754000Y55791000D01*
X-63773685Y55723961D01*
X-63826489Y55678206D01*
X-63878000Y55667000D01*
X-64265000Y55667000D01*
X-64332039Y55686685D01*
X-64377794Y55739489D01*
X-64389000Y55791000D01*
X-64389000Y59353000D01*
X-64369315Y59420039D01*
X-64316511Y59465794D01*
X-64265000Y59477000D01*
X-63878000Y59477000D01*
X-63810961Y59457315D01*
G37*
G36*
X-39426961Y54377315D02*
G01*
X-39381206Y54324511D01*
X-39370000Y54273000D01*
X-39370000Y50711000D01*
X-39389685Y50643961D01*
X-39442489Y50598206D01*
X-39494000Y50587000D01*
X-39881000Y50587000D01*
X-39948039Y50606685D01*
X-39993794Y50659489D01*
X-40005000Y50711000D01*
X-40005000Y54273000D01*
X-39985315Y54340039D01*
X-39932511Y54385794D01*
X-39881000Y54397000D01*
X-39494000Y54397000D01*
X-39426961Y54377315D01*
G37*
G36*
X-16566961Y44217315D02*
G01*
X-16521206Y44164511D01*
X-16510000Y44113000D01*
X-16510000Y43091000D01*
X-16529685Y43023961D01*
X-16582489Y42978206D01*
X-16634000Y42967000D01*
X-17021000Y42967000D01*
X-17088039Y42986685D01*
X-17133794Y43039489D01*
X-17145000Y43091000D01*
X-17145000Y44113000D01*
X-17125315Y44180039D01*
X-17072511Y44225794D01*
X-17021000Y44237000D01*
X-16634000Y44237000D01*
X-16566961Y44217315D01*
G37*
G36*
X-38156961Y51837315D02*
G01*
X-38111206Y51784511D01*
X-38100000Y51733000D01*
X-38100000Y48171000D01*
X-38119685Y48103961D01*
X-38172489Y48058206D01*
X-38224000Y48047000D01*
X-38611000Y48047000D01*
X-38678039Y48066685D01*
X-38723794Y48119489D01*
X-38735000Y48171000D01*
X-38735000Y51733000D01*
X-38715315Y51800039D01*
X-38662511Y51845794D01*
X-38611000Y51857000D01*
X-38224000Y51857000D01*
X-38156961Y51837315D01*
G37*
G36*
X-62540961Y56917315D02*
G01*
X-62495206Y56864511D01*
X-62484000Y56813000D01*
X-62484000Y53251000D01*
X-62503685Y53183961D01*
X-62556489Y53138206D01*
X-62608000Y53127000D01*
X-62995000Y53127000D01*
X-63062039Y53146685D01*
X-63107794Y53199489D01*
X-63119000Y53251000D01*
X-63119000Y56813000D01*
X-63099315Y56880039D01*
X-63046511Y56925794D01*
X-62995000Y56937000D01*
X-62608000Y56937000D01*
X-62540961Y56917315D01*
G37*
G36*
X-62540961Y51837315D02*
G01*
X-62495206Y51784511D01*
X-62484000Y51733000D01*
X-62484000Y48171000D01*
X-62503685Y48103961D01*
X-62556489Y48058206D01*
X-62608000Y48047000D01*
X-62995000Y48047000D01*
X-63062039Y48066685D01*
X-63107794Y48119489D01*
X-63119000Y48171000D01*
X-63119000Y51733000D01*
X-63099315Y51800039D01*
X-63046511Y51845794D01*
X-62995000Y51857000D01*
X-62608000Y51857000D01*
X-62540961Y51837315D01*
G37*
G36*
X-63810961Y54377315D02*
G01*
X-63765206Y54324511D01*
X-63754000Y54273000D01*
X-63754000Y50711000D01*
X-63773685Y50643961D01*
X-63826489Y50598206D01*
X-63878000Y50587000D01*
X-64265000Y50587000D01*
X-64332039Y50606685D01*
X-64377794Y50659489D01*
X-64389000Y50711000D01*
X-64389000Y54273000D01*
X-64369315Y54340039D01*
X-64316511Y54385794D01*
X-64265000Y54397000D01*
X-63878000Y54397000D01*
X-63810961Y54377315D01*
G37*
G36*
X-38156961Y46757315D02*
G01*
X-38111206Y46704511D01*
X-38100000Y46653000D01*
X-38100000Y43091000D01*
X-38119685Y43023961D01*
X-38172489Y42978206D01*
X-38224000Y42967000D01*
X-38611000Y42967000D01*
X-38678039Y42986685D01*
X-38723794Y43039489D01*
X-38735000Y43091000D01*
X-38735000Y46653000D01*
X-38715315Y46720039D01*
X-38662511Y46765794D01*
X-38611000Y46777000D01*
X-38224000Y46777000D01*
X-38156961Y46757315D01*
G37*
G36*
X-15296961Y59457315D02*
G01*
X-15251206Y59404511D01*
X-15240000Y59353000D01*
X-15240000Y58331000D01*
X-15259685Y58263961D01*
X-15312489Y58218206D01*
X-15364000Y58207000D01*
X-15751000Y58207000D01*
X-15818039Y58226685D01*
X-15863794Y58279489D01*
X-15875000Y58331000D01*
X-15875000Y59353000D01*
X-15855315Y59420039D01*
X-15802511Y59465794D01*
X-15751000Y59477000D01*
X-15364000Y59477000D01*
X-15296961Y59457315D01*
G37*
G36*
X-38156961Y56917315D02*
G01*
X-38111206Y56864511D01*
X-38100000Y56813000D01*
X-38100000Y53251000D01*
X-38119685Y53183961D01*
X-38172489Y53138206D01*
X-38224000Y53127000D01*
X-38611000Y53127000D01*
X-38678039Y53146685D01*
X-38723794Y53199489D01*
X-38735000Y53251000D01*
X-38735000Y56813000D01*
X-38715315Y56880039D01*
X-38662511Y56925794D01*
X-38611000Y56937000D01*
X-38224000Y56937000D01*
X-38156961Y56917315D01*
G37*
G36*
X-63810961Y49297315D02*
G01*
X-63765206Y49244511D01*
X-63754000Y49193000D01*
X-63754000Y45631000D01*
X-63773685Y45563961D01*
X-63826489Y45518206D01*
X-63878000Y45507000D01*
X-64265000Y45507000D01*
X-64332039Y45526685D01*
X-64377794Y45579489D01*
X-64389000Y45631000D01*
X-64389000Y49193000D01*
X-64369315Y49260039D01*
X-64316511Y49305794D01*
X-64265000Y49317000D01*
X-63878000Y49317000D01*
X-63810961Y49297315D01*
G37*
G36*
X-38156961Y59457315D02*
G01*
X-38111206Y59404511D01*
X-38100000Y59353000D01*
X-38100000Y58331000D01*
X-38119685Y58263961D01*
X-38172489Y58218206D01*
X-38224000Y58207000D01*
X-38611000Y58207000D01*
X-38678039Y58226685D01*
X-38723794Y58279489D01*
X-38735000Y58331000D01*
X-38735000Y59353000D01*
X-38715315Y59420039D01*
X-38662511Y59465794D01*
X-38611000Y59477000D01*
X-38224000Y59477000D01*
X-38156961Y59457315D01*
G37*
G36*
X-16566961Y54377315D02*
G01*
X-16521206Y54324511D01*
X-16510000Y54273000D01*
X-16510000Y50711000D01*
X-16529685Y50643961D01*
X-16582489Y50598206D01*
X-16634000Y50587000D01*
X-17021000Y50587000D01*
X-17088039Y50606685D01*
X-17133794Y50659489D01*
X-17145000Y50711000D01*
X-17145000Y54273000D01*
X-17125315Y54340039D01*
X-17072511Y54385794D01*
X-17021000Y54397000D01*
X-16634000Y54397000D01*
X-16566961Y54377315D01*
G37*
G36*
X-62540961Y46757315D02*
G01*
X-62495206Y46704511D01*
X-62484000Y46653000D01*
X-62484000Y43091000D01*
X-62503685Y43023961D01*
X-62556489Y42978206D01*
X-62608000Y42967000D01*
X-62995000Y42967000D01*
X-63062039Y42986685D01*
X-63107794Y43039489D01*
X-63119000Y43091000D01*
X-63119000Y46653000D01*
X-63099315Y46720039D01*
X-63046511Y46765794D01*
X-62995000Y46777000D01*
X-62608000Y46777000D01*
X-62540961Y46757315D01*
G37*
G36*
X-39426961Y59457315D02*
G01*
X-39381206Y59404511D01*
X-39370000Y59353000D01*
X-39370000Y55791000D01*
X-39389685Y55723961D01*
X-39442489Y55678206D01*
X-39494000Y55667000D01*
X-39881000Y55667000D01*
X-39948039Y55686685D01*
X-39993794Y55739489D01*
X-40005000Y55791000D01*
X-40005000Y59353000D01*
X-39985315Y59420039D01*
X-39932511Y59465794D01*
X-39881000Y59477000D01*
X-39494000Y59477000D01*
X-39426961Y59457315D01*
G37*
G36*
X-86716534Y52431315D02*
G01*
X-86670779Y52378511D01*
X-86659573Y52327000D01*
X-86659573Y48765000D01*
X-86679258Y48697961D01*
X-86732062Y48652206D01*
X-86783573Y48641000D01*
X-87170573Y48641000D01*
X-87237612Y48660685D01*
X-87283367Y48713489D01*
X-87294573Y48765000D01*
X-87294573Y52327000D01*
X-87274888Y52394039D01*
X-87222084Y52439794D01*
X-87170573Y52451000D01*
X-86783573Y52451000D01*
X-86716534Y52431315D01*
G37*
G36*
X-86716534Y42271315D02*
G01*
X-86670779Y42218511D01*
X-86659573Y42167000D01*
X-86659573Y39875000D01*
X-86679258Y39807961D01*
X-86732062Y39762206D01*
X-86783573Y39751000D01*
X-87170573Y39751000D01*
X-87237612Y39770685D01*
X-87283367Y39823489D01*
X-87294573Y39875000D01*
X-87294573Y42167000D01*
X-87274888Y42234039D01*
X-87222084Y42279794D01*
X-87170573Y42291000D01*
X-86783573Y42291000D01*
X-86716534Y42271315D01*
G37*
G36*
X-81636534Y46081315D02*
G01*
X-81590779Y46028511D01*
X-81579573Y45977000D01*
X-81579573Y43685000D01*
X-81599258Y43617961D01*
X-81652062Y43572206D01*
X-81703573Y43561000D01*
X-82090573Y43561000D01*
X-82157612Y43580685D01*
X-82203367Y43633489D01*
X-82214573Y43685000D01*
X-82214573Y45977000D01*
X-82194888Y46044039D01*
X-82142084Y46089794D01*
X-82090573Y46101000D01*
X-81703573Y46101000D01*
X-81636534Y46081315D01*
G37*
G36*
X-84176534Y46081315D02*
G01*
X-84130779Y46028511D01*
X-84119573Y45977000D01*
X-84119573Y44320000D01*
X-84139258Y44252961D01*
X-84192062Y44207206D01*
X-84243573Y44196000D01*
X-84630573Y44196000D01*
X-84697612Y44215685D01*
X-84743367Y44268489D01*
X-84754573Y44320000D01*
X-84754573Y45977000D01*
X-84734888Y46044039D01*
X-84682084Y46089794D01*
X-84630573Y46101000D01*
X-84243573Y46101000D01*
X-84176534Y46081315D01*
G37*
G36*
X-85446534Y44811315D02*
G01*
X-85400779Y44758511D01*
X-85389573Y44707000D01*
X-85389573Y43685000D01*
X-85409258Y43617961D01*
X-85462062Y43572206D01*
X-85513573Y43561000D01*
X-85900573Y43561000D01*
X-85967612Y43580685D01*
X-86013367Y43633489D01*
X-86024573Y43685000D01*
X-86024573Y44707000D01*
X-86004888Y44774039D01*
X-85952084Y44819794D01*
X-85900573Y44831000D01*
X-85513573Y44831000D01*
X-85446534Y44811315D01*
G37*
G36*
X-85446534Y49891315D02*
G01*
X-85400779Y49838511D01*
X-85389573Y49787000D01*
X-85389573Y46225000D01*
X-85409258Y46157961D01*
X-85462062Y46112206D01*
X-85513573Y46101000D01*
X-85900573Y46101000D01*
X-85967612Y46120685D01*
X-86013367Y46173489D01*
X-86024573Y46225000D01*
X-86024573Y49787000D01*
X-86004888Y49854039D01*
X-85952084Y49899794D01*
X-85900573Y49911000D01*
X-85513573Y49911000D01*
X-85446534Y49891315D01*
G37*
G36*
X-82906534Y46081315D02*
G01*
X-82860779Y46028511D01*
X-82849573Y45977000D01*
X-82849573Y44320000D01*
X-82869258Y44252961D01*
X-82922062Y44207206D01*
X-82973573Y44196000D01*
X-83360573Y44196000D01*
X-83427612Y44215685D01*
X-83473367Y44268489D01*
X-83484573Y44320000D01*
X-83484573Y45977000D01*
X-83464888Y46044039D01*
X-83412084Y46089794D01*
X-83360573Y46101000D01*
X-82973573Y46101000D01*
X-82906534Y46081315D01*
G37*
G36*
X-86716534Y47351315D02*
G01*
X-86670779Y47298511D01*
X-86659573Y47247000D01*
X-86659573Y43685000D01*
X-86679258Y43617961D01*
X-86732062Y43572206D01*
X-86783573Y43561000D01*
X-87170573Y43561000D01*
X-87237612Y43580685D01*
X-87283367Y43633489D01*
X-87294573Y43685000D01*
X-87294573Y47247000D01*
X-87274888Y47314039D01*
X-87222084Y47359794D01*
X-87170573Y47371000D01*
X-86783573Y47371000D01*
X-86716534Y47351315D01*
G37*
G36*
X-85446534Y52431315D02*
G01*
X-85400779Y52378511D01*
X-85389573Y52327000D01*
X-85389573Y51305000D01*
X-85409258Y51237961D01*
X-85462062Y51192206D01*
X-85513573Y51181000D01*
X-85900573Y51181000D01*
X-85967612Y51200685D01*
X-86013367Y51253489D01*
X-86024573Y51305000D01*
X-86024573Y52327000D01*
X-86004888Y52394039D01*
X-85952084Y52439794D01*
X-85900573Y52451000D01*
X-85513573Y52451000D01*
X-85446534Y52431315D01*
G37*
M02*
