%TF.GenerationSoftware,KiCad,Pcbnew,9.0.0*%
%TF.CreationDate,2026-04-19T22:58:54+09:00*%
%TF.ProjectId,DRC-DCMD2026.2ch-2E,4452432d-4443-44d4-9432-3032362e3263,rev?*%
%TF.SameCoordinates,Original*%
%TF.FileFunction,Legend,Bot*%
%TF.FilePolarity,Positive*%
%FSLAX46Y46*%
G04 Gerber Fmt 4.6, Leading zero omitted, Abs format (unit mm)*
G04 Created by KiCad (PCBNEW 9.0.0) date 2026-04-19 22:58:54*
%MOMM*%
%LPD*%
G01*
G04 APERTURE LIST*
G04 Aperture macros list*
%AMRoundRect*
0 Rectangle with rounded corners*
0 $1 Rounding radius*
0 $2 $3 $4 $5 $6 $7 $8 $9 X,Y pos of 4 corners*
0 Add a 4 corners polygon primitive as box body*
4,1,4,$2,$3,$4,$5,$6,$7,$8,$9,$2,$3,0*
0 Add four circle primitives for the rounded corners*
1,1,$1+$1,$2,$3*
1,1,$1+$1,$4,$5*
1,1,$1+$1,$6,$7*
1,1,$1+$1,$8,$9*
0 Add four rect primitives between the rounded corners*
20,1,$1+$1,$2,$3,$4,$5,0*
20,1,$1+$1,$4,$5,$6,$7,0*
20,1,$1+$1,$6,$7,$8,$9,0*
20,1,$1+$1,$8,$9,$2,$3,0*%
G04 Aperture macros list end*
%ADD10C,0.150000*%
%ADD11C,0.120000*%
%ADD12C,3.543406*%
%ADD13C,3.200000*%
%ADD14R,2.000000X0.900000*%
%ADD15RoundRect,1.025000X1.025000X-1.025000X1.025000X1.025000X-1.025000X1.025000X-1.025000X-1.025000X0*%
%ADD16C,4.100000*%
%ADD17R,1.600000X1.600000*%
%ADD18C,1.600000*%
%ADD19RoundRect,0.250000X-0.750000X0.600000X-0.750000X-0.600000X0.750000X-0.600000X0.750000X0.600000X0*%
%ADD20O,2.000000X1.700000*%
%ADD21R,1.500000X1.500000*%
%ADD22C,3.000000*%
%ADD23C,1.400000*%
%ADD24RoundRect,0.770000X-0.980000X-0.980000X0.980000X-0.980000X0.980000X0.980000X-0.980000X0.980000X0*%
%ADD25C,3.500000*%
%ADD26RoundRect,0.250000X0.725000X-0.600000X0.725000X0.600000X-0.725000X0.600000X-0.725000X-0.600000X0*%
%ADD27O,1.950000X1.700000*%
%ADD28RoundRect,0.250000X0.600000X0.600000X-0.600000X0.600000X-0.600000X-0.600000X0.600000X-0.600000X0*%
%ADD29C,1.700000*%
%ADD30RoundRect,0.250000X-0.600000X-0.725000X0.600000X-0.725000X0.600000X0.725000X-0.600000X0.725000X0*%
%ADD31O,1.700000X1.950000*%
%ADD32C,0.650000*%
%ADD33O,1.000000X2.100000*%
%ADD34O,1.000000X1.800000*%
%ADD35C,1.800000*%
%ADD36RoundRect,0.237500X0.237500X-0.250000X0.237500X0.250000X-0.237500X0.250000X-0.237500X-0.250000X0*%
%ADD37RoundRect,0.237500X-0.237500X0.250000X-0.237500X-0.250000X0.237500X-0.250000X0.237500X0.250000X0*%
%ADD38RoundRect,0.087500X0.087500X-0.537500X0.087500X0.537500X-0.087500X0.537500X-0.087500X-0.537500X0*%
%ADD39RoundRect,0.250000X0.337500X0.475000X-0.337500X0.475000X-0.337500X-0.475000X0.337500X-0.475000X0*%
%ADD40RoundRect,0.137500X-0.137500X0.662500X-0.137500X-0.662500X0.137500X-0.662500X0.137500X0.662500X0*%
%ADD41RoundRect,0.237500X0.380070X-0.044194X-0.044194X0.380070X-0.380070X0.044194X0.044194X-0.380070X0*%
%ADD42RoundRect,0.237500X-0.300000X-0.237500X0.300000X-0.237500X0.300000X0.237500X-0.300000X0.237500X0*%
%ADD43RoundRect,0.150000X0.150000X-0.825000X0.150000X0.825000X-0.150000X0.825000X-0.150000X-0.825000X0*%
%ADD44RoundRect,0.237500X0.237500X-0.300000X0.237500X0.300000X-0.237500X0.300000X-0.237500X-0.300000X0*%
%ADD45RoundRect,0.237500X0.300000X0.237500X-0.300000X0.237500X-0.300000X-0.237500X0.300000X-0.237500X0*%
%ADD46RoundRect,0.250000X-0.350000X0.850000X-0.350000X-0.850000X0.350000X-0.850000X0.350000X0.850000X0*%
%ADD47RoundRect,0.249997X-2.650003X2.950003X-2.650003X-2.950003X2.650003X-2.950003X2.650003X2.950003X0*%
%ADD48RoundRect,0.237500X-0.237500X0.300000X-0.237500X-0.300000X0.237500X-0.300000X0.237500X0.300000X0*%
%ADD49RoundRect,0.225000X0.225000X0.375000X-0.225000X0.375000X-0.225000X-0.375000X0.225000X-0.375000X0*%
%ADD50RoundRect,0.250000X-0.475000X0.337500X-0.475000X-0.337500X0.475000X-0.337500X0.475000X0.337500X0*%
%ADD51R,1.000000X1.500000*%
%ADD52RoundRect,0.237500X0.250000X0.237500X-0.250000X0.237500X-0.250000X-0.237500X0.250000X-0.237500X0*%
%ADD53RoundRect,0.237500X-0.250000X-0.237500X0.250000X-0.237500X0.250000X0.237500X-0.250000X0.237500X0*%
%ADD54RoundRect,0.087500X0.087500X-0.725000X0.087500X0.725000X-0.087500X0.725000X-0.087500X-0.725000X0*%
%ADD55RoundRect,0.250000X0.300000X-0.300000X0.300000X0.300000X-0.300000X0.300000X-0.300000X-0.300000X0*%
G04 APERTURE END LIST*
D10*
X-53360180Y23858857D02*
X-53836371Y24192190D01*
X-53360180Y24430285D02*
X-54360180Y24430285D01*
X-54360180Y24430285D02*
X-54360180Y24049333D01*
X-54360180Y24049333D02*
X-54312561Y23954095D01*
X-54312561Y23954095D02*
X-54264942Y23906476D01*
X-54264942Y23906476D02*
X-54169704Y23858857D01*
X-54169704Y23858857D02*
X-54026847Y23858857D01*
X-54026847Y23858857D02*
X-53931609Y23906476D01*
X-53931609Y23906476D02*
X-53883990Y23954095D01*
X-53883990Y23954095D02*
X-53836371Y24049333D01*
X-53836371Y24049333D02*
X-53836371Y24430285D01*
X-54360180Y23525523D02*
X-54360180Y22906476D01*
X-54360180Y22906476D02*
X-53979228Y23239809D01*
X-53979228Y23239809D02*
X-53979228Y23096952D01*
X-53979228Y23096952D02*
X-53931609Y23001714D01*
X-53931609Y23001714D02*
X-53883990Y22954095D01*
X-53883990Y22954095D02*
X-53788752Y22906476D01*
X-53788752Y22906476D02*
X-53550657Y22906476D01*
X-53550657Y22906476D02*
X-53455419Y22954095D01*
X-53455419Y22954095D02*
X-53407800Y23001714D01*
X-53407800Y23001714D02*
X-53360180Y23096952D01*
X-53360180Y23096952D02*
X-53360180Y23382666D01*
X-53360180Y23382666D02*
X-53407800Y23477904D01*
X-53407800Y23477904D02*
X-53455419Y23525523D01*
X-54360180Y22573142D02*
X-54360180Y21954095D01*
X-54360180Y21954095D02*
X-53979228Y22287428D01*
X-53979228Y22287428D02*
X-53979228Y22144571D01*
X-53979228Y22144571D02*
X-53931609Y22049333D01*
X-53931609Y22049333D02*
X-53883990Y22001714D01*
X-53883990Y22001714D02*
X-53788752Y21954095D01*
X-53788752Y21954095D02*
X-53550657Y21954095D01*
X-53550657Y21954095D02*
X-53455419Y22001714D01*
X-53455419Y22001714D02*
X-53407800Y22049333D01*
X-53407800Y22049333D02*
X-53360180Y22144571D01*
X-53360180Y22144571D02*
X-53360180Y22430285D01*
X-53360180Y22430285D02*
X-53407800Y22525523D01*
X-53407800Y22525523D02*
X-53455419Y22573142D01*
X-15785180Y5048094D02*
X-14975657Y5048094D01*
X-14975657Y5048094D02*
X-14880419Y5000475D01*
X-14880419Y5000475D02*
X-14832800Y4952856D01*
X-14832800Y4952856D02*
X-14785180Y4857618D01*
X-14785180Y4857618D02*
X-14785180Y4667142D01*
X-14785180Y4667142D02*
X-14832800Y4571904D01*
X-14832800Y4571904D02*
X-14880419Y4524285D01*
X-14880419Y4524285D02*
X-14975657Y4476666D01*
X-14975657Y4476666D02*
X-15785180Y4476666D01*
X-14785180Y3476666D02*
X-14785180Y4048094D01*
X-14785180Y3762380D02*
X-15785180Y3762380D01*
X-15785180Y3762380D02*
X-15642323Y3857618D01*
X-15642323Y3857618D02*
X-15547085Y3952856D01*
X-15547085Y3952856D02*
X-15499466Y4048094D01*
X-15785180Y3143332D02*
X-15785180Y2524285D01*
X-15785180Y2524285D02*
X-15404228Y2857618D01*
X-15404228Y2857618D02*
X-15404228Y2714761D01*
X-15404228Y2714761D02*
X-15356609Y2619523D01*
X-15356609Y2619523D02*
X-15308990Y2571904D01*
X-15308990Y2571904D02*
X-15213752Y2524285D01*
X-15213752Y2524285D02*
X-14975657Y2524285D01*
X-14975657Y2524285D02*
X-14880419Y2571904D01*
X-14880419Y2571904D02*
X-14832800Y2619523D01*
X-14832800Y2619523D02*
X-14785180Y2714761D01*
X-14785180Y2714761D02*
X-14785180Y3000475D01*
X-14785180Y3000475D02*
X-14832800Y3095713D01*
X-14832800Y3095713D02*
X-14880419Y3143332D01*
X-24405419Y38361857D02*
X-24357800Y38409476D01*
X-24357800Y38409476D02*
X-24310180Y38552333D01*
X-24310180Y38552333D02*
X-24310180Y38647571D01*
X-24310180Y38647571D02*
X-24357800Y38790428D01*
X-24357800Y38790428D02*
X-24453038Y38885666D01*
X-24453038Y38885666D02*
X-24548276Y38933285D01*
X-24548276Y38933285D02*
X-24738752Y38980904D01*
X-24738752Y38980904D02*
X-24881609Y38980904D01*
X-24881609Y38980904D02*
X-25072085Y38933285D01*
X-25072085Y38933285D02*
X-25167323Y38885666D01*
X-25167323Y38885666D02*
X-25262561Y38790428D01*
X-25262561Y38790428D02*
X-25310180Y38647571D01*
X-25310180Y38647571D02*
X-25310180Y38552333D01*
X-25310180Y38552333D02*
X-25262561Y38409476D01*
X-25262561Y38409476D02*
X-25214942Y38361857D01*
X-25214942Y37980904D02*
X-25262561Y37933285D01*
X-25262561Y37933285D02*
X-25310180Y37838047D01*
X-25310180Y37838047D02*
X-25310180Y37599952D01*
X-25310180Y37599952D02*
X-25262561Y37504714D01*
X-25262561Y37504714D02*
X-25214942Y37457095D01*
X-25214942Y37457095D02*
X-25119704Y37409476D01*
X-25119704Y37409476D02*
X-25024466Y37409476D01*
X-25024466Y37409476D02*
X-24881609Y37457095D01*
X-24881609Y37457095D02*
X-24310180Y38028523D01*
X-24310180Y38028523D02*
X-24310180Y37409476D01*
X-25310180Y36790428D02*
X-25310180Y36695190D01*
X-25310180Y36695190D02*
X-25262561Y36599952D01*
X-25262561Y36599952D02*
X-25214942Y36552333D01*
X-25214942Y36552333D02*
X-25119704Y36504714D01*
X-25119704Y36504714D02*
X-24929228Y36457095D01*
X-24929228Y36457095D02*
X-24691133Y36457095D01*
X-24691133Y36457095D02*
X-24500657Y36504714D01*
X-24500657Y36504714D02*
X-24405419Y36552333D01*
X-24405419Y36552333D02*
X-24357800Y36599952D01*
X-24357800Y36599952D02*
X-24310180Y36695190D01*
X-24310180Y36695190D02*
X-24310180Y36790428D01*
X-24310180Y36790428D02*
X-24357800Y36885666D01*
X-24357800Y36885666D02*
X-24405419Y36933285D01*
X-24405419Y36933285D02*
X-24500657Y36980904D01*
X-24500657Y36980904D02*
X-24691133Y37028523D01*
X-24691133Y37028523D02*
X-24929228Y37028523D01*
X-24929228Y37028523D02*
X-25119704Y36980904D01*
X-25119704Y36980904D02*
X-25214942Y36933285D01*
X-25214942Y36933285D02*
X-25262561Y36885666D01*
X-25262561Y36885666D02*
X-25310180Y36790428D01*
X-56155419Y38361857D02*
X-56107800Y38409476D01*
X-56107800Y38409476D02*
X-56060180Y38552333D01*
X-56060180Y38552333D02*
X-56060180Y38647571D01*
X-56060180Y38647571D02*
X-56107800Y38790428D01*
X-56107800Y38790428D02*
X-56203038Y38885666D01*
X-56203038Y38885666D02*
X-56298276Y38933285D01*
X-56298276Y38933285D02*
X-56488752Y38980904D01*
X-56488752Y38980904D02*
X-56631609Y38980904D01*
X-56631609Y38980904D02*
X-56822085Y38933285D01*
X-56822085Y38933285D02*
X-56917323Y38885666D01*
X-56917323Y38885666D02*
X-57012561Y38790428D01*
X-57012561Y38790428D02*
X-57060180Y38647571D01*
X-57060180Y38647571D02*
X-57060180Y38552333D01*
X-57060180Y38552333D02*
X-57012561Y38409476D01*
X-57012561Y38409476D02*
X-56964942Y38361857D01*
X-56964942Y37980904D02*
X-57012561Y37933285D01*
X-57012561Y37933285D02*
X-57060180Y37838047D01*
X-57060180Y37838047D02*
X-57060180Y37599952D01*
X-57060180Y37599952D02*
X-57012561Y37504714D01*
X-57012561Y37504714D02*
X-56964942Y37457095D01*
X-56964942Y37457095D02*
X-56869704Y37409476D01*
X-56869704Y37409476D02*
X-56774466Y37409476D01*
X-56774466Y37409476D02*
X-56631609Y37457095D01*
X-56631609Y37457095D02*
X-56060180Y38028523D01*
X-56060180Y38028523D02*
X-56060180Y37409476D01*
X-57060180Y37076142D02*
X-57060180Y36457095D01*
X-57060180Y36457095D02*
X-56679228Y36790428D01*
X-56679228Y36790428D02*
X-56679228Y36647571D01*
X-56679228Y36647571D02*
X-56631609Y36552333D01*
X-56631609Y36552333D02*
X-56583990Y36504714D01*
X-56583990Y36504714D02*
X-56488752Y36457095D01*
X-56488752Y36457095D02*
X-56250657Y36457095D01*
X-56250657Y36457095D02*
X-56155419Y36504714D01*
X-56155419Y36504714D02*
X-56107800Y36552333D01*
X-56107800Y36552333D02*
X-56060180Y36647571D01*
X-56060180Y36647571D02*
X-56060180Y36933285D01*
X-56060180Y36933285D02*
X-56107800Y37028523D01*
X-56107800Y37028523D02*
X-56155419Y37076142D01*
X-71290180Y26563094D02*
X-70480657Y26563094D01*
X-70480657Y26563094D02*
X-70385419Y26515475D01*
X-70385419Y26515475D02*
X-70337800Y26467856D01*
X-70337800Y26467856D02*
X-70290180Y26372618D01*
X-70290180Y26372618D02*
X-70290180Y26182142D01*
X-70290180Y26182142D02*
X-70337800Y26086904D01*
X-70337800Y26086904D02*
X-70385419Y26039285D01*
X-70385419Y26039285D02*
X-70480657Y25991666D01*
X-70480657Y25991666D02*
X-71290180Y25991666D01*
X-70290180Y24991666D02*
X-70290180Y25563094D01*
X-70290180Y25277380D02*
X-71290180Y25277380D01*
X-71290180Y25277380D02*
X-71147323Y25372618D01*
X-71147323Y25372618D02*
X-71052085Y25467856D01*
X-71052085Y25467856D02*
X-71004466Y25563094D01*
X-71290180Y24372618D02*
X-71290180Y24277380D01*
X-71290180Y24277380D02*
X-71242561Y24182142D01*
X-71242561Y24182142D02*
X-71194942Y24134523D01*
X-71194942Y24134523D02*
X-71099704Y24086904D01*
X-71099704Y24086904D02*
X-70909228Y24039285D01*
X-70909228Y24039285D02*
X-70671133Y24039285D01*
X-70671133Y24039285D02*
X-70480657Y24086904D01*
X-70480657Y24086904D02*
X-70385419Y24134523D01*
X-70385419Y24134523D02*
X-70337800Y24182142D01*
X-70337800Y24182142D02*
X-70290180Y24277380D01*
X-70290180Y24277380D02*
X-70290180Y24372618D01*
X-70290180Y24372618D02*
X-70337800Y24467856D01*
X-70337800Y24467856D02*
X-70385419Y24515475D01*
X-70385419Y24515475D02*
X-70480657Y24563094D01*
X-70480657Y24563094D02*
X-70671133Y24610713D01*
X-70671133Y24610713D02*
X-70909228Y24610713D01*
X-70909228Y24610713D02*
X-71099704Y24563094D01*
X-71099704Y24563094D02*
X-71194942Y24515475D01*
X-71194942Y24515475D02*
X-71242561Y24467856D01*
X-71242561Y24467856D02*
X-71290180Y24372618D01*
X-59323248Y11108407D02*
X-59323248Y11041063D01*
X-59323248Y11041063D02*
X-59255904Y10906376D01*
X-59255904Y10906376D02*
X-59188561Y10839033D01*
X-59188561Y10839033D02*
X-59053874Y10771689D01*
X-59053874Y10771689D02*
X-58919187Y10771689D01*
X-58919187Y10771689D02*
X-58818172Y10805361D01*
X-58818172Y10805361D02*
X-58649813Y10906376D01*
X-58649813Y10906376D02*
X-58548798Y11007391D01*
X-58548798Y11007391D02*
X-58447782Y11175750D01*
X-58447782Y11175750D02*
X-58414111Y11276765D01*
X-58414111Y11276765D02*
X-58414111Y11411452D01*
X-58414111Y11411452D02*
X-58481454Y11546139D01*
X-58481454Y11546139D02*
X-58548798Y11613483D01*
X-58548798Y11613483D02*
X-58683485Y11680826D01*
X-58683485Y11680826D02*
X-58750828Y11680826D01*
X-59390591Y11849185D02*
X-59289576Y11815513D01*
X-59289576Y11815513D02*
X-59222233Y11815513D01*
X-59222233Y11815513D02*
X-59121217Y11849185D01*
X-59121217Y11849185D02*
X-59087546Y11882857D01*
X-59087546Y11882857D02*
X-59053874Y11983872D01*
X-59053874Y11983872D02*
X-59053874Y12051216D01*
X-59053874Y12051216D02*
X-59087546Y12152231D01*
X-59087546Y12152231D02*
X-59222233Y12286918D01*
X-59222233Y12286918D02*
X-59323248Y12320590D01*
X-59323248Y12320590D02*
X-59390591Y12320590D01*
X-59390591Y12320590D02*
X-59491607Y12286918D01*
X-59491607Y12286918D02*
X-59525278Y12253246D01*
X-59525278Y12253246D02*
X-59558950Y12152231D01*
X-59558950Y12152231D02*
X-59558950Y12084887D01*
X-59558950Y12084887D02*
X-59525278Y11983872D01*
X-59525278Y11983872D02*
X-59390591Y11849185D01*
X-59390591Y11849185D02*
X-59356920Y11748170D01*
X-59356920Y11748170D02*
X-59356920Y11680826D01*
X-59356920Y11680826D02*
X-59390591Y11579811D01*
X-59390591Y11579811D02*
X-59525278Y11445124D01*
X-59525278Y11445124D02*
X-59626294Y11411452D01*
X-59626294Y11411452D02*
X-59693637Y11411452D01*
X-59693637Y11411452D02*
X-59794652Y11445124D01*
X-59794652Y11445124D02*
X-59929339Y11579811D01*
X-59929339Y11579811D02*
X-59963011Y11680826D01*
X-59963011Y11680826D02*
X-59963011Y11748170D01*
X-59963011Y11748170D02*
X-59929339Y11849185D01*
X-59929339Y11849185D02*
X-59794652Y11983872D01*
X-59794652Y11983872D02*
X-59693637Y12017544D01*
X-59693637Y12017544D02*
X-59626294Y12017544D01*
X-59626294Y12017544D02*
X-59525278Y11983872D01*
X-78428442Y18817419D02*
X-78380823Y18769800D01*
X-78380823Y18769800D02*
X-78237966Y18722180D01*
X-78237966Y18722180D02*
X-78142728Y18722180D01*
X-78142728Y18722180D02*
X-77999871Y18769800D01*
X-77999871Y18769800D02*
X-77904633Y18865038D01*
X-77904633Y18865038D02*
X-77857014Y18960276D01*
X-77857014Y18960276D02*
X-77809395Y19150752D01*
X-77809395Y19150752D02*
X-77809395Y19293609D01*
X-77809395Y19293609D02*
X-77857014Y19484085D01*
X-77857014Y19484085D02*
X-77904633Y19579323D01*
X-77904633Y19579323D02*
X-77999871Y19674561D01*
X-77999871Y19674561D02*
X-78142728Y19722180D01*
X-78142728Y19722180D02*
X-78237966Y19722180D01*
X-78237966Y19722180D02*
X-78380823Y19674561D01*
X-78380823Y19674561D02*
X-78428442Y19626942D01*
X-78809395Y19626942D02*
X-78857014Y19674561D01*
X-78857014Y19674561D02*
X-78952252Y19722180D01*
X-78952252Y19722180D02*
X-79190347Y19722180D01*
X-79190347Y19722180D02*
X-79285585Y19674561D01*
X-79285585Y19674561D02*
X-79333204Y19626942D01*
X-79333204Y19626942D02*
X-79380823Y19531704D01*
X-79380823Y19531704D02*
X-79380823Y19436466D01*
X-79380823Y19436466D02*
X-79333204Y19293609D01*
X-79333204Y19293609D02*
X-78761776Y18722180D01*
X-78761776Y18722180D02*
X-79380823Y18722180D01*
X-79952252Y19293609D02*
X-79857014Y19341228D01*
X-79857014Y19341228D02*
X-79809395Y19388847D01*
X-79809395Y19388847D02*
X-79761776Y19484085D01*
X-79761776Y19484085D02*
X-79761776Y19531704D01*
X-79761776Y19531704D02*
X-79809395Y19626942D01*
X-79809395Y19626942D02*
X-79857014Y19674561D01*
X-79857014Y19674561D02*
X-79952252Y19722180D01*
X-79952252Y19722180D02*
X-80142728Y19722180D01*
X-80142728Y19722180D02*
X-80237966Y19674561D01*
X-80237966Y19674561D02*
X-80285585Y19626942D01*
X-80285585Y19626942D02*
X-80333204Y19531704D01*
X-80333204Y19531704D02*
X-80333204Y19484085D01*
X-80333204Y19484085D02*
X-80285585Y19388847D01*
X-80285585Y19388847D02*
X-80237966Y19341228D01*
X-80237966Y19341228D02*
X-80142728Y19293609D01*
X-80142728Y19293609D02*
X-79952252Y19293609D01*
X-79952252Y19293609D02*
X-79857014Y19245990D01*
X-79857014Y19245990D02*
X-79809395Y19198371D01*
X-79809395Y19198371D02*
X-79761776Y19103133D01*
X-79761776Y19103133D02*
X-79761776Y18912657D01*
X-79761776Y18912657D02*
X-79809395Y18817419D01*
X-79809395Y18817419D02*
X-79857014Y18769800D01*
X-79857014Y18769800D02*
X-79952252Y18722180D01*
X-79952252Y18722180D02*
X-80142728Y18722180D01*
X-80142728Y18722180D02*
X-80237966Y18769800D01*
X-80237966Y18769800D02*
X-80285585Y18817419D01*
X-80285585Y18817419D02*
X-80333204Y18912657D01*
X-80333204Y18912657D02*
X-80333204Y19103133D01*
X-80333204Y19103133D02*
X-80285585Y19198371D01*
X-80285585Y19198371D02*
X-80237966Y19245990D01*
X-80237966Y19245990D02*
X-80142728Y19293609D01*
X-20049180Y33719904D02*
X-19239657Y33719904D01*
X-19239657Y33719904D02*
X-19144419Y33672285D01*
X-19144419Y33672285D02*
X-19096800Y33624666D01*
X-19096800Y33624666D02*
X-19049180Y33529428D01*
X-19049180Y33529428D02*
X-19049180Y33338952D01*
X-19049180Y33338952D02*
X-19096800Y33243714D01*
X-19096800Y33243714D02*
X-19144419Y33196095D01*
X-19144419Y33196095D02*
X-19239657Y33148476D01*
X-19239657Y33148476D02*
X-20049180Y33148476D01*
X-20049180Y32243714D02*
X-20049180Y32434190D01*
X-20049180Y32434190D02*
X-20001561Y32529428D01*
X-20001561Y32529428D02*
X-19953942Y32577047D01*
X-19953942Y32577047D02*
X-19811085Y32672285D01*
X-19811085Y32672285D02*
X-19620609Y32719904D01*
X-19620609Y32719904D02*
X-19239657Y32719904D01*
X-19239657Y32719904D02*
X-19144419Y32672285D01*
X-19144419Y32672285D02*
X-19096800Y32624666D01*
X-19096800Y32624666D02*
X-19049180Y32529428D01*
X-19049180Y32529428D02*
X-19049180Y32338952D01*
X-19049180Y32338952D02*
X-19096800Y32243714D01*
X-19096800Y32243714D02*
X-19144419Y32196095D01*
X-19144419Y32196095D02*
X-19239657Y32148476D01*
X-19239657Y32148476D02*
X-19477752Y32148476D01*
X-19477752Y32148476D02*
X-19572990Y32196095D01*
X-19572990Y32196095D02*
X-19620609Y32243714D01*
X-19620609Y32243714D02*
X-19668228Y32338952D01*
X-19668228Y32338952D02*
X-19668228Y32529428D01*
X-19668228Y32529428D02*
X-19620609Y32624666D01*
X-19620609Y32624666D02*
X-19572990Y32672285D01*
X-19572990Y32672285D02*
X-19477752Y32719904D01*
X-17082180Y37499666D02*
X-17558371Y37832999D01*
X-17082180Y38071094D02*
X-18082180Y38071094D01*
X-18082180Y38071094D02*
X-18082180Y37690142D01*
X-18082180Y37690142D02*
X-18034561Y37594904D01*
X-18034561Y37594904D02*
X-17986942Y37547285D01*
X-17986942Y37547285D02*
X-17891704Y37499666D01*
X-17891704Y37499666D02*
X-17748847Y37499666D01*
X-17748847Y37499666D02*
X-17653609Y37547285D01*
X-17653609Y37547285D02*
X-17605990Y37594904D01*
X-17605990Y37594904D02*
X-17558371Y37690142D01*
X-17558371Y37690142D02*
X-17558371Y38071094D01*
X-18082180Y36642523D02*
X-18082180Y36832999D01*
X-18082180Y36832999D02*
X-18034561Y36928237D01*
X-18034561Y36928237D02*
X-17986942Y36975856D01*
X-17986942Y36975856D02*
X-17844085Y37071094D01*
X-17844085Y37071094D02*
X-17653609Y37118713D01*
X-17653609Y37118713D02*
X-17272657Y37118713D01*
X-17272657Y37118713D02*
X-17177419Y37071094D01*
X-17177419Y37071094D02*
X-17129800Y37023475D01*
X-17129800Y37023475D02*
X-17082180Y36928237D01*
X-17082180Y36928237D02*
X-17082180Y36737761D01*
X-17082180Y36737761D02*
X-17129800Y36642523D01*
X-17129800Y36642523D02*
X-17177419Y36594904D01*
X-17177419Y36594904D02*
X-17272657Y36547285D01*
X-17272657Y36547285D02*
X-17510752Y36547285D01*
X-17510752Y36547285D02*
X-17605990Y36594904D01*
X-17605990Y36594904D02*
X-17653609Y36642523D01*
X-17653609Y36642523D02*
X-17701228Y36737761D01*
X-17701228Y36737761D02*
X-17701228Y36928237D01*
X-17701228Y36928237D02*
X-17653609Y37023475D01*
X-17653609Y37023475D02*
X-17605990Y37071094D01*
X-17605990Y37071094D02*
X-17510752Y37118713D01*
X-25559419Y32265857D02*
X-25511800Y32313476D01*
X-25511800Y32313476D02*
X-25464180Y32456333D01*
X-25464180Y32456333D02*
X-25464180Y32551571D01*
X-25464180Y32551571D02*
X-25511800Y32694428D01*
X-25511800Y32694428D02*
X-25607038Y32789666D01*
X-25607038Y32789666D02*
X-25702276Y32837285D01*
X-25702276Y32837285D02*
X-25892752Y32884904D01*
X-25892752Y32884904D02*
X-26035609Y32884904D01*
X-26035609Y32884904D02*
X-26226085Y32837285D01*
X-26226085Y32837285D02*
X-26321323Y32789666D01*
X-26321323Y32789666D02*
X-26416561Y32694428D01*
X-26416561Y32694428D02*
X-26464180Y32551571D01*
X-26464180Y32551571D02*
X-26464180Y32456333D01*
X-26464180Y32456333D02*
X-26416561Y32313476D01*
X-26416561Y32313476D02*
X-26368942Y32265857D01*
X-26368942Y31884904D02*
X-26416561Y31837285D01*
X-26416561Y31837285D02*
X-26464180Y31742047D01*
X-26464180Y31742047D02*
X-26464180Y31503952D01*
X-26464180Y31503952D02*
X-26416561Y31408714D01*
X-26416561Y31408714D02*
X-26368942Y31361095D01*
X-26368942Y31361095D02*
X-26273704Y31313476D01*
X-26273704Y31313476D02*
X-26178466Y31313476D01*
X-26178466Y31313476D02*
X-26035609Y31361095D01*
X-26035609Y31361095D02*
X-25464180Y31932523D01*
X-25464180Y31932523D02*
X-25464180Y31313476D01*
X-26130847Y30456333D02*
X-25464180Y30456333D01*
X-26511800Y30694428D02*
X-25797514Y30932523D01*
X-25797514Y30932523D02*
X-25797514Y30313476D01*
X-62063333Y24946419D02*
X-62015714Y24898800D01*
X-62015714Y24898800D02*
X-61872857Y24851180D01*
X-61872857Y24851180D02*
X-61777619Y24851180D01*
X-61777619Y24851180D02*
X-61634762Y24898800D01*
X-61634762Y24898800D02*
X-61539524Y24994038D01*
X-61539524Y24994038D02*
X-61491905Y25089276D01*
X-61491905Y25089276D02*
X-61444286Y25279752D01*
X-61444286Y25279752D02*
X-61444286Y25422609D01*
X-61444286Y25422609D02*
X-61491905Y25613085D01*
X-61491905Y25613085D02*
X-61539524Y25708323D01*
X-61539524Y25708323D02*
X-61634762Y25803561D01*
X-61634762Y25803561D02*
X-61777619Y25851180D01*
X-61777619Y25851180D02*
X-61872857Y25851180D01*
X-61872857Y25851180D02*
X-62015714Y25803561D01*
X-62015714Y25803561D02*
X-62063333Y25755942D01*
X-62920476Y25851180D02*
X-62730000Y25851180D01*
X-62730000Y25851180D02*
X-62634762Y25803561D01*
X-62634762Y25803561D02*
X-62587143Y25755942D01*
X-62587143Y25755942D02*
X-62491905Y25613085D01*
X-62491905Y25613085D02*
X-62444286Y25422609D01*
X-62444286Y25422609D02*
X-62444286Y25041657D01*
X-62444286Y25041657D02*
X-62491905Y24946419D01*
X-62491905Y24946419D02*
X-62539524Y24898800D01*
X-62539524Y24898800D02*
X-62634762Y24851180D01*
X-62634762Y24851180D02*
X-62825238Y24851180D01*
X-62825238Y24851180D02*
X-62920476Y24898800D01*
X-62920476Y24898800D02*
X-62968095Y24946419D01*
X-62968095Y24946419D02*
X-63015714Y25041657D01*
X-63015714Y25041657D02*
X-63015714Y25279752D01*
X-63015714Y25279752D02*
X-62968095Y25374990D01*
X-62968095Y25374990D02*
X-62920476Y25422609D01*
X-62920476Y25422609D02*
X-62825238Y25470228D01*
X-62825238Y25470228D02*
X-62634762Y25470228D01*
X-62634762Y25470228D02*
X-62539524Y25422609D01*
X-62539524Y25422609D02*
X-62491905Y25374990D01*
X-62491905Y25374990D02*
X-62444286Y25279752D01*
X-54088833Y14532419D02*
X-54041214Y14484800D01*
X-54041214Y14484800D02*
X-53898357Y14437180D01*
X-53898357Y14437180D02*
X-53803119Y14437180D01*
X-53803119Y14437180D02*
X-53660262Y14484800D01*
X-53660262Y14484800D02*
X-53565024Y14580038D01*
X-53565024Y14580038D02*
X-53517405Y14675276D01*
X-53517405Y14675276D02*
X-53469786Y14865752D01*
X-53469786Y14865752D02*
X-53469786Y15008609D01*
X-53469786Y15008609D02*
X-53517405Y15199085D01*
X-53517405Y15199085D02*
X-53565024Y15294323D01*
X-53565024Y15294323D02*
X-53660262Y15389561D01*
X-53660262Y15389561D02*
X-53803119Y15437180D01*
X-53803119Y15437180D02*
X-53898357Y15437180D01*
X-53898357Y15437180D02*
X-54041214Y15389561D01*
X-54041214Y15389561D02*
X-54088833Y15341942D01*
X-54422167Y15437180D02*
X-55088833Y15437180D01*
X-55088833Y15437180D02*
X-54660262Y14437180D01*
X-44851180Y23833857D02*
X-45327371Y24167190D01*
X-44851180Y24405285D02*
X-45851180Y24405285D01*
X-45851180Y24405285D02*
X-45851180Y24024333D01*
X-45851180Y24024333D02*
X-45803561Y23929095D01*
X-45803561Y23929095D02*
X-45755942Y23881476D01*
X-45755942Y23881476D02*
X-45660704Y23833857D01*
X-45660704Y23833857D02*
X-45517847Y23833857D01*
X-45517847Y23833857D02*
X-45422609Y23881476D01*
X-45422609Y23881476D02*
X-45374990Y23929095D01*
X-45374990Y23929095D02*
X-45327371Y24024333D01*
X-45327371Y24024333D02*
X-45327371Y24405285D01*
X-45851180Y23500523D02*
X-45851180Y22881476D01*
X-45851180Y22881476D02*
X-45470228Y23214809D01*
X-45470228Y23214809D02*
X-45470228Y23071952D01*
X-45470228Y23071952D02*
X-45422609Y22976714D01*
X-45422609Y22976714D02*
X-45374990Y22929095D01*
X-45374990Y22929095D02*
X-45279752Y22881476D01*
X-45279752Y22881476D02*
X-45041657Y22881476D01*
X-45041657Y22881476D02*
X-44946419Y22929095D01*
X-44946419Y22929095D02*
X-44898800Y22976714D01*
X-44898800Y22976714D02*
X-44851180Y23071952D01*
X-44851180Y23071952D02*
X-44851180Y23357666D01*
X-44851180Y23357666D02*
X-44898800Y23452904D01*
X-44898800Y23452904D02*
X-44946419Y23500523D01*
X-45755942Y22500523D02*
X-45803561Y22452904D01*
X-45803561Y22452904D02*
X-45851180Y22357666D01*
X-45851180Y22357666D02*
X-45851180Y22119571D01*
X-45851180Y22119571D02*
X-45803561Y22024333D01*
X-45803561Y22024333D02*
X-45755942Y21976714D01*
X-45755942Y21976714D02*
X-45660704Y21929095D01*
X-45660704Y21929095D02*
X-45565466Y21929095D01*
X-45565466Y21929095D02*
X-45422609Y21976714D01*
X-45422609Y21976714D02*
X-44851180Y22548142D01*
X-44851180Y22548142D02*
X-44851180Y21929095D01*
X-25244419Y6738857D02*
X-25196800Y6786476D01*
X-25196800Y6786476D02*
X-25149180Y6929333D01*
X-25149180Y6929333D02*
X-25149180Y7024571D01*
X-25149180Y7024571D02*
X-25196800Y7167428D01*
X-25196800Y7167428D02*
X-25292038Y7262666D01*
X-25292038Y7262666D02*
X-25387276Y7310285D01*
X-25387276Y7310285D02*
X-25577752Y7357904D01*
X-25577752Y7357904D02*
X-25720609Y7357904D01*
X-25720609Y7357904D02*
X-25911085Y7310285D01*
X-25911085Y7310285D02*
X-26006323Y7262666D01*
X-26006323Y7262666D02*
X-26101561Y7167428D01*
X-26101561Y7167428D02*
X-26149180Y7024571D01*
X-26149180Y7024571D02*
X-26149180Y6929333D01*
X-26149180Y6929333D02*
X-26101561Y6786476D01*
X-26101561Y6786476D02*
X-26053942Y6738857D01*
X-26149180Y6405523D02*
X-26149180Y5786476D01*
X-26149180Y5786476D02*
X-25768228Y6119809D01*
X-25768228Y6119809D02*
X-25768228Y5976952D01*
X-25768228Y5976952D02*
X-25720609Y5881714D01*
X-25720609Y5881714D02*
X-25672990Y5834095D01*
X-25672990Y5834095D02*
X-25577752Y5786476D01*
X-25577752Y5786476D02*
X-25339657Y5786476D01*
X-25339657Y5786476D02*
X-25244419Y5834095D01*
X-25244419Y5834095D02*
X-25196800Y5881714D01*
X-25196800Y5881714D02*
X-25149180Y5976952D01*
X-25149180Y5976952D02*
X-25149180Y6262666D01*
X-25149180Y6262666D02*
X-25196800Y6357904D01*
X-25196800Y6357904D02*
X-25244419Y6405523D01*
X-26149180Y5453142D02*
X-26149180Y4834095D01*
X-26149180Y4834095D02*
X-25768228Y5167428D01*
X-25768228Y5167428D02*
X-25768228Y5024571D01*
X-25768228Y5024571D02*
X-25720609Y4929333D01*
X-25720609Y4929333D02*
X-25672990Y4881714D01*
X-25672990Y4881714D02*
X-25577752Y4834095D01*
X-25577752Y4834095D02*
X-25339657Y4834095D01*
X-25339657Y4834095D02*
X-25244419Y4881714D01*
X-25244419Y4881714D02*
X-25196800Y4929333D01*
X-25196800Y4929333D02*
X-25149180Y5024571D01*
X-25149180Y5024571D02*
X-25149180Y5310285D01*
X-25149180Y5310285D02*
X-25196800Y5405523D01*
X-25196800Y5405523D02*
X-25244419Y5453142D01*
X-41105942Y47339238D02*
X-41153561Y47434476D01*
X-41153561Y47434476D02*
X-41248800Y47529714D01*
X-41248800Y47529714D02*
X-41391657Y47672571D01*
X-41391657Y47672571D02*
X-41439276Y47767809D01*
X-41439276Y47767809D02*
X-41439276Y47863047D01*
X-41201180Y47815428D02*
X-41248800Y47910666D01*
X-41248800Y47910666D02*
X-41344038Y48005904D01*
X-41344038Y48005904D02*
X-41534514Y48053523D01*
X-41534514Y48053523D02*
X-41867847Y48053523D01*
X-41867847Y48053523D02*
X-42058323Y48005904D01*
X-42058323Y48005904D02*
X-42153561Y47910666D01*
X-42153561Y47910666D02*
X-42201180Y47815428D01*
X-42201180Y47815428D02*
X-42201180Y47624952D01*
X-42201180Y47624952D02*
X-42153561Y47529714D01*
X-42153561Y47529714D02*
X-42058323Y47434476D01*
X-42058323Y47434476D02*
X-41867847Y47386857D01*
X-41867847Y47386857D02*
X-41534514Y47386857D01*
X-41534514Y47386857D02*
X-41344038Y47434476D01*
X-41344038Y47434476D02*
X-41248800Y47529714D01*
X-41248800Y47529714D02*
X-41201180Y47624952D01*
X-41201180Y47624952D02*
X-41201180Y47815428D01*
X-42201180Y47053523D02*
X-42201180Y46434476D01*
X-42201180Y46434476D02*
X-41820228Y46767809D01*
X-41820228Y46767809D02*
X-41820228Y46624952D01*
X-41820228Y46624952D02*
X-41772609Y46529714D01*
X-41772609Y46529714D02*
X-41724990Y46482095D01*
X-41724990Y46482095D02*
X-41629752Y46434476D01*
X-41629752Y46434476D02*
X-41391657Y46434476D01*
X-41391657Y46434476D02*
X-41296419Y46482095D01*
X-41296419Y46482095D02*
X-41248800Y46529714D01*
X-41248800Y46529714D02*
X-41201180Y46624952D01*
X-41201180Y46624952D02*
X-41201180Y46910666D01*
X-41201180Y46910666D02*
X-41248800Y47005904D01*
X-41248800Y47005904D02*
X-41296419Y47053523D01*
X-17991942Y47252238D02*
X-18039561Y47347476D01*
X-18039561Y47347476D02*
X-18134800Y47442714D01*
X-18134800Y47442714D02*
X-18277657Y47585571D01*
X-18277657Y47585571D02*
X-18325276Y47680809D01*
X-18325276Y47680809D02*
X-18325276Y47776047D01*
X-18087180Y47728428D02*
X-18134800Y47823666D01*
X-18134800Y47823666D02*
X-18230038Y47918904D01*
X-18230038Y47918904D02*
X-18420514Y47966523D01*
X-18420514Y47966523D02*
X-18753847Y47966523D01*
X-18753847Y47966523D02*
X-18944323Y47918904D01*
X-18944323Y47918904D02*
X-19039561Y47823666D01*
X-19039561Y47823666D02*
X-19087180Y47728428D01*
X-19087180Y47728428D02*
X-19087180Y47537952D01*
X-19087180Y47537952D02*
X-19039561Y47442714D01*
X-19039561Y47442714D02*
X-18944323Y47347476D01*
X-18944323Y47347476D02*
X-18753847Y47299857D01*
X-18753847Y47299857D02*
X-18420514Y47299857D01*
X-18420514Y47299857D02*
X-18230038Y47347476D01*
X-18230038Y47347476D02*
X-18134800Y47442714D01*
X-18134800Y47442714D02*
X-18087180Y47537952D01*
X-18087180Y47537952D02*
X-18087180Y47728428D01*
X-18087180Y46347476D02*
X-18087180Y46918904D01*
X-18087180Y46633190D02*
X-19087180Y46633190D01*
X-19087180Y46633190D02*
X-18944323Y46728428D01*
X-18944323Y46728428D02*
X-18849085Y46823666D01*
X-18849085Y46823666D02*
X-18801466Y46918904D01*
X-73951633Y13229419D02*
X-73904014Y13181800D01*
X-73904014Y13181800D02*
X-73761157Y13134180D01*
X-73761157Y13134180D02*
X-73665919Y13134180D01*
X-73665919Y13134180D02*
X-73523062Y13181800D01*
X-73523062Y13181800D02*
X-73427824Y13277038D01*
X-73427824Y13277038D02*
X-73380205Y13372276D01*
X-73380205Y13372276D02*
X-73332586Y13562752D01*
X-73332586Y13562752D02*
X-73332586Y13705609D01*
X-73332586Y13705609D02*
X-73380205Y13896085D01*
X-73380205Y13896085D02*
X-73427824Y13991323D01*
X-73427824Y13991323D02*
X-73523062Y14086561D01*
X-73523062Y14086561D02*
X-73665919Y14134180D01*
X-73665919Y14134180D02*
X-73761157Y14134180D01*
X-73761157Y14134180D02*
X-73904014Y14086561D01*
X-73904014Y14086561D02*
X-73951633Y14038942D01*
X-74904014Y13134180D02*
X-74332586Y13134180D01*
X-74618300Y13134180D02*
X-74618300Y14134180D01*
X-74618300Y14134180D02*
X-74523062Y13991323D01*
X-74523062Y13991323D02*
X-74427824Y13896085D01*
X-74427824Y13896085D02*
X-74332586Y13848466D01*
X-70633419Y39250857D02*
X-70585800Y39298476D01*
X-70585800Y39298476D02*
X-70538180Y39441333D01*
X-70538180Y39441333D02*
X-70538180Y39536571D01*
X-70538180Y39536571D02*
X-70585800Y39679428D01*
X-70585800Y39679428D02*
X-70681038Y39774666D01*
X-70681038Y39774666D02*
X-70776276Y39822285D01*
X-70776276Y39822285D02*
X-70966752Y39869904D01*
X-70966752Y39869904D02*
X-71109609Y39869904D01*
X-71109609Y39869904D02*
X-71300085Y39822285D01*
X-71300085Y39822285D02*
X-71395323Y39774666D01*
X-71395323Y39774666D02*
X-71490561Y39679428D01*
X-71490561Y39679428D02*
X-71538180Y39536571D01*
X-71538180Y39536571D02*
X-71538180Y39441333D01*
X-71538180Y39441333D02*
X-71490561Y39298476D01*
X-71490561Y39298476D02*
X-71442942Y39250857D01*
X-70538180Y38298476D02*
X-70538180Y38869904D01*
X-70538180Y38584190D02*
X-71538180Y38584190D01*
X-71538180Y38584190D02*
X-71395323Y38679428D01*
X-71395323Y38679428D02*
X-71300085Y38774666D01*
X-71300085Y38774666D02*
X-71252466Y38869904D01*
X-71442942Y37917523D02*
X-71490561Y37869904D01*
X-71490561Y37869904D02*
X-71538180Y37774666D01*
X-71538180Y37774666D02*
X-71538180Y37536571D01*
X-71538180Y37536571D02*
X-71490561Y37441333D01*
X-71490561Y37441333D02*
X-71442942Y37393714D01*
X-71442942Y37393714D02*
X-71347704Y37346095D01*
X-71347704Y37346095D02*
X-71252466Y37346095D01*
X-71252466Y37346095D02*
X-71109609Y37393714D01*
X-71109609Y37393714D02*
X-70538180Y37965142D01*
X-70538180Y37965142D02*
X-70538180Y37346095D01*
X-82694180Y4080166D02*
X-83170371Y4413499D01*
X-82694180Y4651594D02*
X-83694180Y4651594D01*
X-83694180Y4651594D02*
X-83694180Y4270642D01*
X-83694180Y4270642D02*
X-83646561Y4175404D01*
X-83646561Y4175404D02*
X-83598942Y4127785D01*
X-83598942Y4127785D02*
X-83503704Y4080166D01*
X-83503704Y4080166D02*
X-83360847Y4080166D01*
X-83360847Y4080166D02*
X-83265609Y4127785D01*
X-83265609Y4127785D02*
X-83217990Y4175404D01*
X-83217990Y4175404D02*
X-83170371Y4270642D01*
X-83170371Y4270642D02*
X-83170371Y4651594D01*
X-83598942Y3699213D02*
X-83646561Y3651594D01*
X-83646561Y3651594D02*
X-83694180Y3556356D01*
X-83694180Y3556356D02*
X-83694180Y3318261D01*
X-83694180Y3318261D02*
X-83646561Y3223023D01*
X-83646561Y3223023D02*
X-83598942Y3175404D01*
X-83598942Y3175404D02*
X-83503704Y3127785D01*
X-83503704Y3127785D02*
X-83408466Y3127785D01*
X-83408466Y3127785D02*
X-83265609Y3175404D01*
X-83265609Y3175404D02*
X-82694180Y3746832D01*
X-82694180Y3746832D02*
X-82694180Y3127785D01*
X-75966905Y7784180D02*
X-75966905Y8784180D01*
X-75966905Y8784180D02*
X-76205000Y8784180D01*
X-76205000Y8784180D02*
X-76347857Y8736561D01*
X-76347857Y8736561D02*
X-76443095Y8641323D01*
X-76443095Y8641323D02*
X-76490714Y8546085D01*
X-76490714Y8546085D02*
X-76538333Y8355609D01*
X-76538333Y8355609D02*
X-76538333Y8212752D01*
X-76538333Y8212752D02*
X-76490714Y8022276D01*
X-76490714Y8022276D02*
X-76443095Y7927038D01*
X-76443095Y7927038D02*
X-76347857Y7831800D01*
X-76347857Y7831800D02*
X-76205000Y7784180D01*
X-76205000Y7784180D02*
X-75966905Y7784180D01*
X-77490714Y7784180D02*
X-76919286Y7784180D01*
X-77205000Y7784180D02*
X-77205000Y8784180D01*
X-77205000Y8784180D02*
X-77109762Y8641323D01*
X-77109762Y8641323D02*
X-77014524Y8546085D01*
X-77014524Y8546085D02*
X-76919286Y8498466D01*
X-40534419Y32265857D02*
X-40486800Y32313476D01*
X-40486800Y32313476D02*
X-40439180Y32456333D01*
X-40439180Y32456333D02*
X-40439180Y32551571D01*
X-40439180Y32551571D02*
X-40486800Y32694428D01*
X-40486800Y32694428D02*
X-40582038Y32789666D01*
X-40582038Y32789666D02*
X-40677276Y32837285D01*
X-40677276Y32837285D02*
X-40867752Y32884904D01*
X-40867752Y32884904D02*
X-41010609Y32884904D01*
X-41010609Y32884904D02*
X-41201085Y32837285D01*
X-41201085Y32837285D02*
X-41296323Y32789666D01*
X-41296323Y32789666D02*
X-41391561Y32694428D01*
X-41391561Y32694428D02*
X-41439180Y32551571D01*
X-41439180Y32551571D02*
X-41439180Y32456333D01*
X-41439180Y32456333D02*
X-41391561Y32313476D01*
X-41391561Y32313476D02*
X-41343942Y32265857D01*
X-40439180Y31313476D02*
X-40439180Y31884904D01*
X-40439180Y31599190D02*
X-41439180Y31599190D01*
X-41439180Y31599190D02*
X-41296323Y31694428D01*
X-41296323Y31694428D02*
X-41201085Y31789666D01*
X-41201085Y31789666D02*
X-41153466Y31884904D01*
X-40439180Y30837285D02*
X-40439180Y30646809D01*
X-40439180Y30646809D02*
X-40486800Y30551571D01*
X-40486800Y30551571D02*
X-40534419Y30503952D01*
X-40534419Y30503952D02*
X-40677276Y30408714D01*
X-40677276Y30408714D02*
X-40867752Y30361095D01*
X-40867752Y30361095D02*
X-41248704Y30361095D01*
X-41248704Y30361095D02*
X-41343942Y30408714D01*
X-41343942Y30408714D02*
X-41391561Y30456333D01*
X-41391561Y30456333D02*
X-41439180Y30551571D01*
X-41439180Y30551571D02*
X-41439180Y30742047D01*
X-41439180Y30742047D02*
X-41391561Y30837285D01*
X-41391561Y30837285D02*
X-41343942Y30884904D01*
X-41343942Y30884904D02*
X-41248704Y30932523D01*
X-41248704Y30932523D02*
X-41010609Y30932523D01*
X-41010609Y30932523D02*
X-40915371Y30884904D01*
X-40915371Y30884904D02*
X-40867752Y30837285D01*
X-40867752Y30837285D02*
X-40820133Y30742047D01*
X-40820133Y30742047D02*
X-40820133Y30551571D01*
X-40820133Y30551571D02*
X-40867752Y30456333D01*
X-40867752Y30456333D02*
X-40915371Y30408714D01*
X-40915371Y30408714D02*
X-41010609Y30361095D01*
X-69014180Y2071666D02*
X-69490371Y2404999D01*
X-69014180Y2643094D02*
X-70014180Y2643094D01*
X-70014180Y2643094D02*
X-70014180Y2262142D01*
X-70014180Y2262142D02*
X-69966561Y2166904D01*
X-69966561Y2166904D02*
X-69918942Y2119285D01*
X-69918942Y2119285D02*
X-69823704Y2071666D01*
X-69823704Y2071666D02*
X-69680847Y2071666D01*
X-69680847Y2071666D02*
X-69585609Y2119285D01*
X-69585609Y2119285D02*
X-69537990Y2166904D01*
X-69537990Y2166904D02*
X-69490371Y2262142D01*
X-69490371Y2262142D02*
X-69490371Y2643094D01*
X-69680847Y1214523D02*
X-69014180Y1214523D01*
X-70061800Y1452618D02*
X-69347514Y1690713D01*
X-69347514Y1690713D02*
X-69347514Y1071666D01*
X-25210180Y37975857D02*
X-25686371Y38309190D01*
X-25210180Y38547285D02*
X-26210180Y38547285D01*
X-26210180Y38547285D02*
X-26210180Y38166333D01*
X-26210180Y38166333D02*
X-26162561Y38071095D01*
X-26162561Y38071095D02*
X-26114942Y38023476D01*
X-26114942Y38023476D02*
X-26019704Y37975857D01*
X-26019704Y37975857D02*
X-25876847Y37975857D01*
X-25876847Y37975857D02*
X-25781609Y38023476D01*
X-25781609Y38023476D02*
X-25733990Y38071095D01*
X-25733990Y38071095D02*
X-25686371Y38166333D01*
X-25686371Y38166333D02*
X-25686371Y38547285D01*
X-26114942Y37594904D02*
X-26162561Y37547285D01*
X-26162561Y37547285D02*
X-26210180Y37452047D01*
X-26210180Y37452047D02*
X-26210180Y37213952D01*
X-26210180Y37213952D02*
X-26162561Y37118714D01*
X-26162561Y37118714D02*
X-26114942Y37071095D01*
X-26114942Y37071095D02*
X-26019704Y37023476D01*
X-26019704Y37023476D02*
X-25924466Y37023476D01*
X-25924466Y37023476D02*
X-25781609Y37071095D01*
X-25781609Y37071095D02*
X-25210180Y37642523D01*
X-25210180Y37642523D02*
X-25210180Y37023476D01*
X-26210180Y36166333D02*
X-26210180Y36356809D01*
X-26210180Y36356809D02*
X-26162561Y36452047D01*
X-26162561Y36452047D02*
X-26114942Y36499666D01*
X-26114942Y36499666D02*
X-25972085Y36594904D01*
X-25972085Y36594904D02*
X-25781609Y36642523D01*
X-25781609Y36642523D02*
X-25400657Y36642523D01*
X-25400657Y36642523D02*
X-25305419Y36594904D01*
X-25305419Y36594904D02*
X-25257800Y36547285D01*
X-25257800Y36547285D02*
X-25210180Y36452047D01*
X-25210180Y36452047D02*
X-25210180Y36261571D01*
X-25210180Y36261571D02*
X-25257800Y36166333D01*
X-25257800Y36166333D02*
X-25305419Y36118714D01*
X-25305419Y36118714D02*
X-25400657Y36071095D01*
X-25400657Y36071095D02*
X-25638752Y36071095D01*
X-25638752Y36071095D02*
X-25733990Y36118714D01*
X-25733990Y36118714D02*
X-25781609Y36166333D01*
X-25781609Y36166333D02*
X-25829228Y36261571D01*
X-25829228Y36261571D02*
X-25829228Y36452047D01*
X-25829228Y36452047D02*
X-25781609Y36547285D01*
X-25781609Y36547285D02*
X-25733990Y36594904D01*
X-25733990Y36594904D02*
X-25638752Y36642523D01*
X-19745833Y13831419D02*
X-19698214Y13783800D01*
X-19698214Y13783800D02*
X-19555357Y13736180D01*
X-19555357Y13736180D02*
X-19460119Y13736180D01*
X-19460119Y13736180D02*
X-19317262Y13783800D01*
X-19317262Y13783800D02*
X-19222024Y13879038D01*
X-19222024Y13879038D02*
X-19174405Y13974276D01*
X-19174405Y13974276D02*
X-19126786Y14164752D01*
X-19126786Y14164752D02*
X-19126786Y14307609D01*
X-19126786Y14307609D02*
X-19174405Y14498085D01*
X-19174405Y14498085D02*
X-19222024Y14593323D01*
X-19222024Y14593323D02*
X-19317262Y14688561D01*
X-19317262Y14688561D02*
X-19460119Y14736180D01*
X-19460119Y14736180D02*
X-19555357Y14736180D01*
X-19555357Y14736180D02*
X-19698214Y14688561D01*
X-19698214Y14688561D02*
X-19745833Y14640942D01*
X-20126786Y14640942D02*
X-20174405Y14688561D01*
X-20174405Y14688561D02*
X-20269643Y14736180D01*
X-20269643Y14736180D02*
X-20507738Y14736180D01*
X-20507738Y14736180D02*
X-20602976Y14688561D01*
X-20602976Y14688561D02*
X-20650595Y14640942D01*
X-20650595Y14640942D02*
X-20698214Y14545704D01*
X-20698214Y14545704D02*
X-20698214Y14450466D01*
X-20698214Y14450466D02*
X-20650595Y14307609D01*
X-20650595Y14307609D02*
X-20079167Y13736180D01*
X-20079167Y13736180D02*
X-20698214Y13736180D01*
X-32533419Y38361857D02*
X-32485800Y38409476D01*
X-32485800Y38409476D02*
X-32438180Y38552333D01*
X-32438180Y38552333D02*
X-32438180Y38647571D01*
X-32438180Y38647571D02*
X-32485800Y38790428D01*
X-32485800Y38790428D02*
X-32581038Y38885666D01*
X-32581038Y38885666D02*
X-32676276Y38933285D01*
X-32676276Y38933285D02*
X-32866752Y38980904D01*
X-32866752Y38980904D02*
X-33009609Y38980904D01*
X-33009609Y38980904D02*
X-33200085Y38933285D01*
X-33200085Y38933285D02*
X-33295323Y38885666D01*
X-33295323Y38885666D02*
X-33390561Y38790428D01*
X-33390561Y38790428D02*
X-33438180Y38647571D01*
X-33438180Y38647571D02*
X-33438180Y38552333D01*
X-33438180Y38552333D02*
X-33390561Y38409476D01*
X-33390561Y38409476D02*
X-33342942Y38361857D01*
X-33342942Y37980904D02*
X-33390561Y37933285D01*
X-33390561Y37933285D02*
X-33438180Y37838047D01*
X-33438180Y37838047D02*
X-33438180Y37599952D01*
X-33438180Y37599952D02*
X-33390561Y37504714D01*
X-33390561Y37504714D02*
X-33342942Y37457095D01*
X-33342942Y37457095D02*
X-33247704Y37409476D01*
X-33247704Y37409476D02*
X-33152466Y37409476D01*
X-33152466Y37409476D02*
X-33009609Y37457095D01*
X-33009609Y37457095D02*
X-32438180Y38028523D01*
X-32438180Y38028523D02*
X-32438180Y37409476D01*
X-33342942Y37028523D02*
X-33390561Y36980904D01*
X-33390561Y36980904D02*
X-33438180Y36885666D01*
X-33438180Y36885666D02*
X-33438180Y36647571D01*
X-33438180Y36647571D02*
X-33390561Y36552333D01*
X-33390561Y36552333D02*
X-33342942Y36504714D01*
X-33342942Y36504714D02*
X-33247704Y36457095D01*
X-33247704Y36457095D02*
X-33152466Y36457095D01*
X-33152466Y36457095D02*
X-33009609Y36504714D01*
X-33009609Y36504714D02*
X-32438180Y37076142D01*
X-32438180Y37076142D02*
X-32438180Y36457095D01*
X-21635580Y23810357D02*
X-22111771Y24143690D01*
X-21635580Y24381785D02*
X-22635580Y24381785D01*
X-22635580Y24381785D02*
X-22635580Y24000833D01*
X-22635580Y24000833D02*
X-22587961Y23905595D01*
X-22587961Y23905595D02*
X-22540342Y23857976D01*
X-22540342Y23857976D02*
X-22445104Y23810357D01*
X-22445104Y23810357D02*
X-22302247Y23810357D01*
X-22302247Y23810357D02*
X-22207009Y23857976D01*
X-22207009Y23857976D02*
X-22159390Y23905595D01*
X-22159390Y23905595D02*
X-22111771Y24000833D01*
X-22111771Y24000833D02*
X-22111771Y24381785D01*
X-22635580Y23477023D02*
X-22635580Y22857976D01*
X-22635580Y22857976D02*
X-22254628Y23191309D01*
X-22254628Y23191309D02*
X-22254628Y23048452D01*
X-22254628Y23048452D02*
X-22207009Y22953214D01*
X-22207009Y22953214D02*
X-22159390Y22905595D01*
X-22159390Y22905595D02*
X-22064152Y22857976D01*
X-22064152Y22857976D02*
X-21826057Y22857976D01*
X-21826057Y22857976D02*
X-21730819Y22905595D01*
X-21730819Y22905595D02*
X-21683200Y22953214D01*
X-21683200Y22953214D02*
X-21635580Y23048452D01*
X-21635580Y23048452D02*
X-21635580Y23334166D01*
X-21635580Y23334166D02*
X-21683200Y23429404D01*
X-21683200Y23429404D02*
X-21730819Y23477023D01*
X-22635580Y22238928D02*
X-22635580Y22143690D01*
X-22635580Y22143690D02*
X-22587961Y22048452D01*
X-22587961Y22048452D02*
X-22540342Y22000833D01*
X-22540342Y22000833D02*
X-22445104Y21953214D01*
X-22445104Y21953214D02*
X-22254628Y21905595D01*
X-22254628Y21905595D02*
X-22016533Y21905595D01*
X-22016533Y21905595D02*
X-21826057Y21953214D01*
X-21826057Y21953214D02*
X-21730819Y22000833D01*
X-21730819Y22000833D02*
X-21683200Y22048452D01*
X-21683200Y22048452D02*
X-21635580Y22143690D01*
X-21635580Y22143690D02*
X-21635580Y22238928D01*
X-21635580Y22238928D02*
X-21683200Y22334166D01*
X-21683200Y22334166D02*
X-21730819Y22381785D01*
X-21730819Y22381785D02*
X-21826057Y22429404D01*
X-21826057Y22429404D02*
X-22016533Y22477023D01*
X-22016533Y22477023D02*
X-22254628Y22477023D01*
X-22254628Y22477023D02*
X-22445104Y22429404D01*
X-22445104Y22429404D02*
X-22540342Y22381785D01*
X-22540342Y22381785D02*
X-22587961Y22334166D01*
X-22587961Y22334166D02*
X-22635580Y22238928D01*
X-40298180Y37499666D02*
X-40774371Y37832999D01*
X-40298180Y38071094D02*
X-41298180Y38071094D01*
X-41298180Y38071094D02*
X-41298180Y37690142D01*
X-41298180Y37690142D02*
X-41250561Y37594904D01*
X-41250561Y37594904D02*
X-41202942Y37547285D01*
X-41202942Y37547285D02*
X-41107704Y37499666D01*
X-41107704Y37499666D02*
X-40964847Y37499666D01*
X-40964847Y37499666D02*
X-40869609Y37547285D01*
X-40869609Y37547285D02*
X-40821990Y37594904D01*
X-40821990Y37594904D02*
X-40774371Y37690142D01*
X-40774371Y37690142D02*
X-40774371Y38071094D01*
X-41298180Y37166332D02*
X-41298180Y36499666D01*
X-41298180Y36499666D02*
X-40298180Y36928237D01*
X-48680180Y37960357D02*
X-49156371Y38293690D01*
X-48680180Y38531785D02*
X-49680180Y38531785D01*
X-49680180Y38531785D02*
X-49680180Y38150833D01*
X-49680180Y38150833D02*
X-49632561Y38055595D01*
X-49632561Y38055595D02*
X-49584942Y38007976D01*
X-49584942Y38007976D02*
X-49489704Y37960357D01*
X-49489704Y37960357D02*
X-49346847Y37960357D01*
X-49346847Y37960357D02*
X-49251609Y38007976D01*
X-49251609Y38007976D02*
X-49203990Y38055595D01*
X-49203990Y38055595D02*
X-49156371Y38150833D01*
X-49156371Y38150833D02*
X-49156371Y38531785D01*
X-49584942Y37579404D02*
X-49632561Y37531785D01*
X-49632561Y37531785D02*
X-49680180Y37436547D01*
X-49680180Y37436547D02*
X-49680180Y37198452D01*
X-49680180Y37198452D02*
X-49632561Y37103214D01*
X-49632561Y37103214D02*
X-49584942Y37055595D01*
X-49584942Y37055595D02*
X-49489704Y37007976D01*
X-49489704Y37007976D02*
X-49394466Y37007976D01*
X-49394466Y37007976D02*
X-49251609Y37055595D01*
X-49251609Y37055595D02*
X-48680180Y37627023D01*
X-48680180Y37627023D02*
X-48680180Y37007976D01*
X-49680180Y36674642D02*
X-49680180Y36007976D01*
X-49680180Y36007976D02*
X-48680180Y36436547D01*
X-68728419Y39250857D02*
X-68680800Y39298476D01*
X-68680800Y39298476D02*
X-68633180Y39441333D01*
X-68633180Y39441333D02*
X-68633180Y39536571D01*
X-68633180Y39536571D02*
X-68680800Y39679428D01*
X-68680800Y39679428D02*
X-68776038Y39774666D01*
X-68776038Y39774666D02*
X-68871276Y39822285D01*
X-68871276Y39822285D02*
X-69061752Y39869904D01*
X-69061752Y39869904D02*
X-69204609Y39869904D01*
X-69204609Y39869904D02*
X-69395085Y39822285D01*
X-69395085Y39822285D02*
X-69490323Y39774666D01*
X-69490323Y39774666D02*
X-69585561Y39679428D01*
X-69585561Y39679428D02*
X-69633180Y39536571D01*
X-69633180Y39536571D02*
X-69633180Y39441333D01*
X-69633180Y39441333D02*
X-69585561Y39298476D01*
X-69585561Y39298476D02*
X-69537942Y39250857D01*
X-68633180Y38298476D02*
X-68633180Y38869904D01*
X-68633180Y38584190D02*
X-69633180Y38584190D01*
X-69633180Y38584190D02*
X-69490323Y38679428D01*
X-69490323Y38679428D02*
X-69395085Y38774666D01*
X-69395085Y38774666D02*
X-69347466Y38869904D01*
X-69633180Y37965142D02*
X-69633180Y37346095D01*
X-69633180Y37346095D02*
X-69252228Y37679428D01*
X-69252228Y37679428D02*
X-69252228Y37536571D01*
X-69252228Y37536571D02*
X-69204609Y37441333D01*
X-69204609Y37441333D02*
X-69156990Y37393714D01*
X-69156990Y37393714D02*
X-69061752Y37346095D01*
X-69061752Y37346095D02*
X-68823657Y37346095D01*
X-68823657Y37346095D02*
X-68728419Y37393714D01*
X-68728419Y37393714D02*
X-68680800Y37441333D01*
X-68680800Y37441333D02*
X-68633180Y37536571D01*
X-68633180Y37536571D02*
X-68633180Y37822285D01*
X-68633180Y37822285D02*
X-68680800Y37917523D01*
X-68680800Y37917523D02*
X-68728419Y37965142D01*
X-58330180Y33719904D02*
X-57520657Y33719904D01*
X-57520657Y33719904D02*
X-57425419Y33672285D01*
X-57425419Y33672285D02*
X-57377800Y33624666D01*
X-57377800Y33624666D02*
X-57330180Y33529428D01*
X-57330180Y33529428D02*
X-57330180Y33338952D01*
X-57330180Y33338952D02*
X-57377800Y33243714D01*
X-57377800Y33243714D02*
X-57425419Y33196095D01*
X-57425419Y33196095D02*
X-57520657Y33148476D01*
X-57520657Y33148476D02*
X-58330180Y33148476D01*
X-57330180Y32624666D02*
X-57330180Y32434190D01*
X-57330180Y32434190D02*
X-57377800Y32338952D01*
X-57377800Y32338952D02*
X-57425419Y32291333D01*
X-57425419Y32291333D02*
X-57568276Y32196095D01*
X-57568276Y32196095D02*
X-57758752Y32148476D01*
X-57758752Y32148476D02*
X-58139704Y32148476D01*
X-58139704Y32148476D02*
X-58234942Y32196095D01*
X-58234942Y32196095D02*
X-58282561Y32243714D01*
X-58282561Y32243714D02*
X-58330180Y32338952D01*
X-58330180Y32338952D02*
X-58330180Y32529428D01*
X-58330180Y32529428D02*
X-58282561Y32624666D01*
X-58282561Y32624666D02*
X-58234942Y32672285D01*
X-58234942Y32672285D02*
X-58139704Y32719904D01*
X-58139704Y32719904D02*
X-57901609Y32719904D01*
X-57901609Y32719904D02*
X-57806371Y32672285D01*
X-57806371Y32672285D02*
X-57758752Y32624666D01*
X-57758752Y32624666D02*
X-57711133Y32529428D01*
X-57711133Y32529428D02*
X-57711133Y32338952D01*
X-57711133Y32338952D02*
X-57758752Y32243714D01*
X-57758752Y32243714D02*
X-57806371Y32196095D01*
X-57806371Y32196095D02*
X-57901609Y32148476D01*
X-87241142Y18182419D02*
X-87193523Y18134800D01*
X-87193523Y18134800D02*
X-87050666Y18087180D01*
X-87050666Y18087180D02*
X-86955428Y18087180D01*
X-86955428Y18087180D02*
X-86812571Y18134800D01*
X-86812571Y18134800D02*
X-86717333Y18230038D01*
X-86717333Y18230038D02*
X-86669714Y18325276D01*
X-86669714Y18325276D02*
X-86622095Y18515752D01*
X-86622095Y18515752D02*
X-86622095Y18658609D01*
X-86622095Y18658609D02*
X-86669714Y18849085D01*
X-86669714Y18849085D02*
X-86717333Y18944323D01*
X-86717333Y18944323D02*
X-86812571Y19039561D01*
X-86812571Y19039561D02*
X-86955428Y19087180D01*
X-86955428Y19087180D02*
X-87050666Y19087180D01*
X-87050666Y19087180D02*
X-87193523Y19039561D01*
X-87193523Y19039561D02*
X-87241142Y18991942D01*
X-88193523Y18087180D02*
X-87622095Y18087180D01*
X-87907809Y18087180D02*
X-87907809Y19087180D01*
X-87907809Y19087180D02*
X-87812571Y18944323D01*
X-87812571Y18944323D02*
X-87717333Y18849085D01*
X-87717333Y18849085D02*
X-87622095Y18801466D01*
X-88812571Y19087180D02*
X-88907809Y19087180D01*
X-88907809Y19087180D02*
X-89003047Y19039561D01*
X-89003047Y19039561D02*
X-89050666Y18991942D01*
X-89050666Y18991942D02*
X-89098285Y18896704D01*
X-89098285Y18896704D02*
X-89145904Y18706228D01*
X-89145904Y18706228D02*
X-89145904Y18468133D01*
X-89145904Y18468133D02*
X-89098285Y18277657D01*
X-89098285Y18277657D02*
X-89050666Y18182419D01*
X-89050666Y18182419D02*
X-89003047Y18134800D01*
X-89003047Y18134800D02*
X-88907809Y18087180D01*
X-88907809Y18087180D02*
X-88812571Y18087180D01*
X-88812571Y18087180D02*
X-88717333Y18134800D01*
X-88717333Y18134800D02*
X-88669714Y18182419D01*
X-88669714Y18182419D02*
X-88622095Y18277657D01*
X-88622095Y18277657D02*
X-88574476Y18468133D01*
X-88574476Y18468133D02*
X-88574476Y18706228D01*
X-88574476Y18706228D02*
X-88622095Y18896704D01*
X-88622095Y18896704D02*
X-88669714Y18991942D01*
X-88669714Y18991942D02*
X-88717333Y19039561D01*
X-88717333Y19039561D02*
X-88812571Y19087180D01*
X-64741444Y38652281D02*
X-64741444Y37937996D01*
X-64741444Y37937996D02*
X-64693825Y37795139D01*
X-64693825Y37795139D02*
X-64598587Y37699901D01*
X-64598587Y37699901D02*
X-64455730Y37652281D01*
X-64455730Y37652281D02*
X-64360492Y37652281D01*
X-65217635Y37652281D02*
X-65217635Y38652281D01*
X-65217635Y38652281D02*
X-65598587Y38652281D01*
X-65598587Y38652281D02*
X-65693825Y38604662D01*
X-65693825Y38604662D02*
X-65741444Y38557043D01*
X-65741444Y38557043D02*
X-65789063Y38461805D01*
X-65789063Y38461805D02*
X-65789063Y38318948D01*
X-65789063Y38318948D02*
X-65741444Y38223710D01*
X-65741444Y38223710D02*
X-65693825Y38176091D01*
X-65693825Y38176091D02*
X-65598587Y38128472D01*
X-65598587Y38128472D02*
X-65217635Y38128472D01*
X-66170016Y38557043D02*
X-66217635Y38604662D01*
X-66217635Y38604662D02*
X-66312873Y38652281D01*
X-66312873Y38652281D02*
X-66550968Y38652281D01*
X-66550968Y38652281D02*
X-66646206Y38604662D01*
X-66646206Y38604662D02*
X-66693825Y38557043D01*
X-66693825Y38557043D02*
X-66741444Y38461805D01*
X-66741444Y38461805D02*
X-66741444Y38366567D01*
X-66741444Y38366567D02*
X-66693825Y38223710D01*
X-66693825Y38223710D02*
X-66122397Y37652281D01*
X-66122397Y37652281D02*
X-66741444Y37652281D01*
X-62628667Y36740180D02*
X-63247714Y36740180D01*
X-63247714Y36740180D02*
X-62914381Y36359228D01*
X-62914381Y36359228D02*
X-63057238Y36359228D01*
X-63057238Y36359228D02*
X-63152476Y36311609D01*
X-63152476Y36311609D02*
X-63200095Y36263990D01*
X-63200095Y36263990D02*
X-63247714Y36168752D01*
X-63247714Y36168752D02*
X-63247714Y35930657D01*
X-63247714Y35930657D02*
X-63200095Y35835419D01*
X-63200095Y35835419D02*
X-63152476Y35787800D01*
X-63152476Y35787800D02*
X-63057238Y35740180D01*
X-63057238Y35740180D02*
X-62771524Y35740180D01*
X-62771524Y35740180D02*
X-62676286Y35787800D01*
X-62676286Y35787800D02*
X-62628667Y35835419D01*
X-68357714Y35740180D02*
X-67786286Y35740180D01*
X-68072000Y35740180D02*
X-68072000Y36740180D01*
X-68072000Y36740180D02*
X-67976762Y36597323D01*
X-67976762Y36597323D02*
X-67881524Y36502085D01*
X-67881524Y36502085D02*
X-67786286Y36454466D01*
X-23074333Y17961419D02*
X-23026714Y17913800D01*
X-23026714Y17913800D02*
X-22883857Y17866180D01*
X-22883857Y17866180D02*
X-22788619Y17866180D01*
X-22788619Y17866180D02*
X-22645762Y17913800D01*
X-22645762Y17913800D02*
X-22550524Y18009038D01*
X-22550524Y18009038D02*
X-22502905Y18104276D01*
X-22502905Y18104276D02*
X-22455286Y18294752D01*
X-22455286Y18294752D02*
X-22455286Y18437609D01*
X-22455286Y18437609D02*
X-22502905Y18628085D01*
X-22502905Y18628085D02*
X-22550524Y18723323D01*
X-22550524Y18723323D02*
X-22645762Y18818561D01*
X-22645762Y18818561D02*
X-22788619Y18866180D01*
X-22788619Y18866180D02*
X-22883857Y18866180D01*
X-22883857Y18866180D02*
X-23026714Y18818561D01*
X-23026714Y18818561D02*
X-23074333Y18770942D01*
X-23979095Y18866180D02*
X-23502905Y18866180D01*
X-23502905Y18866180D02*
X-23455286Y18389990D01*
X-23455286Y18389990D02*
X-23502905Y18437609D01*
X-23502905Y18437609D02*
X-23598143Y18485228D01*
X-23598143Y18485228D02*
X-23836238Y18485228D01*
X-23836238Y18485228D02*
X-23931476Y18437609D01*
X-23931476Y18437609D02*
X-23979095Y18389990D01*
X-23979095Y18389990D02*
X-24026714Y18294752D01*
X-24026714Y18294752D02*
X-24026714Y18056657D01*
X-24026714Y18056657D02*
X-23979095Y17961419D01*
X-23979095Y17961419D02*
X-23931476Y17913800D01*
X-23931476Y17913800D02*
X-23836238Y17866180D01*
X-23836238Y17866180D02*
X-23598143Y17866180D01*
X-23598143Y17866180D02*
X-23502905Y17913800D01*
X-23502905Y17913800D02*
X-23455286Y17961419D01*
X-25545642Y3483419D02*
X-25498023Y3435800D01*
X-25498023Y3435800D02*
X-25355166Y3388180D01*
X-25355166Y3388180D02*
X-25259928Y3388180D01*
X-25259928Y3388180D02*
X-25117071Y3435800D01*
X-25117071Y3435800D02*
X-25021833Y3531038D01*
X-25021833Y3531038D02*
X-24974214Y3626276D01*
X-24974214Y3626276D02*
X-24926595Y3816752D01*
X-24926595Y3816752D02*
X-24926595Y3959609D01*
X-24926595Y3959609D02*
X-24974214Y4150085D01*
X-24974214Y4150085D02*
X-25021833Y4245323D01*
X-25021833Y4245323D02*
X-25117071Y4340561D01*
X-25117071Y4340561D02*
X-25259928Y4388180D01*
X-25259928Y4388180D02*
X-25355166Y4388180D01*
X-25355166Y4388180D02*
X-25498023Y4340561D01*
X-25498023Y4340561D02*
X-25545642Y4292942D01*
X-25878976Y4388180D02*
X-26498023Y4388180D01*
X-26498023Y4388180D02*
X-26164690Y4007228D01*
X-26164690Y4007228D02*
X-26307547Y4007228D01*
X-26307547Y4007228D02*
X-26402785Y3959609D01*
X-26402785Y3959609D02*
X-26450404Y3911990D01*
X-26450404Y3911990D02*
X-26498023Y3816752D01*
X-26498023Y3816752D02*
X-26498023Y3578657D01*
X-26498023Y3578657D02*
X-26450404Y3483419D01*
X-26450404Y3483419D02*
X-26402785Y3435800D01*
X-26402785Y3435800D02*
X-26307547Y3388180D01*
X-26307547Y3388180D02*
X-26021833Y3388180D01*
X-26021833Y3388180D02*
X-25926595Y3435800D01*
X-25926595Y3435800D02*
X-25878976Y3483419D01*
X-27450404Y3388180D02*
X-26878976Y3388180D01*
X-27164690Y3388180D02*
X-27164690Y4388180D01*
X-27164690Y4388180D02*
X-27069452Y4245323D01*
X-27069452Y4245323D02*
X-26974214Y4150085D01*
X-26974214Y4150085D02*
X-26878976Y4102466D01*
X-49156419Y32292357D02*
X-49108800Y32339976D01*
X-49108800Y32339976D02*
X-49061180Y32482833D01*
X-49061180Y32482833D02*
X-49061180Y32578071D01*
X-49061180Y32578071D02*
X-49108800Y32720928D01*
X-49108800Y32720928D02*
X-49204038Y32816166D01*
X-49204038Y32816166D02*
X-49299276Y32863785D01*
X-49299276Y32863785D02*
X-49489752Y32911404D01*
X-49489752Y32911404D02*
X-49632609Y32911404D01*
X-49632609Y32911404D02*
X-49823085Y32863785D01*
X-49823085Y32863785D02*
X-49918323Y32816166D01*
X-49918323Y32816166D02*
X-50013561Y32720928D01*
X-50013561Y32720928D02*
X-50061180Y32578071D01*
X-50061180Y32578071D02*
X-50061180Y32482833D01*
X-50061180Y32482833D02*
X-50013561Y32339976D01*
X-50013561Y32339976D02*
X-49965942Y32292357D01*
X-49965942Y31911404D02*
X-50013561Y31863785D01*
X-50013561Y31863785D02*
X-50061180Y31768547D01*
X-50061180Y31768547D02*
X-50061180Y31530452D01*
X-50061180Y31530452D02*
X-50013561Y31435214D01*
X-50013561Y31435214D02*
X-49965942Y31387595D01*
X-49965942Y31387595D02*
X-49870704Y31339976D01*
X-49870704Y31339976D02*
X-49775466Y31339976D01*
X-49775466Y31339976D02*
X-49632609Y31387595D01*
X-49632609Y31387595D02*
X-49061180Y31959023D01*
X-49061180Y31959023D02*
X-49061180Y31339976D01*
X-50061180Y30435214D02*
X-50061180Y30911404D01*
X-50061180Y30911404D02*
X-49584990Y30959023D01*
X-49584990Y30959023D02*
X-49632609Y30911404D01*
X-49632609Y30911404D02*
X-49680228Y30816166D01*
X-49680228Y30816166D02*
X-49680228Y30578071D01*
X-49680228Y30578071D02*
X-49632609Y30482833D01*
X-49632609Y30482833D02*
X-49584990Y30435214D01*
X-49584990Y30435214D02*
X-49489752Y30387595D01*
X-49489752Y30387595D02*
X-49251657Y30387595D01*
X-49251657Y30387595D02*
X-49156419Y30435214D01*
X-49156419Y30435214D02*
X-49108800Y30482833D01*
X-49108800Y30482833D02*
X-49061180Y30578071D01*
X-49061180Y30578071D02*
X-49061180Y30816166D01*
X-49061180Y30816166D02*
X-49108800Y30911404D01*
X-49108800Y30911404D02*
X-49156419Y30959023D01*
X-9797642Y3483419D02*
X-9750023Y3435800D01*
X-9750023Y3435800D02*
X-9607166Y3388180D01*
X-9607166Y3388180D02*
X-9511928Y3388180D01*
X-9511928Y3388180D02*
X-9369071Y3435800D01*
X-9369071Y3435800D02*
X-9273833Y3531038D01*
X-9273833Y3531038D02*
X-9226214Y3626276D01*
X-9226214Y3626276D02*
X-9178595Y3816752D01*
X-9178595Y3816752D02*
X-9178595Y3959609D01*
X-9178595Y3959609D02*
X-9226214Y4150085D01*
X-9226214Y4150085D02*
X-9273833Y4245323D01*
X-9273833Y4245323D02*
X-9369071Y4340561D01*
X-9369071Y4340561D02*
X-9511928Y4388180D01*
X-9511928Y4388180D02*
X-9607166Y4388180D01*
X-9607166Y4388180D02*
X-9750023Y4340561D01*
X-9750023Y4340561D02*
X-9797642Y4292942D01*
X-10130976Y4388180D02*
X-10750023Y4388180D01*
X-10750023Y4388180D02*
X-10416690Y4007228D01*
X-10416690Y4007228D02*
X-10559547Y4007228D01*
X-10559547Y4007228D02*
X-10654785Y3959609D01*
X-10654785Y3959609D02*
X-10702404Y3911990D01*
X-10702404Y3911990D02*
X-10750023Y3816752D01*
X-10750023Y3816752D02*
X-10750023Y3578657D01*
X-10750023Y3578657D02*
X-10702404Y3483419D01*
X-10702404Y3483419D02*
X-10654785Y3435800D01*
X-10654785Y3435800D02*
X-10559547Y3388180D01*
X-10559547Y3388180D02*
X-10273833Y3388180D01*
X-10273833Y3388180D02*
X-10178595Y3435800D01*
X-10178595Y3435800D02*
X-10130976Y3483419D01*
X-11130976Y4292942D02*
X-11178595Y4340561D01*
X-11178595Y4340561D02*
X-11273833Y4388180D01*
X-11273833Y4388180D02*
X-11511928Y4388180D01*
X-11511928Y4388180D02*
X-11607166Y4340561D01*
X-11607166Y4340561D02*
X-11654785Y4292942D01*
X-11654785Y4292942D02*
X-11702404Y4197704D01*
X-11702404Y4197704D02*
X-11702404Y4102466D01*
X-11702404Y4102466D02*
X-11654785Y3959609D01*
X-11654785Y3959609D02*
X-11083357Y3388180D01*
X-11083357Y3388180D02*
X-11702404Y3388180D01*
X-64315180Y20454857D02*
X-64791371Y20788190D01*
X-64315180Y21026285D02*
X-65315180Y21026285D01*
X-65315180Y21026285D02*
X-65315180Y20645333D01*
X-65315180Y20645333D02*
X-65267561Y20550095D01*
X-65267561Y20550095D02*
X-65219942Y20502476D01*
X-65219942Y20502476D02*
X-65124704Y20454857D01*
X-65124704Y20454857D02*
X-64981847Y20454857D01*
X-64981847Y20454857D02*
X-64886609Y20502476D01*
X-64886609Y20502476D02*
X-64838990Y20550095D01*
X-64838990Y20550095D02*
X-64791371Y20645333D01*
X-64791371Y20645333D02*
X-64791371Y21026285D01*
X-65315180Y20121523D02*
X-65315180Y19502476D01*
X-65315180Y19502476D02*
X-64934228Y19835809D01*
X-64934228Y19835809D02*
X-64934228Y19692952D01*
X-64934228Y19692952D02*
X-64886609Y19597714D01*
X-64886609Y19597714D02*
X-64838990Y19550095D01*
X-64838990Y19550095D02*
X-64743752Y19502476D01*
X-64743752Y19502476D02*
X-64505657Y19502476D01*
X-64505657Y19502476D02*
X-64410419Y19550095D01*
X-64410419Y19550095D02*
X-64362800Y19597714D01*
X-64362800Y19597714D02*
X-64315180Y19692952D01*
X-64315180Y19692952D02*
X-64315180Y19978666D01*
X-64315180Y19978666D02*
X-64362800Y20073904D01*
X-64362800Y20073904D02*
X-64410419Y20121523D01*
X-64981847Y18645333D02*
X-64315180Y18645333D01*
X-65362800Y18883428D02*
X-64648514Y19121523D01*
X-64648514Y19121523D02*
X-64648514Y18502476D01*
X-64539905Y31295180D02*
X-64539905Y32295180D01*
X-64539905Y32295180D02*
X-64778000Y32295180D01*
X-64778000Y32295180D02*
X-64920857Y32247561D01*
X-64920857Y32247561D02*
X-65016095Y32152323D01*
X-65016095Y32152323D02*
X-65063714Y32057085D01*
X-65063714Y32057085D02*
X-65111333Y31866609D01*
X-65111333Y31866609D02*
X-65111333Y31723752D01*
X-65111333Y31723752D02*
X-65063714Y31533276D01*
X-65063714Y31533276D02*
X-65016095Y31438038D01*
X-65016095Y31438038D02*
X-64920857Y31342800D01*
X-64920857Y31342800D02*
X-64778000Y31295180D01*
X-64778000Y31295180D02*
X-64539905Y31295180D01*
X-65444667Y32295180D02*
X-66063714Y32295180D01*
X-66063714Y32295180D02*
X-65730381Y31914228D01*
X-65730381Y31914228D02*
X-65873238Y31914228D01*
X-65873238Y31914228D02*
X-65968476Y31866609D01*
X-65968476Y31866609D02*
X-66016095Y31818990D01*
X-66016095Y31818990D02*
X-66063714Y31723752D01*
X-66063714Y31723752D02*
X-66063714Y31485657D01*
X-66063714Y31485657D02*
X-66016095Y31390419D01*
X-66016095Y31390419D02*
X-65968476Y31342800D01*
X-65968476Y31342800D02*
X-65873238Y31295180D01*
X-65873238Y31295180D02*
X-65587524Y31295180D01*
X-65587524Y31295180D02*
X-65492286Y31342800D01*
X-65492286Y31342800D02*
X-65444667Y31390419D01*
X-79142419Y40171666D02*
X-79094800Y40219285D01*
X-79094800Y40219285D02*
X-79047180Y40362142D01*
X-79047180Y40362142D02*
X-79047180Y40457380D01*
X-79047180Y40457380D02*
X-79094800Y40600237D01*
X-79094800Y40600237D02*
X-79190038Y40695475D01*
X-79190038Y40695475D02*
X-79285276Y40743094D01*
X-79285276Y40743094D02*
X-79475752Y40790713D01*
X-79475752Y40790713D02*
X-79618609Y40790713D01*
X-79618609Y40790713D02*
X-79809085Y40743094D01*
X-79809085Y40743094D02*
X-79904323Y40695475D01*
X-79904323Y40695475D02*
X-79999561Y40600237D01*
X-79999561Y40600237D02*
X-80047180Y40457380D01*
X-80047180Y40457380D02*
X-80047180Y40362142D01*
X-80047180Y40362142D02*
X-79999561Y40219285D01*
X-79999561Y40219285D02*
X-79951942Y40171666D01*
X-79047180Y39695475D02*
X-79047180Y39504999D01*
X-79047180Y39504999D02*
X-79094800Y39409761D01*
X-79094800Y39409761D02*
X-79142419Y39362142D01*
X-79142419Y39362142D02*
X-79285276Y39266904D01*
X-79285276Y39266904D02*
X-79475752Y39219285D01*
X-79475752Y39219285D02*
X-79856704Y39219285D01*
X-79856704Y39219285D02*
X-79951942Y39266904D01*
X-79951942Y39266904D02*
X-79999561Y39314523D01*
X-79999561Y39314523D02*
X-80047180Y39409761D01*
X-80047180Y39409761D02*
X-80047180Y39600237D01*
X-80047180Y39600237D02*
X-79999561Y39695475D01*
X-79999561Y39695475D02*
X-79951942Y39743094D01*
X-79951942Y39743094D02*
X-79856704Y39790713D01*
X-79856704Y39790713D02*
X-79618609Y39790713D01*
X-79618609Y39790713D02*
X-79523371Y39743094D01*
X-79523371Y39743094D02*
X-79475752Y39695475D01*
X-79475752Y39695475D02*
X-79428133Y39600237D01*
X-79428133Y39600237D02*
X-79428133Y39409761D01*
X-79428133Y39409761D02*
X-79475752Y39314523D01*
X-79475752Y39314523D02*
X-79523371Y39266904D01*
X-79523371Y39266904D02*
X-79618609Y39219285D01*
X-59589942Y47252238D02*
X-59637561Y47347476D01*
X-59637561Y47347476D02*
X-59732800Y47442714D01*
X-59732800Y47442714D02*
X-59875657Y47585571D01*
X-59875657Y47585571D02*
X-59923276Y47680809D01*
X-59923276Y47680809D02*
X-59923276Y47776047D01*
X-59685180Y47728428D02*
X-59732800Y47823666D01*
X-59732800Y47823666D02*
X-59828038Y47918904D01*
X-59828038Y47918904D02*
X-60018514Y47966523D01*
X-60018514Y47966523D02*
X-60351847Y47966523D01*
X-60351847Y47966523D02*
X-60542323Y47918904D01*
X-60542323Y47918904D02*
X-60637561Y47823666D01*
X-60637561Y47823666D02*
X-60685180Y47728428D01*
X-60685180Y47728428D02*
X-60685180Y47537952D01*
X-60685180Y47537952D02*
X-60637561Y47442714D01*
X-60637561Y47442714D02*
X-60542323Y47347476D01*
X-60542323Y47347476D02*
X-60351847Y47299857D01*
X-60351847Y47299857D02*
X-60018514Y47299857D01*
X-60018514Y47299857D02*
X-59828038Y47347476D01*
X-59828038Y47347476D02*
X-59732800Y47442714D01*
X-59732800Y47442714D02*
X-59685180Y47537952D01*
X-59685180Y47537952D02*
X-59685180Y47728428D01*
X-60685180Y46966523D02*
X-60685180Y46299857D01*
X-60685180Y46299857D02*
X-59685180Y46728428D01*
X-31533180Y5045094D02*
X-30723657Y5045094D01*
X-30723657Y5045094D02*
X-30628419Y4997475D01*
X-30628419Y4997475D02*
X-30580800Y4949856D01*
X-30580800Y4949856D02*
X-30533180Y4854618D01*
X-30533180Y4854618D02*
X-30533180Y4664142D01*
X-30533180Y4664142D02*
X-30580800Y4568904D01*
X-30580800Y4568904D02*
X-30628419Y4521285D01*
X-30628419Y4521285D02*
X-30723657Y4473666D01*
X-30723657Y4473666D02*
X-31533180Y4473666D01*
X-30533180Y3473666D02*
X-30533180Y4045094D01*
X-30533180Y3759380D02*
X-31533180Y3759380D01*
X-31533180Y3759380D02*
X-31390323Y3854618D01*
X-31390323Y3854618D02*
X-31295085Y3949856D01*
X-31295085Y3949856D02*
X-31247466Y4045094D01*
X-31104609Y2902237D02*
X-31152228Y2997475D01*
X-31152228Y2997475D02*
X-31199847Y3045094D01*
X-31199847Y3045094D02*
X-31295085Y3092713D01*
X-31295085Y3092713D02*
X-31342704Y3092713D01*
X-31342704Y3092713D02*
X-31437942Y3045094D01*
X-31437942Y3045094D02*
X-31485561Y2997475D01*
X-31485561Y2997475D02*
X-31533180Y2902237D01*
X-31533180Y2902237D02*
X-31533180Y2711761D01*
X-31533180Y2711761D02*
X-31485561Y2616523D01*
X-31485561Y2616523D02*
X-31437942Y2568904D01*
X-31437942Y2568904D02*
X-31342704Y2521285D01*
X-31342704Y2521285D02*
X-31295085Y2521285D01*
X-31295085Y2521285D02*
X-31199847Y2568904D01*
X-31199847Y2568904D02*
X-31152228Y2616523D01*
X-31152228Y2616523D02*
X-31104609Y2711761D01*
X-31104609Y2711761D02*
X-31104609Y2902237D01*
X-31104609Y2902237D02*
X-31056990Y2997475D01*
X-31056990Y2997475D02*
X-31009371Y3045094D01*
X-31009371Y3045094D02*
X-30914133Y3092713D01*
X-30914133Y3092713D02*
X-30723657Y3092713D01*
X-30723657Y3092713D02*
X-30628419Y3045094D01*
X-30628419Y3045094D02*
X-30580800Y2997475D01*
X-30580800Y2997475D02*
X-30533180Y2902237D01*
X-30533180Y2902237D02*
X-30533180Y2711761D01*
X-30533180Y2711761D02*
X-30580800Y2616523D01*
X-30580800Y2616523D02*
X-30628419Y2568904D01*
X-30628419Y2568904D02*
X-30723657Y2521285D01*
X-30723657Y2521285D02*
X-30914133Y2521285D01*
X-30914133Y2521285D02*
X-31009371Y2568904D01*
X-31009371Y2568904D02*
X-31056990Y2616523D01*
X-31056990Y2616523D02*
X-31104609Y2711761D01*
X-74550295Y39280180D02*
X-74550295Y38470657D01*
X-74550295Y38470657D02*
X-74597914Y38375419D01*
X-74597914Y38375419D02*
X-74645533Y38327800D01*
X-74645533Y38327800D02*
X-74740771Y38280180D01*
X-74740771Y38280180D02*
X-74931247Y38280180D01*
X-74931247Y38280180D02*
X-75026485Y38327800D01*
X-75026485Y38327800D02*
X-75074104Y38375419D01*
X-75074104Y38375419D02*
X-75121723Y38470657D01*
X-75121723Y38470657D02*
X-75121723Y39280180D01*
X-76026485Y38946847D02*
X-76026485Y38280180D01*
X-75788390Y39327800D02*
X-75550295Y38613514D01*
X-75550295Y38613514D02*
X-76169342Y38613514D01*
X-77355233Y13229419D02*
X-77307614Y13181800D01*
X-77307614Y13181800D02*
X-77164757Y13134180D01*
X-77164757Y13134180D02*
X-77069519Y13134180D01*
X-77069519Y13134180D02*
X-76926662Y13181800D01*
X-76926662Y13181800D02*
X-76831424Y13277038D01*
X-76831424Y13277038D02*
X-76783805Y13372276D01*
X-76783805Y13372276D02*
X-76736186Y13562752D01*
X-76736186Y13562752D02*
X-76736186Y13705609D01*
X-76736186Y13705609D02*
X-76783805Y13896085D01*
X-76783805Y13896085D02*
X-76831424Y13991323D01*
X-76831424Y13991323D02*
X-76926662Y14086561D01*
X-76926662Y14086561D02*
X-77069519Y14134180D01*
X-77069519Y14134180D02*
X-77164757Y14134180D01*
X-77164757Y14134180D02*
X-77307614Y14086561D01*
X-77307614Y14086561D02*
X-77355233Y14038942D01*
X-78212376Y13800847D02*
X-78212376Y13134180D01*
X-77974281Y14181800D02*
X-77736186Y13467514D01*
X-77736186Y13467514D02*
X-78355233Y13467514D01*
X-63426180Y2071666D02*
X-63902371Y2404999D01*
X-63426180Y2643094D02*
X-64426180Y2643094D01*
X-64426180Y2643094D02*
X-64426180Y2262142D01*
X-64426180Y2262142D02*
X-64378561Y2166904D01*
X-64378561Y2166904D02*
X-64330942Y2119285D01*
X-64330942Y2119285D02*
X-64235704Y2071666D01*
X-64235704Y2071666D02*
X-64092847Y2071666D01*
X-64092847Y2071666D02*
X-63997609Y2119285D01*
X-63997609Y2119285D02*
X-63949990Y2166904D01*
X-63949990Y2166904D02*
X-63902371Y2262142D01*
X-63902371Y2262142D02*
X-63902371Y2643094D01*
X-64426180Y1166904D02*
X-64426180Y1643094D01*
X-64426180Y1643094D02*
X-63949990Y1690713D01*
X-63949990Y1690713D02*
X-63997609Y1643094D01*
X-63997609Y1643094D02*
X-64045228Y1547856D01*
X-64045228Y1547856D02*
X-64045228Y1309761D01*
X-64045228Y1309761D02*
X-63997609Y1214523D01*
X-63997609Y1214523D02*
X-63949990Y1166904D01*
X-63949990Y1166904D02*
X-63854752Y1119285D01*
X-63854752Y1119285D02*
X-63616657Y1119285D01*
X-63616657Y1119285D02*
X-63521419Y1166904D01*
X-63521419Y1166904D02*
X-63473800Y1214523D01*
X-63473800Y1214523D02*
X-63426180Y1309761D01*
X-63426180Y1309761D02*
X-63426180Y1547856D01*
X-63426180Y1547856D02*
X-63473800Y1643094D01*
X-63473800Y1643094D02*
X-63521419Y1690713D01*
X-14707333Y19136180D02*
X-14374000Y19612371D01*
X-14135905Y19136180D02*
X-14135905Y20136180D01*
X-14135905Y20136180D02*
X-14516857Y20136180D01*
X-14516857Y20136180D02*
X-14612095Y20088561D01*
X-14612095Y20088561D02*
X-14659714Y20040942D01*
X-14659714Y20040942D02*
X-14707333Y19945704D01*
X-14707333Y19945704D02*
X-14707333Y19802847D01*
X-14707333Y19802847D02*
X-14659714Y19707609D01*
X-14659714Y19707609D02*
X-14612095Y19659990D01*
X-14612095Y19659990D02*
X-14516857Y19612371D01*
X-14516857Y19612371D02*
X-14135905Y19612371D01*
X-15040667Y20136180D02*
X-15659714Y20136180D01*
X-15659714Y20136180D02*
X-15326381Y19755228D01*
X-15326381Y19755228D02*
X-15469238Y19755228D01*
X-15469238Y19755228D02*
X-15564476Y19707609D01*
X-15564476Y19707609D02*
X-15612095Y19659990D01*
X-15612095Y19659990D02*
X-15659714Y19564752D01*
X-15659714Y19564752D02*
X-15659714Y19326657D01*
X-15659714Y19326657D02*
X-15612095Y19231419D01*
X-15612095Y19231419D02*
X-15564476Y19183800D01*
X-15564476Y19183800D02*
X-15469238Y19136180D01*
X-15469238Y19136180D02*
X-15183524Y19136180D01*
X-15183524Y19136180D02*
X-15088286Y19183800D01*
X-15088286Y19183800D02*
X-15040667Y19231419D01*
X-88602180Y4080166D02*
X-89078371Y4413499D01*
X-88602180Y4651594D02*
X-89602180Y4651594D01*
X-89602180Y4651594D02*
X-89602180Y4270642D01*
X-89602180Y4270642D02*
X-89554561Y4175404D01*
X-89554561Y4175404D02*
X-89506942Y4127785D01*
X-89506942Y4127785D02*
X-89411704Y4080166D01*
X-89411704Y4080166D02*
X-89268847Y4080166D01*
X-89268847Y4080166D02*
X-89173609Y4127785D01*
X-89173609Y4127785D02*
X-89125990Y4175404D01*
X-89125990Y4175404D02*
X-89078371Y4270642D01*
X-89078371Y4270642D02*
X-89078371Y4651594D01*
X-88602180Y3127785D02*
X-88602180Y3699213D01*
X-88602180Y3413499D02*
X-89602180Y3413499D01*
X-89602180Y3413499D02*
X-89459323Y3508737D01*
X-89459323Y3508737D02*
X-89364085Y3603975D01*
X-89364085Y3603975D02*
X-89316466Y3699213D01*
X-9623419Y6712357D02*
X-9575800Y6759976D01*
X-9575800Y6759976D02*
X-9528180Y6902833D01*
X-9528180Y6902833D02*
X-9528180Y6998071D01*
X-9528180Y6998071D02*
X-9575800Y7140928D01*
X-9575800Y7140928D02*
X-9671038Y7236166D01*
X-9671038Y7236166D02*
X-9766276Y7283785D01*
X-9766276Y7283785D02*
X-9956752Y7331404D01*
X-9956752Y7331404D02*
X-10099609Y7331404D01*
X-10099609Y7331404D02*
X-10290085Y7283785D01*
X-10290085Y7283785D02*
X-10385323Y7236166D01*
X-10385323Y7236166D02*
X-10480561Y7140928D01*
X-10480561Y7140928D02*
X-10528180Y6998071D01*
X-10528180Y6998071D02*
X-10528180Y6902833D01*
X-10528180Y6902833D02*
X-10480561Y6759976D01*
X-10480561Y6759976D02*
X-10432942Y6712357D01*
X-10528180Y6379023D02*
X-10528180Y5759976D01*
X-10528180Y5759976D02*
X-10147228Y6093309D01*
X-10147228Y6093309D02*
X-10147228Y5950452D01*
X-10147228Y5950452D02*
X-10099609Y5855214D01*
X-10099609Y5855214D02*
X-10051990Y5807595D01*
X-10051990Y5807595D02*
X-9956752Y5759976D01*
X-9956752Y5759976D02*
X-9718657Y5759976D01*
X-9718657Y5759976D02*
X-9623419Y5807595D01*
X-9623419Y5807595D02*
X-9575800Y5855214D01*
X-9575800Y5855214D02*
X-9528180Y5950452D01*
X-9528180Y5950452D02*
X-9528180Y6236166D01*
X-9528180Y6236166D02*
X-9575800Y6331404D01*
X-9575800Y6331404D02*
X-9623419Y6379023D01*
X-10194847Y4902833D02*
X-9528180Y4902833D01*
X-10575800Y5140928D02*
X-9861514Y5379023D01*
X-9861514Y5379023D02*
X-9861514Y4759976D01*
X-63290842Y26690180D02*
X-62957509Y27166371D01*
X-62719414Y26690180D02*
X-62719414Y27690180D01*
X-62719414Y27690180D02*
X-63100366Y27690180D01*
X-63100366Y27690180D02*
X-63195604Y27642561D01*
X-63195604Y27642561D02*
X-63243223Y27594942D01*
X-63243223Y27594942D02*
X-63290842Y27499704D01*
X-63290842Y27499704D02*
X-63290842Y27356847D01*
X-63290842Y27356847D02*
X-63243223Y27261609D01*
X-63243223Y27261609D02*
X-63195604Y27213990D01*
X-63195604Y27213990D02*
X-63100366Y27166371D01*
X-63100366Y27166371D02*
X-62719414Y27166371D01*
X-63624176Y27690180D02*
X-64243223Y27690180D01*
X-64243223Y27690180D02*
X-63909890Y27309228D01*
X-63909890Y27309228D02*
X-64052747Y27309228D01*
X-64052747Y27309228D02*
X-64147985Y27261609D01*
X-64147985Y27261609D02*
X-64195604Y27213990D01*
X-64195604Y27213990D02*
X-64243223Y27118752D01*
X-64243223Y27118752D02*
X-64243223Y26880657D01*
X-64243223Y26880657D02*
X-64195604Y26785419D01*
X-64195604Y26785419D02*
X-64147985Y26737800D01*
X-64147985Y26737800D02*
X-64052747Y26690180D01*
X-64052747Y26690180D02*
X-63767033Y26690180D01*
X-63767033Y26690180D02*
X-63671795Y26737800D01*
X-63671795Y26737800D02*
X-63624176Y26785419D01*
X-65147985Y27690180D02*
X-64671795Y27690180D01*
X-64671795Y27690180D02*
X-64624176Y27213990D01*
X-64624176Y27213990D02*
X-64671795Y27261609D01*
X-64671795Y27261609D02*
X-64767033Y27309228D01*
X-64767033Y27309228D02*
X-65005128Y27309228D01*
X-65005128Y27309228D02*
X-65100366Y27261609D01*
X-65100366Y27261609D02*
X-65147985Y27213990D01*
X-65147985Y27213990D02*
X-65195604Y27118752D01*
X-65195604Y27118752D02*
X-65195604Y26880657D01*
X-65195604Y26880657D02*
X-65147985Y26785419D01*
X-65147985Y26785419D02*
X-65100366Y26737800D01*
X-65100366Y26737800D02*
X-65005128Y26690180D01*
X-65005128Y26690180D02*
X-64767033Y26690180D01*
X-64767033Y26690180D02*
X-64671795Y26737800D01*
X-64671795Y26737800D02*
X-64624176Y26785419D01*
X-35980942Y47252238D02*
X-36028561Y47347476D01*
X-36028561Y47347476D02*
X-36123800Y47442714D01*
X-36123800Y47442714D02*
X-36266657Y47585571D01*
X-36266657Y47585571D02*
X-36314276Y47680809D01*
X-36314276Y47680809D02*
X-36314276Y47776047D01*
X-36076180Y47728428D02*
X-36123800Y47823666D01*
X-36123800Y47823666D02*
X-36219038Y47918904D01*
X-36219038Y47918904D02*
X-36409514Y47966523D01*
X-36409514Y47966523D02*
X-36742847Y47966523D01*
X-36742847Y47966523D02*
X-36933323Y47918904D01*
X-36933323Y47918904D02*
X-37028561Y47823666D01*
X-37028561Y47823666D02*
X-37076180Y47728428D01*
X-37076180Y47728428D02*
X-37076180Y47537952D01*
X-37076180Y47537952D02*
X-37028561Y47442714D01*
X-37028561Y47442714D02*
X-36933323Y47347476D01*
X-36933323Y47347476D02*
X-36742847Y47299857D01*
X-36742847Y47299857D02*
X-36409514Y47299857D01*
X-36409514Y47299857D02*
X-36219038Y47347476D01*
X-36219038Y47347476D02*
X-36123800Y47442714D01*
X-36123800Y47442714D02*
X-36076180Y47537952D01*
X-36076180Y47537952D02*
X-36076180Y47728428D01*
X-37076180Y46395095D02*
X-37076180Y46871285D01*
X-37076180Y46871285D02*
X-36599990Y46918904D01*
X-36599990Y46918904D02*
X-36647609Y46871285D01*
X-36647609Y46871285D02*
X-36695228Y46776047D01*
X-36695228Y46776047D02*
X-36695228Y46537952D01*
X-36695228Y46537952D02*
X-36647609Y46442714D01*
X-36647609Y46442714D02*
X-36599990Y46395095D01*
X-36599990Y46395095D02*
X-36504752Y46347476D01*
X-36504752Y46347476D02*
X-36266657Y46347476D01*
X-36266657Y46347476D02*
X-36171419Y46395095D01*
X-36171419Y46395095D02*
X-36123800Y46442714D01*
X-36123800Y46442714D02*
X-36076180Y46537952D01*
X-36076180Y46537952D02*
X-36076180Y46776047D01*
X-36076180Y46776047D02*
X-36123800Y46871285D01*
X-36123800Y46871285D02*
X-36171419Y46918904D01*
X-77429180Y57429666D02*
X-77905371Y57762999D01*
X-77429180Y58001094D02*
X-78429180Y58001094D01*
X-78429180Y58001094D02*
X-78429180Y57620142D01*
X-78429180Y57620142D02*
X-78381561Y57524904D01*
X-78381561Y57524904D02*
X-78333942Y57477285D01*
X-78333942Y57477285D02*
X-78238704Y57429666D01*
X-78238704Y57429666D02*
X-78095847Y57429666D01*
X-78095847Y57429666D02*
X-78000609Y57477285D01*
X-78000609Y57477285D02*
X-77952990Y57524904D01*
X-77952990Y57524904D02*
X-77905371Y57620142D01*
X-77905371Y57620142D02*
X-77905371Y58001094D01*
X-78000609Y56858237D02*
X-78048228Y56953475D01*
X-78048228Y56953475D02*
X-78095847Y57001094D01*
X-78095847Y57001094D02*
X-78191085Y57048713D01*
X-78191085Y57048713D02*
X-78238704Y57048713D01*
X-78238704Y57048713D02*
X-78333942Y57001094D01*
X-78333942Y57001094D02*
X-78381561Y56953475D01*
X-78381561Y56953475D02*
X-78429180Y56858237D01*
X-78429180Y56858237D02*
X-78429180Y56667761D01*
X-78429180Y56667761D02*
X-78381561Y56572523D01*
X-78381561Y56572523D02*
X-78333942Y56524904D01*
X-78333942Y56524904D02*
X-78238704Y56477285D01*
X-78238704Y56477285D02*
X-78191085Y56477285D01*
X-78191085Y56477285D02*
X-78095847Y56524904D01*
X-78095847Y56524904D02*
X-78048228Y56572523D01*
X-78048228Y56572523D02*
X-78000609Y56667761D01*
X-78000609Y56667761D02*
X-78000609Y56858237D01*
X-78000609Y56858237D02*
X-77952990Y56953475D01*
X-77952990Y56953475D02*
X-77905371Y57001094D01*
X-77905371Y57001094D02*
X-77810133Y57048713D01*
X-77810133Y57048713D02*
X-77619657Y57048713D01*
X-77619657Y57048713D02*
X-77524419Y57001094D01*
X-77524419Y57001094D02*
X-77476800Y56953475D01*
X-77476800Y56953475D02*
X-77429180Y56858237D01*
X-77429180Y56858237D02*
X-77429180Y56667761D01*
X-77429180Y56667761D02*
X-77476800Y56572523D01*
X-77476800Y56572523D02*
X-77524419Y56524904D01*
X-77524419Y56524904D02*
X-77619657Y56477285D01*
X-77619657Y56477285D02*
X-77810133Y56477285D01*
X-77810133Y56477285D02*
X-77905371Y56524904D01*
X-77905371Y56524904D02*
X-77952990Y56572523D01*
X-77952990Y56572523D02*
X-78000609Y56667761D01*
X-78428442Y14658180D02*
X-78095109Y15134371D01*
X-77857014Y14658180D02*
X-77857014Y15658180D01*
X-77857014Y15658180D02*
X-78237966Y15658180D01*
X-78237966Y15658180D02*
X-78333204Y15610561D01*
X-78333204Y15610561D02*
X-78380823Y15562942D01*
X-78380823Y15562942D02*
X-78428442Y15467704D01*
X-78428442Y15467704D02*
X-78428442Y15324847D01*
X-78428442Y15324847D02*
X-78380823Y15229609D01*
X-78380823Y15229609D02*
X-78333204Y15181990D01*
X-78333204Y15181990D02*
X-78237966Y15134371D01*
X-78237966Y15134371D02*
X-77857014Y15134371D01*
X-78809395Y15562942D02*
X-78857014Y15610561D01*
X-78857014Y15610561D02*
X-78952252Y15658180D01*
X-78952252Y15658180D02*
X-79190347Y15658180D01*
X-79190347Y15658180D02*
X-79285585Y15610561D01*
X-79285585Y15610561D02*
X-79333204Y15562942D01*
X-79333204Y15562942D02*
X-79380823Y15467704D01*
X-79380823Y15467704D02*
X-79380823Y15372466D01*
X-79380823Y15372466D02*
X-79333204Y15229609D01*
X-79333204Y15229609D02*
X-78761776Y14658180D01*
X-78761776Y14658180D02*
X-79380823Y14658180D01*
X-79952252Y15229609D02*
X-79857014Y15277228D01*
X-79857014Y15277228D02*
X-79809395Y15324847D01*
X-79809395Y15324847D02*
X-79761776Y15420085D01*
X-79761776Y15420085D02*
X-79761776Y15467704D01*
X-79761776Y15467704D02*
X-79809395Y15562942D01*
X-79809395Y15562942D02*
X-79857014Y15610561D01*
X-79857014Y15610561D02*
X-79952252Y15658180D01*
X-79952252Y15658180D02*
X-80142728Y15658180D01*
X-80142728Y15658180D02*
X-80237966Y15610561D01*
X-80237966Y15610561D02*
X-80285585Y15562942D01*
X-80285585Y15562942D02*
X-80333204Y15467704D01*
X-80333204Y15467704D02*
X-80333204Y15420085D01*
X-80333204Y15420085D02*
X-80285585Y15324847D01*
X-80285585Y15324847D02*
X-80237966Y15277228D01*
X-80237966Y15277228D02*
X-80142728Y15229609D01*
X-80142728Y15229609D02*
X-79952252Y15229609D01*
X-79952252Y15229609D02*
X-79857014Y15181990D01*
X-79857014Y15181990D02*
X-79809395Y15134371D01*
X-79809395Y15134371D02*
X-79761776Y15039133D01*
X-79761776Y15039133D02*
X-79761776Y14848657D01*
X-79761776Y14848657D02*
X-79809395Y14753419D01*
X-79809395Y14753419D02*
X-79857014Y14705800D01*
X-79857014Y14705800D02*
X-79952252Y14658180D01*
X-79952252Y14658180D02*
X-80142728Y14658180D01*
X-80142728Y14658180D02*
X-80237966Y14705800D01*
X-80237966Y14705800D02*
X-80285585Y14753419D01*
X-80285585Y14753419D02*
X-80333204Y14848657D01*
X-80333204Y14848657D02*
X-80333204Y15039133D01*
X-80333204Y15039133D02*
X-80285585Y15134371D01*
X-80285585Y15134371D02*
X-80237966Y15181990D01*
X-80237966Y15181990D02*
X-80142728Y15229609D01*
X-84582180Y13969904D02*
X-83772657Y13969904D01*
X-83772657Y13969904D02*
X-83677419Y13922285D01*
X-83677419Y13922285D02*
X-83629800Y13874666D01*
X-83629800Y13874666D02*
X-83582180Y13779428D01*
X-83582180Y13779428D02*
X-83582180Y13588952D01*
X-83582180Y13588952D02*
X-83629800Y13493714D01*
X-83629800Y13493714D02*
X-83677419Y13446095D01*
X-83677419Y13446095D02*
X-83772657Y13398476D01*
X-83772657Y13398476D02*
X-84582180Y13398476D01*
X-84582180Y12446095D02*
X-84582180Y12922285D01*
X-84582180Y12922285D02*
X-84105990Y12969904D01*
X-84105990Y12969904D02*
X-84153609Y12922285D01*
X-84153609Y12922285D02*
X-84201228Y12827047D01*
X-84201228Y12827047D02*
X-84201228Y12588952D01*
X-84201228Y12588952D02*
X-84153609Y12493714D01*
X-84153609Y12493714D02*
X-84105990Y12446095D01*
X-84105990Y12446095D02*
X-84010752Y12398476D01*
X-84010752Y12398476D02*
X-83772657Y12398476D01*
X-83772657Y12398476D02*
X-83677419Y12446095D01*
X-83677419Y12446095D02*
X-83629800Y12493714D01*
X-83629800Y12493714D02*
X-83582180Y12588952D01*
X-83582180Y12588952D02*
X-83582180Y12827047D01*
X-83582180Y12827047D02*
X-83629800Y12922285D01*
X-83629800Y12922285D02*
X-83677419Y12969904D01*
X-29738180Y23907357D02*
X-30214371Y24240690D01*
X-29738180Y24478785D02*
X-30738180Y24478785D01*
X-30738180Y24478785D02*
X-30738180Y24097833D01*
X-30738180Y24097833D02*
X-30690561Y24002595D01*
X-30690561Y24002595D02*
X-30642942Y23954976D01*
X-30642942Y23954976D02*
X-30547704Y23907357D01*
X-30547704Y23907357D02*
X-30404847Y23907357D01*
X-30404847Y23907357D02*
X-30309609Y23954976D01*
X-30309609Y23954976D02*
X-30261990Y24002595D01*
X-30261990Y24002595D02*
X-30214371Y24097833D01*
X-30214371Y24097833D02*
X-30214371Y24478785D01*
X-30738180Y23574023D02*
X-30738180Y22954976D01*
X-30738180Y22954976D02*
X-30357228Y23288309D01*
X-30357228Y23288309D02*
X-30357228Y23145452D01*
X-30357228Y23145452D02*
X-30309609Y23050214D01*
X-30309609Y23050214D02*
X-30261990Y23002595D01*
X-30261990Y23002595D02*
X-30166752Y22954976D01*
X-30166752Y22954976D02*
X-29928657Y22954976D01*
X-29928657Y22954976D02*
X-29833419Y23002595D01*
X-29833419Y23002595D02*
X-29785800Y23050214D01*
X-29785800Y23050214D02*
X-29738180Y23145452D01*
X-29738180Y23145452D02*
X-29738180Y23431166D01*
X-29738180Y23431166D02*
X-29785800Y23526404D01*
X-29785800Y23526404D02*
X-29833419Y23574023D01*
X-29738180Y22002595D02*
X-29738180Y22574023D01*
X-29738180Y22288309D02*
X-30738180Y22288309D01*
X-30738180Y22288309D02*
X-30595323Y22383547D01*
X-30595323Y22383547D02*
X-30500085Y22478785D01*
X-30500085Y22478785D02*
X-30452466Y22574023D01*
X-66256180Y2538357D02*
X-66732371Y2871690D01*
X-66256180Y3109785D02*
X-67256180Y3109785D01*
X-67256180Y3109785D02*
X-67256180Y2728833D01*
X-67256180Y2728833D02*
X-67208561Y2633595D01*
X-67208561Y2633595D02*
X-67160942Y2585976D01*
X-67160942Y2585976D02*
X-67065704Y2538357D01*
X-67065704Y2538357D02*
X-66922847Y2538357D01*
X-66922847Y2538357D02*
X-66827609Y2585976D01*
X-66827609Y2585976D02*
X-66779990Y2633595D01*
X-66779990Y2633595D02*
X-66732371Y2728833D01*
X-66732371Y2728833D02*
X-66732371Y3109785D01*
X-66256180Y1585976D02*
X-66256180Y2157404D01*
X-66256180Y1871690D02*
X-67256180Y1871690D01*
X-67256180Y1871690D02*
X-67113323Y1966928D01*
X-67113323Y1966928D02*
X-67018085Y2062166D01*
X-67018085Y2062166D02*
X-66970466Y2157404D01*
X-67256180Y1252642D02*
X-67256180Y585976D01*
X-67256180Y585976D02*
X-66256180Y1014547D01*
X-17431419Y32265857D02*
X-17383800Y32313476D01*
X-17383800Y32313476D02*
X-17336180Y32456333D01*
X-17336180Y32456333D02*
X-17336180Y32551571D01*
X-17336180Y32551571D02*
X-17383800Y32694428D01*
X-17383800Y32694428D02*
X-17479038Y32789666D01*
X-17479038Y32789666D02*
X-17574276Y32837285D01*
X-17574276Y32837285D02*
X-17764752Y32884904D01*
X-17764752Y32884904D02*
X-17907609Y32884904D01*
X-17907609Y32884904D02*
X-18098085Y32837285D01*
X-18098085Y32837285D02*
X-18193323Y32789666D01*
X-18193323Y32789666D02*
X-18288561Y32694428D01*
X-18288561Y32694428D02*
X-18336180Y32551571D01*
X-18336180Y32551571D02*
X-18336180Y32456333D01*
X-18336180Y32456333D02*
X-18288561Y32313476D01*
X-18288561Y32313476D02*
X-18240942Y32265857D01*
X-17336180Y31313476D02*
X-17336180Y31884904D01*
X-17336180Y31599190D02*
X-18336180Y31599190D01*
X-18336180Y31599190D02*
X-18193323Y31694428D01*
X-18193323Y31694428D02*
X-18098085Y31789666D01*
X-18098085Y31789666D02*
X-18050466Y31884904D01*
X-17907609Y30742047D02*
X-17955228Y30837285D01*
X-17955228Y30837285D02*
X-18002847Y30884904D01*
X-18002847Y30884904D02*
X-18098085Y30932523D01*
X-18098085Y30932523D02*
X-18145704Y30932523D01*
X-18145704Y30932523D02*
X-18240942Y30884904D01*
X-18240942Y30884904D02*
X-18288561Y30837285D01*
X-18288561Y30837285D02*
X-18336180Y30742047D01*
X-18336180Y30742047D02*
X-18336180Y30551571D01*
X-18336180Y30551571D02*
X-18288561Y30456333D01*
X-18288561Y30456333D02*
X-18240942Y30408714D01*
X-18240942Y30408714D02*
X-18145704Y30361095D01*
X-18145704Y30361095D02*
X-18098085Y30361095D01*
X-18098085Y30361095D02*
X-18002847Y30408714D01*
X-18002847Y30408714D02*
X-17955228Y30456333D01*
X-17955228Y30456333D02*
X-17907609Y30551571D01*
X-17907609Y30551571D02*
X-17907609Y30742047D01*
X-17907609Y30742047D02*
X-17859990Y30837285D01*
X-17859990Y30837285D02*
X-17812371Y30884904D01*
X-17812371Y30884904D02*
X-17717133Y30932523D01*
X-17717133Y30932523D02*
X-17526657Y30932523D01*
X-17526657Y30932523D02*
X-17431419Y30884904D01*
X-17431419Y30884904D02*
X-17383800Y30837285D01*
X-17383800Y30837285D02*
X-17336180Y30742047D01*
X-17336180Y30742047D02*
X-17336180Y30551571D01*
X-17336180Y30551571D02*
X-17383800Y30456333D01*
X-17383800Y30456333D02*
X-17431419Y30408714D01*
X-17431419Y30408714D02*
X-17526657Y30361095D01*
X-17526657Y30361095D02*
X-17717133Y30361095D01*
X-17717133Y30361095D02*
X-17812371Y30408714D01*
X-17812371Y30408714D02*
X-17859990Y30456333D01*
X-17859990Y30456333D02*
X-17907609Y30551571D01*
X-47646419Y38361857D02*
X-47598800Y38409476D01*
X-47598800Y38409476D02*
X-47551180Y38552333D01*
X-47551180Y38552333D02*
X-47551180Y38647571D01*
X-47551180Y38647571D02*
X-47598800Y38790428D01*
X-47598800Y38790428D02*
X-47694038Y38885666D01*
X-47694038Y38885666D02*
X-47789276Y38933285D01*
X-47789276Y38933285D02*
X-47979752Y38980904D01*
X-47979752Y38980904D02*
X-48122609Y38980904D01*
X-48122609Y38980904D02*
X-48313085Y38933285D01*
X-48313085Y38933285D02*
X-48408323Y38885666D01*
X-48408323Y38885666D02*
X-48503561Y38790428D01*
X-48503561Y38790428D02*
X-48551180Y38647571D01*
X-48551180Y38647571D02*
X-48551180Y38552333D01*
X-48551180Y38552333D02*
X-48503561Y38409476D01*
X-48503561Y38409476D02*
X-48455942Y38361857D01*
X-48455942Y37980904D02*
X-48503561Y37933285D01*
X-48503561Y37933285D02*
X-48551180Y37838047D01*
X-48551180Y37838047D02*
X-48551180Y37599952D01*
X-48551180Y37599952D02*
X-48503561Y37504714D01*
X-48503561Y37504714D02*
X-48455942Y37457095D01*
X-48455942Y37457095D02*
X-48360704Y37409476D01*
X-48360704Y37409476D02*
X-48265466Y37409476D01*
X-48265466Y37409476D02*
X-48122609Y37457095D01*
X-48122609Y37457095D02*
X-47551180Y38028523D01*
X-47551180Y38028523D02*
X-47551180Y37409476D01*
X-47551180Y36457095D02*
X-47551180Y37028523D01*
X-47551180Y36742809D02*
X-48551180Y36742809D01*
X-48551180Y36742809D02*
X-48408323Y36838047D01*
X-48408323Y36838047D02*
X-48313085Y36933285D01*
X-48313085Y36933285D02*
X-48265466Y37028523D01*
X-94287180Y11247285D02*
X-95287180Y11247285D01*
X-95287180Y11247285D02*
X-95287180Y11009190D01*
X-95287180Y11009190D02*
X-95239561Y10866333D01*
X-95239561Y10866333D02*
X-95144323Y10771095D01*
X-95144323Y10771095D02*
X-95049085Y10723476D01*
X-95049085Y10723476D02*
X-94858609Y10675857D01*
X-94858609Y10675857D02*
X-94715752Y10675857D01*
X-94715752Y10675857D02*
X-94525276Y10723476D01*
X-94525276Y10723476D02*
X-94430038Y10771095D01*
X-94430038Y10771095D02*
X-94334800Y10866333D01*
X-94334800Y10866333D02*
X-94287180Y11009190D01*
X-94287180Y11009190D02*
X-94287180Y11247285D01*
X-94287180Y9723476D02*
X-94287180Y10294904D01*
X-94287180Y10009190D02*
X-95287180Y10009190D01*
X-95287180Y10009190D02*
X-95144323Y10104428D01*
X-95144323Y10104428D02*
X-95049085Y10199666D01*
X-95049085Y10199666D02*
X-95001466Y10294904D01*
X-95191942Y9342523D02*
X-95239561Y9294904D01*
X-95239561Y9294904D02*
X-95287180Y9199666D01*
X-95287180Y9199666D02*
X-95287180Y8961571D01*
X-95287180Y8961571D02*
X-95239561Y8866333D01*
X-95239561Y8866333D02*
X-95191942Y8818714D01*
X-95191942Y8818714D02*
X-95096704Y8771095D01*
X-95096704Y8771095D02*
X-95001466Y8771095D01*
X-95001466Y8771095D02*
X-94858609Y8818714D01*
X-94858609Y8818714D02*
X-94287180Y9390142D01*
X-94287180Y9390142D02*
X-94287180Y8771095D01*
X-34835180Y34034904D02*
X-34025657Y34034904D01*
X-34025657Y34034904D02*
X-33930419Y33987285D01*
X-33930419Y33987285D02*
X-33882800Y33939666D01*
X-33882800Y33939666D02*
X-33835180Y33844428D01*
X-33835180Y33844428D02*
X-33835180Y33653952D01*
X-33835180Y33653952D02*
X-33882800Y33558714D01*
X-33882800Y33558714D02*
X-33930419Y33511095D01*
X-33930419Y33511095D02*
X-34025657Y33463476D01*
X-34025657Y33463476D02*
X-34835180Y33463476D01*
X-34406609Y32844428D02*
X-34454228Y32939666D01*
X-34454228Y32939666D02*
X-34501847Y32987285D01*
X-34501847Y32987285D02*
X-34597085Y33034904D01*
X-34597085Y33034904D02*
X-34644704Y33034904D01*
X-34644704Y33034904D02*
X-34739942Y32987285D01*
X-34739942Y32987285D02*
X-34787561Y32939666D01*
X-34787561Y32939666D02*
X-34835180Y32844428D01*
X-34835180Y32844428D02*
X-34835180Y32653952D01*
X-34835180Y32653952D02*
X-34787561Y32558714D01*
X-34787561Y32558714D02*
X-34739942Y32511095D01*
X-34739942Y32511095D02*
X-34644704Y32463476D01*
X-34644704Y32463476D02*
X-34597085Y32463476D01*
X-34597085Y32463476D02*
X-34501847Y32511095D01*
X-34501847Y32511095D02*
X-34454228Y32558714D01*
X-34454228Y32558714D02*
X-34406609Y32653952D01*
X-34406609Y32653952D02*
X-34406609Y32844428D01*
X-34406609Y32844428D02*
X-34358990Y32939666D01*
X-34358990Y32939666D02*
X-34311371Y32987285D01*
X-34311371Y32987285D02*
X-34216133Y33034904D01*
X-34216133Y33034904D02*
X-34025657Y33034904D01*
X-34025657Y33034904D02*
X-33930419Y32987285D01*
X-33930419Y32987285D02*
X-33882800Y32939666D01*
X-33882800Y32939666D02*
X-33835180Y32844428D01*
X-33835180Y32844428D02*
X-33835180Y32653952D01*
X-33835180Y32653952D02*
X-33882800Y32558714D01*
X-33882800Y32558714D02*
X-33930419Y32511095D01*
X-33930419Y32511095D02*
X-34025657Y32463476D01*
X-34025657Y32463476D02*
X-34216133Y32463476D01*
X-34216133Y32463476D02*
X-34311371Y32511095D01*
X-34311371Y32511095D02*
X-34358990Y32558714D01*
X-34358990Y32558714D02*
X-34406609Y32653952D01*
D11*
%TO.C,R33*%
X-55767500Y22961276D02*
X-55767500Y23470724D01*
X-54722500Y22961276D02*
X-54722500Y23470724D01*
%TO.C,R9*%
X-21521500Y40894724D02*
X-21521500Y40385276D01*
X-20476500Y40894724D02*
X-20476500Y40385276D01*
%TO.C,U13*%
X-14706000Y3810000D02*
X-14706000Y4960000D01*
X-14706000Y3810000D02*
X-14706000Y2660000D01*
X-12336000Y3810000D02*
X-12336000Y4960000D01*
X-12336000Y3810000D02*
X-12336000Y2660000D01*
X-12531000Y1195000D02*
X-13011000Y1195000D01*
X-12771000Y1525000D01*
X-12531000Y1195000D01*
G36*
X-12531000Y1195000D02*
G01*
X-13011000Y1195000D01*
X-12771000Y1525000D01*
X-12531000Y1195000D01*
G37*
%TO.C,R21*%
X-58682100Y40871224D02*
X-58682100Y40361776D01*
X-57637100Y40871224D02*
X-57637100Y40361776D01*
%TO.C,C20*%
X-22113248Y38516000D02*
X-22635752Y38516000D01*
X-22113248Y37046000D02*
X-22635752Y37046000D01*
%TO.C,C23*%
X-53781598Y38581000D02*
X-54304102Y38581000D01*
X-53781598Y37111000D02*
X-54304102Y37111000D01*
%TO.C,R14*%
X-27109500Y40894724D02*
X-27109500Y40385276D01*
X-26064500Y40894724D02*
X-26064500Y40385276D01*
%TO.C,U10*%
X-69905000Y25325000D02*
X-69905000Y27600000D01*
X-69905000Y25325000D02*
X-69905000Y23050000D01*
X-65985000Y25325000D02*
X-65985000Y27600000D01*
X-65985000Y25325000D02*
X-65985000Y23050000D01*
X-69750000Y28487500D02*
X-70080000Y28247500D01*
X-70080000Y28727500D01*
X-69750000Y28487500D01*
G36*
X-69750000Y28487500D02*
G01*
X-70080000Y28247500D01*
X-70080000Y28727500D01*
X-69750000Y28487500D01*
G37*
%TO.C,C8*%
X-60455198Y10005306D02*
X-60662051Y10212159D01*
X-59733949Y10726555D02*
X-59940802Y10933408D01*
%TO.C,R22*%
X-29649500Y40894724D02*
X-29649500Y40385276D01*
X-28604500Y40894724D02*
X-28604500Y40385276D01*
%TO.C,C28*%
X-79217567Y18442400D02*
X-78925033Y18442400D01*
X-79217567Y17422400D02*
X-78925033Y17422400D01*
%TO.C,U6*%
X-25464000Y32958000D02*
X-25464000Y34908000D01*
X-25464000Y32958000D02*
X-25464000Y31008000D01*
X-20344000Y32958000D02*
X-20344000Y34908000D01*
X-20344000Y32958000D02*
X-20344000Y31008000D01*
X-20109000Y30018000D02*
X-20439000Y30258000D01*
X-20109000Y30498000D01*
X-20109000Y30018000D01*
G36*
X-20109000Y30018000D02*
G01*
X-20439000Y30258000D01*
X-20109000Y30498000D01*
X-20109000Y30018000D01*
G37*
%TO.C,R6*%
X-19489500Y37078276D02*
X-19489500Y37587724D01*
X-18444500Y37078276D02*
X-18444500Y37587724D01*
%TO.C,C24*%
X-27859000Y31476733D02*
X-27859000Y31769267D01*
X-26839000Y31476733D02*
X-26839000Y31769267D01*
%TO.C,C6*%
X-62083733Y24386000D02*
X-62376267Y24386000D01*
X-62083733Y23366000D02*
X-62376267Y23366000D01*
%TO.C,C7*%
X-54109233Y13972000D02*
X-54401767Y13972000D01*
X-54109233Y12952000D02*
X-54401767Y12952000D01*
%TO.C,R10*%
X-25331500Y40894724D02*
X-25331500Y40385276D01*
X-24286500Y40894724D02*
X-24286500Y40385276D01*
%TO.C,R32*%
X-47258500Y22936276D02*
X-47258500Y23445724D01*
X-46213500Y22936276D02*
X-46213500Y23445724D01*
%TO.C,C33*%
X-27544000Y5949733D02*
X-27544000Y6242267D01*
X-26524000Y5949733D02*
X-26524000Y6242267D01*
%TO.C,U7*%
X-48680000Y32958000D02*
X-48680000Y34908000D01*
X-48680000Y32958000D02*
X-48680000Y31008000D01*
X-43560000Y32958000D02*
X-43560000Y34908000D01*
X-43560000Y32958000D02*
X-43560000Y31008000D01*
X-43325000Y30018000D02*
X-43655000Y30258000D01*
X-43325000Y30498000D01*
X-43325000Y30018000D01*
G36*
X-43325000Y30018000D02*
G01*
X-43655000Y30258000D01*
X-43325000Y30498000D01*
X-43325000Y30018000D01*
G37*
%TO.C,Q3*%
X-50204000Y50476000D02*
X-49934000Y50476000D01*
X-50204000Y44056000D02*
X-50204000Y50476000D01*
X-43304000Y50476000D02*
X-43574000Y50476000D01*
X-43304000Y44056000D02*
X-43304000Y50476000D01*
X-49894000Y52206000D02*
X-50364000Y51866000D01*
X-50364000Y52546000D01*
X-49894000Y52206000D01*
G36*
X-49894000Y52206000D02*
G01*
X-50364000Y51866000D01*
X-50364000Y52546000D01*
X-49894000Y52206000D01*
G37*
%TO.C,Q1*%
X-26990000Y50467000D02*
X-26720000Y50467000D01*
X-26990000Y44047000D02*
X-26990000Y50467000D01*
X-20090000Y50467000D02*
X-20360000Y50467000D01*
X-20090000Y44047000D02*
X-20090000Y50467000D01*
X-26680000Y52197000D02*
X-27150000Y51857000D01*
X-27150000Y52537000D01*
X-26680000Y52197000D01*
G36*
X-26680000Y52197000D02*
G01*
X-27150000Y51857000D01*
X-27150000Y52537000D01*
X-26680000Y52197000D01*
G37*
%TO.C,C1*%
X-74264567Y12829000D02*
X-73972033Y12829000D01*
X-74264567Y11809000D02*
X-73972033Y11809000D01*
%TO.C,C12*%
X-71504200Y35529567D02*
X-71504200Y35237033D01*
X-70484200Y35529567D02*
X-70484200Y35237033D01*
%TO.C,R2*%
X-85101500Y3658776D02*
X-85101500Y4168224D01*
X-84056500Y3658776D02*
X-84056500Y4168224D01*
%TO.C,D1*%
X-74345000Y11160000D02*
X-78355000Y11160000D01*
X-74345000Y11160000D02*
X-74345000Y9160000D01*
X-74345000Y9160000D02*
X-78355000Y9160000D01*
%TO.C,C19*%
X-42947000Y31503233D02*
X-42947000Y31795767D01*
X-41927000Y31503233D02*
X-41927000Y31795767D01*
%TO.C,R4*%
X-71388500Y2136224D02*
X-71388500Y1626776D01*
X-70343500Y2136224D02*
X-70343500Y1626776D01*
%TO.C,R26*%
X-27617500Y37078276D02*
X-27617500Y37587724D01*
X-26572500Y37078276D02*
X-26572500Y37587724D01*
%TO.C,C2*%
X-20058767Y16131000D02*
X-19766233Y16131000D01*
X-20058767Y15111000D02*
X-19766233Y15111000D01*
%TO.C,C22*%
X-30262748Y38581000D02*
X-30785252Y38581000D01*
X-30262748Y37111000D02*
X-30785252Y37111000D01*
%TO.C,R30*%
X-24042900Y22912776D02*
X-24042900Y23422224D01*
X-22997900Y22912776D02*
X-22997900Y23422224D01*
%TO.C,R7*%
X-42705500Y37078276D02*
X-42705500Y37587724D01*
X-41660500Y37078276D02*
X-41660500Y37587724D01*
%TO.C,R27*%
X-51087500Y37062776D02*
X-51087500Y37572224D01*
X-50042500Y37062776D02*
X-50042500Y37572224D01*
%TO.C,C13*%
X-69824200Y35517552D02*
X-69824200Y34995048D01*
X-68354200Y35517552D02*
X-68354200Y34995048D01*
%TO.C,R16*%
X-50325500Y40871224D02*
X-50325500Y40361776D01*
X-49280500Y40871224D02*
X-49280500Y40361776D01*
%TO.C,U9*%
X-57110850Y32958000D02*
X-57110850Y34908000D01*
X-57110850Y32958000D02*
X-57110850Y31008000D01*
X-51990850Y32958000D02*
X-51990850Y34908000D01*
X-51990850Y32958000D02*
X-51990850Y31008000D01*
X-51755850Y30018000D02*
X-52085850Y30258000D01*
X-51755850Y30498000D01*
X-51755850Y30018000D01*
G36*
X-51755850Y30018000D02*
G01*
X-52085850Y30258000D01*
X-51755850Y30498000D01*
X-51755850Y30018000D01*
G37*
%TO.C,R12*%
X-48547500Y40871224D02*
X-48547500Y40361776D01*
X-47502500Y40871224D02*
X-47502500Y40361776D01*
%TO.C,C10*%
X-88003767Y17655000D02*
X-87711233Y17655000D01*
X-88003767Y16635000D02*
X-87711233Y16635000D01*
%TO.C,JP2*%
X-67612000Y37195000D02*
X-67612000Y35195000D01*
X-67612000Y35195000D02*
X-63512000Y35195000D01*
X-63512000Y37195000D02*
X-67612000Y37195000D01*
X-63512000Y35195000D02*
X-63512000Y37195000D01*
%TO.C,C5*%
X-23094733Y17401000D02*
X-23387267Y17401000D01*
X-23094733Y16381000D02*
X-23387267Y16381000D01*
%TO.C,C31*%
X-26042233Y2923000D02*
X-26334767Y2923000D01*
X-26042233Y1903000D02*
X-26334767Y1903000D01*
%TO.C,C25*%
X-51456000Y31503233D02*
X-51456000Y31795767D01*
X-50436000Y31503233D02*
X-50436000Y31795767D01*
%TO.C,C32*%
X-10294233Y2923000D02*
X-10586767Y2923000D01*
X-10294233Y1903000D02*
X-10586767Y1903000D01*
%TO.C,R34*%
X-65368700Y22732276D02*
X-65368700Y23241724D01*
X-64323700Y22732276D02*
X-64323700Y23241724D01*
%TO.C,D3*%
X-62918000Y34655000D02*
X-66928000Y34655000D01*
X-62918000Y34655000D02*
X-62918000Y32655000D01*
X-62918000Y32655000D02*
X-66928000Y32655000D01*
%TO.C,C9*%
X-80140200Y37091233D02*
X-80140200Y37383767D01*
X-79120200Y37091233D02*
X-79120200Y37383767D01*
%TO.C,Q7*%
X-58587000Y50467000D02*
X-58317000Y50467000D01*
X-58587000Y44047000D02*
X-58587000Y50467000D01*
X-51687000Y50467000D02*
X-51957000Y50467000D01*
X-51687000Y44047000D02*
X-51687000Y50467000D01*
X-58277000Y52197000D02*
X-58747000Y51857000D01*
X-58747000Y52537000D01*
X-58277000Y52197000D01*
G36*
X-58277000Y52197000D02*
G01*
X-58747000Y51857000D01*
X-58747000Y52537000D01*
X-58277000Y52197000D01*
G37*
%TO.C,R24*%
X-53221100Y40871224D02*
X-53221100Y40361776D01*
X-52176100Y40871224D02*
X-52176100Y40361776D01*
%TO.C,R13*%
X-23299500Y40894724D02*
X-23299500Y40385276D01*
X-22254500Y40894724D02*
X-22254500Y40385276D01*
%TO.C,U18*%
X-30374000Y3807000D02*
X-30374000Y4957000D01*
X-30374000Y3807000D02*
X-30374000Y2657000D01*
X-28004000Y3807000D02*
X-28004000Y4957000D01*
X-28004000Y3807000D02*
X-28004000Y2657000D01*
X-28199000Y1192000D02*
X-28679000Y1192000D01*
X-28439000Y1522000D01*
X-28199000Y1192000D01*
G36*
X-28199000Y1192000D02*
G01*
X-28679000Y1192000D01*
X-28439000Y1522000D01*
X-28199000Y1192000D01*
G37*
%TO.C,U4*%
X-78762200Y34642800D02*
X-78492200Y34642800D01*
X-78762200Y28222800D02*
X-78762200Y34642800D01*
X-71862200Y34642800D02*
X-72132200Y34642800D01*
X-71862200Y28222800D02*
X-71862200Y34642800D01*
X-78452200Y36372800D02*
X-78922200Y36032800D01*
X-78922200Y36712800D01*
X-78452200Y36372800D01*
G36*
X-78452200Y36372800D02*
G01*
X-78922200Y36032800D01*
X-78922200Y36712800D01*
X-78452200Y36372800D01*
G37*
%TO.C,R25*%
X-56904100Y40871224D02*
X-56904100Y40361776D01*
X-55859100Y40871224D02*
X-55859100Y40361776D01*
%TO.C,C4*%
X-77668167Y12829000D02*
X-77375633Y12829000D01*
X-77668167Y11809000D02*
X-77375633Y11809000D01*
%TO.C,R5*%
X-68597500Y2150224D02*
X-68597500Y1640776D01*
X-67552500Y2150224D02*
X-67552500Y1640776D01*
%TO.C,R3*%
X-14619276Y18683500D02*
X-15128724Y18683500D01*
X-14619276Y17638500D02*
X-15128724Y17638500D01*
%TO.C,R1*%
X-88149500Y4168224D02*
X-88149500Y3658776D01*
X-87104500Y4168224D02*
X-87104500Y3658776D01*
%TO.C,R11*%
X-44737500Y40871224D02*
X-44737500Y40361776D01*
X-43692500Y40871224D02*
X-43692500Y40361776D01*
%TO.C,C34*%
X-11923000Y5923233D02*
X-11923000Y6215767D01*
X-10903000Y5923233D02*
X-10903000Y6215767D01*
%TO.C,R35*%
X-64188424Y29097500D02*
X-63678976Y29097500D01*
X-64188424Y28052500D02*
X-63678976Y28052500D01*
%TO.C,R18*%
X-31427500Y40894724D02*
X-31427500Y40385276D01*
X-30382500Y40894724D02*
X-30382500Y40385276D01*
%TO.C,R20*%
X-54999100Y40871224D02*
X-54999100Y40361776D01*
X-53954100Y40871224D02*
X-53954100Y40361776D01*
%TO.C,Q5*%
X-35100000Y50467000D02*
X-34830000Y50467000D01*
X-35100000Y44047000D02*
X-35100000Y50467000D01*
X-28200000Y50467000D02*
X-28470000Y50467000D01*
X-28200000Y44047000D02*
X-28200000Y50467000D01*
X-34790000Y52197000D02*
X-35260000Y51857000D01*
X-35260000Y52537000D01*
X-34790000Y52197000D01*
G36*
X-34790000Y52197000D02*
G01*
X-35260000Y51857000D01*
X-35260000Y52537000D01*
X-34790000Y52197000D01*
G37*
%TO.C,R8*%
X-76976500Y57517724D02*
X-76976500Y57008276D01*
X-75931500Y57517724D02*
X-75931500Y57008276D01*
%TO.C,R28*%
X-78816576Y16905500D02*
X-79326024Y16905500D01*
X-78816576Y15860500D02*
X-79326024Y15860500D01*
%TO.C,R23*%
X-33459500Y40894724D02*
X-33459500Y40385276D01*
X-32414500Y40894724D02*
X-32414500Y40385276D01*
%TO.C,U5*%
X-88097000Y13208000D02*
X-88097000Y14708000D01*
X-88097000Y13208000D02*
X-88097000Y11708000D01*
X-84877000Y13208000D02*
X-84877000Y14708000D01*
X-84877000Y13208000D02*
X-84877000Y11708000D01*
X-84722000Y10755500D02*
X-85052000Y10995500D01*
X-84722000Y11235500D01*
X-84722000Y10755500D01*
G36*
X-84722000Y10755500D02*
G01*
X-85052000Y10995500D01*
X-84722000Y11235500D01*
X-84722000Y10755500D01*
G37*
%TO.C,R15*%
X-46515500Y40871224D02*
X-46515500Y40361776D01*
X-45470500Y40871224D02*
X-45470500Y40361776D01*
%TO.C,R31*%
X-32145500Y23009776D02*
X-32145500Y23519224D01*
X-31100500Y23009776D02*
X-31100500Y23519224D01*
%TO.C,R17*%
X-65803500Y2150224D02*
X-65803500Y1640776D01*
X-64758500Y2150224D02*
X-64758500Y1640776D01*
%TO.C,C18*%
X-19731000Y31476733D02*
X-19731000Y31769267D01*
X-18711000Y31476733D02*
X-18711000Y31769267D01*
%TO.C,C21*%
X-45350748Y38581000D02*
X-45873252Y38581000D01*
X-45350748Y37111000D02*
X-45873252Y37111000D01*
%TO.C,D12*%
X-97647000Y7950000D02*
X-97647000Y11810000D01*
X-95647000Y7950000D02*
X-97647000Y7950000D01*
X-95647000Y7950000D02*
X-95647000Y11810000D01*
%TO.C,R19*%
X-35237500Y40894724D02*
X-35237500Y40385276D01*
X-34192500Y40894724D02*
X-34192500Y40385276D01*
%TO.C,U8*%
X-33592000Y32958000D02*
X-33592000Y34908000D01*
X-33592000Y32958000D02*
X-33592000Y31008000D01*
X-28472000Y32958000D02*
X-28472000Y34908000D01*
X-28472000Y32958000D02*
X-28472000Y31008000D01*
X-28237000Y30018000D02*
X-28567000Y30258000D01*
X-28237000Y30498000D01*
X-28237000Y30018000D01*
G36*
X-28237000Y30018000D02*
G01*
X-28567000Y30258000D01*
X-28237000Y30498000D01*
X-28237000Y30018000D01*
G37*
%TD*%
%LPC*%
D12*
X-2199724Y65971427D02*
G75*
G02*
X-5743130Y65971427I-1771703J0D01*
G01*
X-5743130Y65971427D02*
G75*
G02*
X-2199724Y65971427I1771703J0D01*
G01*
X-94199724Y3971427D02*
G75*
G02*
X-97743130Y3971427I-1771703J0D01*
G01*
X-97743130Y3971427D02*
G75*
G02*
X-94199724Y3971427I1771703J0D01*
G01*
X-94199724Y65971427D02*
G75*
G02*
X-97743130Y65971427I-1771703J0D01*
G01*
X-97743130Y65971427D02*
G75*
G02*
X-94199724Y65971427I1771703J0D01*
G01*
X-2199724Y3971427D02*
G75*
G02*
X-5743130Y3971427I-1771703J0D01*
G01*
X-5743130Y3971427D02*
G75*
G02*
X-2199724Y3971427I1771703J0D01*
G01*
%TO.C,JP2*%
G36*
X-66362000Y35445000D02*
G01*
X-64762000Y35445000D01*
X-64762000Y36945000D01*
X-66362000Y36945000D01*
X-66362000Y35445000D01*
G37*
%TD*%
D13*
%TO.C,REF\u002A\u002A*%
X-95971427Y65971427D03*
%TD*%
D14*
%TO.C,J9*%
X-89528000Y31350000D03*
X-89528000Y44850000D03*
D15*
X-83528000Y34500000D03*
D16*
X-83528000Y41700000D03*
%TD*%
D17*
%TO.C,C16*%
X-78232000Y63811651D03*
D18*
X-78232000Y67311651D03*
%TD*%
D13*
%TO.C,REF\u002A\u002A*%
X-95971427Y3971427D03*
%TD*%
D19*
%TO.C,J12*%
X-57658000Y5080000D03*
D20*
X-57658000Y2580000D03*
%TD*%
D13*
%TO.C,REF\u002A\u002A*%
X-3971427Y3971427D03*
%TD*%
D21*
%TO.C,SW2*%
X5275000Y-1525000D03*
D18*
X2735000Y-1525000D03*
X7815000Y-1525000D03*
%TD*%
D17*
%TO.C,C14*%
X-86868000Y63811651D03*
D18*
X-86868000Y67311651D03*
%TD*%
D22*
%TO.C,F1*%
X-96880000Y48113000D03*
X-96905000Y51503000D03*
X-83435000Y48113000D03*
X-83435000Y51503000D03*
%TD*%
D23*
%TO.C,J11*%
X-56407000Y60960000D03*
X-45407000Y60960000D03*
D24*
X-53407000Y55960000D03*
D25*
X-48407000Y55960000D03*
%TD*%
D19*
%TO.C,J4*%
X-51037000Y5080000D03*
D20*
X-51037000Y2580000D03*
%TD*%
D17*
%TO.C,C17*%
X-82550000Y56388000D03*
D18*
X-82550000Y59888000D03*
%TD*%
D26*
%TO.C,J7*%
X-7874000Y28000000D03*
D27*
X-7874000Y30500000D03*
X-7874000Y33000000D03*
X-7874000Y35500000D03*
%TD*%
D17*
%TO.C,C15*%
X-91186000Y56386349D03*
D18*
X-91186000Y59886349D03*
%TD*%
D28*
%TO.C,J1*%
X-94107000Y13589000D03*
D29*
X-96647000Y13589000D03*
X-94107000Y16129000D03*
X-96647000Y16129000D03*
X-94107000Y18669000D03*
X-96647000Y18669000D03*
%TD*%
D26*
%TO.C,J8*%
X-7874000Y14852000D03*
D27*
X-7874000Y17352000D03*
X-7874000Y19852000D03*
X-7874000Y22352000D03*
%TD*%
D30*
%TO.C,J6*%
X-38939000Y9292000D03*
D31*
X-36439000Y9292000D03*
X-33939000Y9292000D03*
X-31439000Y9292000D03*
X-28939000Y9292000D03*
%TD*%
D30*
%TO.C,J5*%
X-23271000Y9292000D03*
D31*
X-20771000Y9292000D03*
X-18271000Y9292000D03*
X-15771000Y9292000D03*
X-13271000Y9292000D03*
%TD*%
D23*
%TO.C,J10*%
X-33098000Y60960000D03*
X-22098000Y60960000D03*
D24*
X-30098000Y55960000D03*
D25*
X-25098000Y55960000D03*
%TD*%
D32*
%TO.C,J2*%
X-89247000Y6415000D03*
X-83467000Y6415000D03*
D33*
X-90677000Y6915000D03*
D34*
X-90677000Y2735000D03*
D33*
X-82037000Y6915000D03*
D34*
X-82037000Y2735000D03*
%TD*%
D35*
%TO.C,SW5*%
X-64770000Y8382000D03*
X-67310000Y8382000D03*
X-69850000Y8382000D03*
%TD*%
D19*
%TO.C,J3*%
X-44433000Y5080000D03*
D20*
X-44433000Y2580000D03*
%TD*%
D13*
%TO.C,REF\u002A\u002A*%
X-3971427Y65971427D03*
%TD*%
D36*
%TO.C,R33*%
X-55245000Y22303500D03*
X-55245000Y24128500D03*
%TD*%
D37*
%TO.C,R9*%
X-20999000Y41552500D03*
X-20999000Y39727500D03*
%TD*%
D38*
%TO.C,U13*%
X-12771000Y2410000D03*
X-13271000Y2410000D03*
X-13771000Y2410000D03*
X-14271000Y2410000D03*
X-14271000Y5210000D03*
X-13771000Y5210000D03*
X-13271000Y5210000D03*
X-12771000Y5210000D03*
%TD*%
D37*
%TO.C,R21*%
X-58159600Y41529000D03*
X-58159600Y39704000D03*
%TD*%
D39*
%TO.C,C20*%
X-21337000Y37781000D03*
X-23412000Y37781000D03*
%TD*%
%TO.C,C23*%
X-53005350Y37846000D03*
X-55080350Y37846000D03*
%TD*%
D37*
%TO.C,R14*%
X-26587000Y41552500D03*
X-26587000Y39727500D03*
%TD*%
D40*
%TO.C,U10*%
X-69215000Y28575000D03*
X-66675000Y28575000D03*
X-66675000Y22075000D03*
X-69215000Y22075000D03*
%TD*%
D41*
%TO.C,C8*%
X-59588120Y9859477D03*
X-60807880Y11079237D03*
%TD*%
D37*
%TO.C,R22*%
X-29127000Y41552500D03*
X-29127000Y39727500D03*
%TD*%
D42*
%TO.C,C28*%
X-79933800Y17932400D03*
X-78208800Y17932400D03*
%TD*%
D43*
%TO.C,U6*%
X-20999000Y30483000D03*
X-22269000Y30483000D03*
X-23539000Y30483000D03*
X-24809000Y30483000D03*
X-24809000Y35433000D03*
X-23539000Y35433000D03*
X-22269000Y35433000D03*
X-20999000Y35433000D03*
%TD*%
D36*
%TO.C,R6*%
X-18967000Y36420500D03*
X-18967000Y38245500D03*
%TD*%
D44*
%TO.C,C24*%
X-27349000Y30760500D03*
X-27349000Y32485500D03*
%TD*%
D45*
%TO.C,C6*%
X-61367500Y23876000D03*
X-63092500Y23876000D03*
%TD*%
%TO.C,C7*%
X-53393000Y13462000D03*
X-55118000Y13462000D03*
%TD*%
D37*
%TO.C,R10*%
X-24809000Y41552500D03*
X-24809000Y39727500D03*
%TD*%
D36*
%TO.C,R32*%
X-46736000Y22278500D03*
X-46736000Y24103500D03*
%TD*%
D44*
%TO.C,C33*%
X-27034000Y5233500D03*
X-27034000Y6958500D03*
%TD*%
D43*
%TO.C,U7*%
X-44215000Y30483000D03*
X-45485000Y30483000D03*
X-46755000Y30483000D03*
X-48025000Y30483000D03*
X-48025000Y35433000D03*
X-46755000Y35433000D03*
X-45485000Y35433000D03*
X-44215000Y35433000D03*
%TD*%
D46*
%TO.C,Q3*%
X-49034000Y52206000D03*
D47*
X-46754000Y45906000D03*
D46*
X-44474000Y52206000D03*
%TD*%
%TO.C,Q1*%
X-25820000Y52197000D03*
D47*
X-23540000Y45897000D03*
D46*
X-21260000Y52197000D03*
%TD*%
D42*
%TO.C,C1*%
X-74980800Y12319000D03*
X-73255800Y12319000D03*
%TD*%
D48*
%TO.C,C12*%
X-70994200Y36245800D03*
X-70994200Y34520800D03*
%TD*%
D36*
%TO.C,R2*%
X-84579000Y3001000D03*
X-84579000Y4826000D03*
%TD*%
D49*
%TO.C,D1*%
X-75055000Y10160000D03*
X-78355000Y10160000D03*
%TD*%
D44*
%TO.C,C19*%
X-42437000Y30787000D03*
X-42437000Y32512000D03*
%TD*%
D37*
%TO.C,R4*%
X-70866000Y2794000D03*
X-70866000Y969000D03*
%TD*%
D36*
%TO.C,R26*%
X-27095000Y36420500D03*
X-27095000Y38245500D03*
%TD*%
D42*
%TO.C,C2*%
X-20775000Y15621000D03*
X-19050000Y15621000D03*
%TD*%
D39*
%TO.C,C22*%
X-29486500Y37846000D03*
X-31561500Y37846000D03*
%TD*%
D36*
%TO.C,R30*%
X-23520400Y22255000D03*
X-23520400Y24080000D03*
%TD*%
%TO.C,R7*%
X-42183000Y36420500D03*
X-42183000Y38245500D03*
%TD*%
%TO.C,R27*%
X-50565000Y36405000D03*
X-50565000Y38230000D03*
%TD*%
D50*
%TO.C,C13*%
X-69089200Y36293800D03*
X-69089200Y34218800D03*
%TD*%
D37*
%TO.C,R16*%
X-49803000Y41529000D03*
X-49803000Y39704000D03*
%TD*%
D43*
%TO.C,U9*%
X-52645850Y30483000D03*
X-53915850Y30483000D03*
X-55185850Y30483000D03*
X-56455850Y30483000D03*
X-56455850Y35433000D03*
X-55185850Y35433000D03*
X-53915850Y35433000D03*
X-52645850Y35433000D03*
%TD*%
D37*
%TO.C,R12*%
X-48025000Y41529000D03*
X-48025000Y39704000D03*
%TD*%
D42*
%TO.C,C10*%
X-88720000Y17145000D03*
X-86995000Y17145000D03*
%TD*%
D51*
%TO.C,JP2*%
X-66862000Y36195000D03*
X-65562000Y36195000D03*
X-64262000Y36195000D03*
%TD*%
D45*
%TO.C,C5*%
X-22378500Y16891000D03*
X-24103500Y16891000D03*
%TD*%
%TO.C,C31*%
X-25326000Y2413000D03*
X-27051000Y2413000D03*
%TD*%
D44*
%TO.C,C25*%
X-50946000Y30787000D03*
X-50946000Y32512000D03*
%TD*%
D45*
%TO.C,C32*%
X-9578000Y2413000D03*
X-11303000Y2413000D03*
%TD*%
D36*
%TO.C,R34*%
X-64846200Y22074500D03*
X-64846200Y23899500D03*
%TD*%
D49*
%TO.C,D3*%
X-63628000Y33655000D03*
X-66928000Y33655000D03*
%TD*%
D44*
%TO.C,C9*%
X-79630200Y36375000D03*
X-79630200Y38100000D03*
%TD*%
D46*
%TO.C,Q7*%
X-57417000Y52197000D03*
D47*
X-55137000Y45897000D03*
D46*
X-52857000Y52197000D03*
%TD*%
D37*
%TO.C,R24*%
X-52698600Y41529000D03*
X-52698600Y39704000D03*
%TD*%
%TO.C,R13*%
X-22777000Y41552500D03*
X-22777000Y39727500D03*
%TD*%
D38*
%TO.C,U18*%
X-28439000Y2407000D03*
X-28939000Y2407000D03*
X-29439000Y2407000D03*
X-29939000Y2407000D03*
X-29939000Y5207000D03*
X-29439000Y5207000D03*
X-28939000Y5207000D03*
X-28439000Y5207000D03*
%TD*%
D46*
%TO.C,U4*%
X-77592200Y36372800D03*
X-75312200Y36372800D03*
D47*
X-75312200Y30072800D03*
D46*
X-73032200Y36372800D03*
%TD*%
D37*
%TO.C,R25*%
X-56381600Y41529000D03*
X-56381600Y39704000D03*
%TD*%
D42*
%TO.C,C4*%
X-78384400Y12319000D03*
X-76659400Y12319000D03*
%TD*%
D37*
%TO.C,R5*%
X-68075000Y2808000D03*
X-68075000Y983000D03*
%TD*%
D52*
%TO.C,R3*%
X-13961500Y18161000D03*
X-15786500Y18161000D03*
%TD*%
D37*
%TO.C,R1*%
X-87627000Y4826000D03*
X-87627000Y3001000D03*
%TD*%
%TO.C,R11*%
X-44215000Y41529000D03*
X-44215000Y39704000D03*
%TD*%
D44*
%TO.C,C34*%
X-11413000Y5207000D03*
X-11413000Y6932000D03*
%TD*%
D53*
%TO.C,R35*%
X-64846200Y28575000D03*
X-63021200Y28575000D03*
%TD*%
D37*
%TO.C,R18*%
X-30905000Y41552500D03*
X-30905000Y39727500D03*
%TD*%
%TO.C,R20*%
X-54476600Y41529000D03*
X-54476600Y39704000D03*
%TD*%
D46*
%TO.C,Q5*%
X-33930000Y52197000D03*
D47*
X-31650000Y45897000D03*
D46*
X-29370000Y52197000D03*
%TD*%
D37*
%TO.C,R8*%
X-76454000Y58175500D03*
X-76454000Y56350500D03*
%TD*%
D52*
%TO.C,R28*%
X-78158800Y16383000D03*
X-79983800Y16383000D03*
%TD*%
D37*
%TO.C,R23*%
X-32937000Y41552500D03*
X-32937000Y39727500D03*
%TD*%
D54*
%TO.C,U5*%
X-85487000Y11095500D03*
X-85987000Y11095500D03*
X-86487000Y11095500D03*
X-86987000Y11095500D03*
X-87487000Y11095500D03*
X-87487000Y15320500D03*
X-86987000Y15320500D03*
X-86487000Y15320500D03*
X-85987000Y15320500D03*
X-85487000Y15320500D03*
%TD*%
D37*
%TO.C,R15*%
X-45993000Y41529000D03*
X-45993000Y39704000D03*
%TD*%
D36*
%TO.C,R31*%
X-31623000Y22352000D03*
X-31623000Y24177000D03*
%TD*%
D37*
%TO.C,R17*%
X-65281000Y2808000D03*
X-65281000Y983000D03*
%TD*%
D44*
%TO.C,C18*%
X-19221000Y30760500D03*
X-19221000Y32485500D03*
%TD*%
D39*
%TO.C,C21*%
X-44574500Y37846000D03*
X-46649500Y37846000D03*
%TD*%
D55*
%TO.C,D12*%
X-96647000Y8760000D03*
X-96647000Y11560000D03*
%TD*%
D37*
%TO.C,R19*%
X-34715000Y41552500D03*
X-34715000Y39727500D03*
%TD*%
D43*
%TO.C,U8*%
X-29127000Y30483000D03*
X-30397000Y30483000D03*
X-31667000Y30483000D03*
X-32937000Y30483000D03*
X-32937000Y35433000D03*
X-31667000Y35433000D03*
X-30397000Y35433000D03*
X-29127000Y35433000D03*
%TD*%
G36*
X-16566961Y49297315D02*
G01*
X-16521206Y49244511D01*
X-16510000Y49193000D01*
X-16510000Y45631000D01*
X-16529685Y45563961D01*
X-16582489Y45518206D01*
X-16634000Y45507000D01*
X-17021000Y45507000D01*
X-17088039Y45526685D01*
X-17133794Y45579489D01*
X-17145000Y45631000D01*
X-17145000Y49193000D01*
X-17125315Y49260039D01*
X-17072511Y49305794D01*
X-17021000Y49317000D01*
X-16634000Y49317000D01*
X-16566961Y49297315D01*
G37*
G36*
X-39426961Y49297315D02*
G01*
X-39381206Y49244511D01*
X-39370000Y49193000D01*
X-39370000Y45631000D01*
X-39389685Y45563961D01*
X-39442489Y45518206D01*
X-39494000Y45507000D01*
X-39881000Y45507000D01*
X-39948039Y45526685D01*
X-39993794Y45579489D01*
X-40005000Y45631000D01*
X-40005000Y49193000D01*
X-39985315Y49260039D01*
X-39932511Y49305794D01*
X-39881000Y49317000D01*
X-39494000Y49317000D01*
X-39426961Y49297315D01*
G37*
G36*
X-15296961Y46757315D02*
G01*
X-15251206Y46704511D01*
X-15240000Y46653000D01*
X-15240000Y43091000D01*
X-15259685Y43023961D01*
X-15312489Y42978206D01*
X-15364000Y42967000D01*
X-15751000Y42967000D01*
X-15818039Y42986685D01*
X-15863794Y43039489D01*
X-15875000Y43091000D01*
X-15875000Y46653000D01*
X-15855315Y46720039D01*
X-15802511Y46765794D01*
X-15751000Y46777000D01*
X-15364000Y46777000D01*
X-15296961Y46757315D01*
G37*
G36*
X-15296961Y51837315D02*
G01*
X-15251206Y51784511D01*
X-15240000Y51733000D01*
X-15240000Y48171000D01*
X-15259685Y48103961D01*
X-15312489Y48058206D01*
X-15364000Y48047000D01*
X-15751000Y48047000D01*
X-15818039Y48066685D01*
X-15863794Y48119489D01*
X-15875000Y48171000D01*
X-15875000Y51733000D01*
X-15855315Y51800039D01*
X-15802511Y51845794D01*
X-15751000Y51857000D01*
X-15364000Y51857000D01*
X-15296961Y51837315D01*
G37*
G36*
X-62540961Y59457315D02*
G01*
X-62495206Y59404511D01*
X-62484000Y59353000D01*
X-62484000Y58331000D01*
X-62503685Y58263961D01*
X-62556489Y58218206D01*
X-62608000Y58207000D01*
X-62995000Y58207000D01*
X-63062039Y58226685D01*
X-63107794Y58279489D01*
X-63119000Y58331000D01*
X-63119000Y59353000D01*
X-63099315Y59420039D01*
X-63046511Y59465794D01*
X-62995000Y59477000D01*
X-62608000Y59477000D01*
X-62540961Y59457315D01*
G37*
G36*
X-16566961Y59457315D02*
G01*
X-16521206Y59404511D01*
X-16510000Y59353000D01*
X-16510000Y55791000D01*
X-16529685Y55723961D01*
X-16582489Y55678206D01*
X-16634000Y55667000D01*
X-17021000Y55667000D01*
X-17088039Y55686685D01*
X-17133794Y55739489D01*
X-17145000Y55791000D01*
X-17145000Y59353000D01*
X-17125315Y59420039D01*
X-17072511Y59465794D01*
X-17021000Y59477000D01*
X-16634000Y59477000D01*
X-16566961Y59457315D01*
G37*
G36*
X-39426961Y44217315D02*
G01*
X-39381206Y44164511D01*
X-39370000Y44113000D01*
X-39370000Y43091000D01*
X-39389685Y43023961D01*
X-39442489Y42978206D01*
X-39494000Y42967000D01*
X-39881000Y42967000D01*
X-39948039Y42986685D01*
X-39993794Y43039489D01*
X-40005000Y43091000D01*
X-40005000Y44113000D01*
X-39985315Y44180039D01*
X-39932511Y44225794D01*
X-39881000Y44237000D01*
X-39494000Y44237000D01*
X-39426961Y44217315D01*
G37*
G36*
X-15296961Y56917315D02*
G01*
X-15251206Y56864511D01*
X-15240000Y56813000D01*
X-15240000Y53251000D01*
X-15259685Y53183961D01*
X-15312489Y53138206D01*
X-15364000Y53127000D01*
X-15751000Y53127000D01*
X-15818039Y53146685D01*
X-15863794Y53199489D01*
X-15875000Y53251000D01*
X-15875000Y56813000D01*
X-15855315Y56880039D01*
X-15802511Y56925794D01*
X-15751000Y56937000D01*
X-15364000Y56937000D01*
X-15296961Y56917315D01*
G37*
G36*
X-63810961Y44217315D02*
G01*
X-63765206Y44164511D01*
X-63754000Y44113000D01*
X-63754000Y43091000D01*
X-63773685Y43023961D01*
X-63826489Y42978206D01*
X-63878000Y42967000D01*
X-64265000Y42967000D01*
X-64332039Y42986685D01*
X-64377794Y43039489D01*
X-64389000Y43091000D01*
X-64389000Y44113000D01*
X-64369315Y44180039D01*
X-64316511Y44225794D01*
X-64265000Y44237000D01*
X-63878000Y44237000D01*
X-63810961Y44217315D01*
G37*
G36*
X-63810961Y59457315D02*
G01*
X-63765206Y59404511D01*
X-63754000Y59353000D01*
X-63754000Y55791000D01*
X-63773685Y55723961D01*
X-63826489Y55678206D01*
X-63878000Y55667000D01*
X-64265000Y55667000D01*
X-64332039Y55686685D01*
X-64377794Y55739489D01*
X-64389000Y55791000D01*
X-64389000Y59353000D01*
X-64369315Y59420039D01*
X-64316511Y59465794D01*
X-64265000Y59477000D01*
X-63878000Y59477000D01*
X-63810961Y59457315D01*
G37*
G36*
X-39426961Y54377315D02*
G01*
X-39381206Y54324511D01*
X-39370000Y54273000D01*
X-39370000Y50711000D01*
X-39389685Y50643961D01*
X-39442489Y50598206D01*
X-39494000Y50587000D01*
X-39881000Y50587000D01*
X-39948039Y50606685D01*
X-39993794Y50659489D01*
X-40005000Y50711000D01*
X-40005000Y54273000D01*
X-39985315Y54340039D01*
X-39932511Y54385794D01*
X-39881000Y54397000D01*
X-39494000Y54397000D01*
X-39426961Y54377315D01*
G37*
G36*
X-16566961Y44217315D02*
G01*
X-16521206Y44164511D01*
X-16510000Y44113000D01*
X-16510000Y43091000D01*
X-16529685Y43023961D01*
X-16582489Y42978206D01*
X-16634000Y42967000D01*
X-17021000Y42967000D01*
X-17088039Y42986685D01*
X-17133794Y43039489D01*
X-17145000Y43091000D01*
X-17145000Y44113000D01*
X-17125315Y44180039D01*
X-17072511Y44225794D01*
X-17021000Y44237000D01*
X-16634000Y44237000D01*
X-16566961Y44217315D01*
G37*
G36*
X-38156961Y51837315D02*
G01*
X-38111206Y51784511D01*
X-38100000Y51733000D01*
X-38100000Y48171000D01*
X-38119685Y48103961D01*
X-38172489Y48058206D01*
X-38224000Y48047000D01*
X-38611000Y48047000D01*
X-38678039Y48066685D01*
X-38723794Y48119489D01*
X-38735000Y48171000D01*
X-38735000Y51733000D01*
X-38715315Y51800039D01*
X-38662511Y51845794D01*
X-38611000Y51857000D01*
X-38224000Y51857000D01*
X-38156961Y51837315D01*
G37*
G36*
X-62540961Y56917315D02*
G01*
X-62495206Y56864511D01*
X-62484000Y56813000D01*
X-62484000Y53251000D01*
X-62503685Y53183961D01*
X-62556489Y53138206D01*
X-62608000Y53127000D01*
X-62995000Y53127000D01*
X-63062039Y53146685D01*
X-63107794Y53199489D01*
X-63119000Y53251000D01*
X-63119000Y56813000D01*
X-63099315Y56880039D01*
X-63046511Y56925794D01*
X-62995000Y56937000D01*
X-62608000Y56937000D01*
X-62540961Y56917315D01*
G37*
G36*
X-62540961Y51837315D02*
G01*
X-62495206Y51784511D01*
X-62484000Y51733000D01*
X-62484000Y48171000D01*
X-62503685Y48103961D01*
X-62556489Y48058206D01*
X-62608000Y48047000D01*
X-62995000Y48047000D01*
X-63062039Y48066685D01*
X-63107794Y48119489D01*
X-63119000Y48171000D01*
X-63119000Y51733000D01*
X-63099315Y51800039D01*
X-63046511Y51845794D01*
X-62995000Y51857000D01*
X-62608000Y51857000D01*
X-62540961Y51837315D01*
G37*
G36*
X-63810961Y54377315D02*
G01*
X-63765206Y54324511D01*
X-63754000Y54273000D01*
X-63754000Y50711000D01*
X-63773685Y50643961D01*
X-63826489Y50598206D01*
X-63878000Y50587000D01*
X-64265000Y50587000D01*
X-64332039Y50606685D01*
X-64377794Y50659489D01*
X-64389000Y50711000D01*
X-64389000Y54273000D01*
X-64369315Y54340039D01*
X-64316511Y54385794D01*
X-64265000Y54397000D01*
X-63878000Y54397000D01*
X-63810961Y54377315D01*
G37*
G36*
X-38156961Y46757315D02*
G01*
X-38111206Y46704511D01*
X-38100000Y46653000D01*
X-38100000Y43091000D01*
X-38119685Y43023961D01*
X-38172489Y42978206D01*
X-38224000Y42967000D01*
X-38611000Y42967000D01*
X-38678039Y42986685D01*
X-38723794Y43039489D01*
X-38735000Y43091000D01*
X-38735000Y46653000D01*
X-38715315Y46720039D01*
X-38662511Y46765794D01*
X-38611000Y46777000D01*
X-38224000Y46777000D01*
X-38156961Y46757315D01*
G37*
G36*
X-15296961Y59457315D02*
G01*
X-15251206Y59404511D01*
X-15240000Y59353000D01*
X-15240000Y58331000D01*
X-15259685Y58263961D01*
X-15312489Y58218206D01*
X-15364000Y58207000D01*
X-15751000Y58207000D01*
X-15818039Y58226685D01*
X-15863794Y58279489D01*
X-15875000Y58331000D01*
X-15875000Y59353000D01*
X-15855315Y59420039D01*
X-15802511Y59465794D01*
X-15751000Y59477000D01*
X-15364000Y59477000D01*
X-15296961Y59457315D01*
G37*
G36*
X-38156961Y56917315D02*
G01*
X-38111206Y56864511D01*
X-38100000Y56813000D01*
X-38100000Y53251000D01*
X-38119685Y53183961D01*
X-38172489Y53138206D01*
X-38224000Y53127000D01*
X-38611000Y53127000D01*
X-38678039Y53146685D01*
X-38723794Y53199489D01*
X-38735000Y53251000D01*
X-38735000Y56813000D01*
X-38715315Y56880039D01*
X-38662511Y56925794D01*
X-38611000Y56937000D01*
X-38224000Y56937000D01*
X-38156961Y56917315D01*
G37*
G36*
X-63810961Y49297315D02*
G01*
X-63765206Y49244511D01*
X-63754000Y49193000D01*
X-63754000Y45631000D01*
X-63773685Y45563961D01*
X-63826489Y45518206D01*
X-63878000Y45507000D01*
X-64265000Y45507000D01*
X-64332039Y45526685D01*
X-64377794Y45579489D01*
X-64389000Y45631000D01*
X-64389000Y49193000D01*
X-64369315Y49260039D01*
X-64316511Y49305794D01*
X-64265000Y49317000D01*
X-63878000Y49317000D01*
X-63810961Y49297315D01*
G37*
G36*
X-38156961Y59457315D02*
G01*
X-38111206Y59404511D01*
X-38100000Y59353000D01*
X-38100000Y58331000D01*
X-38119685Y58263961D01*
X-38172489Y58218206D01*
X-38224000Y58207000D01*
X-38611000Y58207000D01*
X-38678039Y58226685D01*
X-38723794Y58279489D01*
X-38735000Y58331000D01*
X-38735000Y59353000D01*
X-38715315Y59420039D01*
X-38662511Y59465794D01*
X-38611000Y59477000D01*
X-38224000Y59477000D01*
X-38156961Y59457315D01*
G37*
G36*
X-16566961Y54377315D02*
G01*
X-16521206Y54324511D01*
X-16510000Y54273000D01*
X-16510000Y50711000D01*
X-16529685Y50643961D01*
X-16582489Y50598206D01*
X-16634000Y50587000D01*
X-17021000Y50587000D01*
X-17088039Y50606685D01*
X-17133794Y50659489D01*
X-17145000Y50711000D01*
X-17145000Y54273000D01*
X-17125315Y54340039D01*
X-17072511Y54385794D01*
X-17021000Y54397000D01*
X-16634000Y54397000D01*
X-16566961Y54377315D01*
G37*
G36*
X-62540961Y46757315D02*
G01*
X-62495206Y46704511D01*
X-62484000Y46653000D01*
X-62484000Y43091000D01*
X-62503685Y43023961D01*
X-62556489Y42978206D01*
X-62608000Y42967000D01*
X-62995000Y42967000D01*
X-63062039Y42986685D01*
X-63107794Y43039489D01*
X-63119000Y43091000D01*
X-63119000Y46653000D01*
X-63099315Y46720039D01*
X-63046511Y46765794D01*
X-62995000Y46777000D01*
X-62608000Y46777000D01*
X-62540961Y46757315D01*
G37*
G36*
X-39426961Y59457315D02*
G01*
X-39381206Y59404511D01*
X-39370000Y59353000D01*
X-39370000Y55791000D01*
X-39389685Y55723961D01*
X-39442489Y55678206D01*
X-39494000Y55667000D01*
X-39881000Y55667000D01*
X-39948039Y55686685D01*
X-39993794Y55739489D01*
X-40005000Y55791000D01*
X-40005000Y59353000D01*
X-39985315Y59420039D01*
X-39932511Y59465794D01*
X-39881000Y59477000D01*
X-39494000Y59477000D01*
X-39426961Y59457315D01*
G37*
G36*
X-86716534Y52431315D02*
G01*
X-86670779Y52378511D01*
X-86659573Y52327000D01*
X-86659573Y48765000D01*
X-86679258Y48697961D01*
X-86732062Y48652206D01*
X-86783573Y48641000D01*
X-87170573Y48641000D01*
X-87237612Y48660685D01*
X-87283367Y48713489D01*
X-87294573Y48765000D01*
X-87294573Y52327000D01*
X-87274888Y52394039D01*
X-87222084Y52439794D01*
X-87170573Y52451000D01*
X-86783573Y52451000D01*
X-86716534Y52431315D01*
G37*
G36*
X-86716534Y42271315D02*
G01*
X-86670779Y42218511D01*
X-86659573Y42167000D01*
X-86659573Y39875000D01*
X-86679258Y39807961D01*
X-86732062Y39762206D01*
X-86783573Y39751000D01*
X-87170573Y39751000D01*
X-87237612Y39770685D01*
X-87283367Y39823489D01*
X-87294573Y39875000D01*
X-87294573Y42167000D01*
X-87274888Y42234039D01*
X-87222084Y42279794D01*
X-87170573Y42291000D01*
X-86783573Y42291000D01*
X-86716534Y42271315D01*
G37*
G36*
X-81636534Y46081315D02*
G01*
X-81590779Y46028511D01*
X-81579573Y45977000D01*
X-81579573Y43685000D01*
X-81599258Y43617961D01*
X-81652062Y43572206D01*
X-81703573Y43561000D01*
X-82090573Y43561000D01*
X-82157612Y43580685D01*
X-82203367Y43633489D01*
X-82214573Y43685000D01*
X-82214573Y45977000D01*
X-82194888Y46044039D01*
X-82142084Y46089794D01*
X-82090573Y46101000D01*
X-81703573Y46101000D01*
X-81636534Y46081315D01*
G37*
G36*
X-84176534Y46081315D02*
G01*
X-84130779Y46028511D01*
X-84119573Y45977000D01*
X-84119573Y44320000D01*
X-84139258Y44252961D01*
X-84192062Y44207206D01*
X-84243573Y44196000D01*
X-84630573Y44196000D01*
X-84697612Y44215685D01*
X-84743367Y44268489D01*
X-84754573Y44320000D01*
X-84754573Y45977000D01*
X-84734888Y46044039D01*
X-84682084Y46089794D01*
X-84630573Y46101000D01*
X-84243573Y46101000D01*
X-84176534Y46081315D01*
G37*
G36*
X-85446534Y44811315D02*
G01*
X-85400779Y44758511D01*
X-85389573Y44707000D01*
X-85389573Y43685000D01*
X-85409258Y43617961D01*
X-85462062Y43572206D01*
X-85513573Y43561000D01*
X-85900573Y43561000D01*
X-85967612Y43580685D01*
X-86013367Y43633489D01*
X-86024573Y43685000D01*
X-86024573Y44707000D01*
X-86004888Y44774039D01*
X-85952084Y44819794D01*
X-85900573Y44831000D01*
X-85513573Y44831000D01*
X-85446534Y44811315D01*
G37*
G36*
X-85446534Y49891315D02*
G01*
X-85400779Y49838511D01*
X-85389573Y49787000D01*
X-85389573Y46225000D01*
X-85409258Y46157961D01*
X-85462062Y46112206D01*
X-85513573Y46101000D01*
X-85900573Y46101000D01*
X-85967612Y46120685D01*
X-86013367Y46173489D01*
X-86024573Y46225000D01*
X-86024573Y49787000D01*
X-86004888Y49854039D01*
X-85952084Y49899794D01*
X-85900573Y49911000D01*
X-85513573Y49911000D01*
X-85446534Y49891315D01*
G37*
G36*
X-82906534Y46081315D02*
G01*
X-82860779Y46028511D01*
X-82849573Y45977000D01*
X-82849573Y44320000D01*
X-82869258Y44252961D01*
X-82922062Y44207206D01*
X-82973573Y44196000D01*
X-83360573Y44196000D01*
X-83427612Y44215685D01*
X-83473367Y44268489D01*
X-83484573Y44320000D01*
X-83484573Y45977000D01*
X-83464888Y46044039D01*
X-83412084Y46089794D01*
X-83360573Y46101000D01*
X-82973573Y46101000D01*
X-82906534Y46081315D01*
G37*
G36*
X-86716534Y47351315D02*
G01*
X-86670779Y47298511D01*
X-86659573Y47247000D01*
X-86659573Y43685000D01*
X-86679258Y43617961D01*
X-86732062Y43572206D01*
X-86783573Y43561000D01*
X-87170573Y43561000D01*
X-87237612Y43580685D01*
X-87283367Y43633489D01*
X-87294573Y43685000D01*
X-87294573Y47247000D01*
X-87274888Y47314039D01*
X-87222084Y47359794D01*
X-87170573Y47371000D01*
X-86783573Y47371000D01*
X-86716534Y47351315D01*
G37*
G36*
X-85446534Y52431315D02*
G01*
X-85400779Y52378511D01*
X-85389573Y52327000D01*
X-85389573Y51305000D01*
X-85409258Y51237961D01*
X-85462062Y51192206D01*
X-85513573Y51181000D01*
X-85900573Y51181000D01*
X-85967612Y51200685D01*
X-86013367Y51253489D01*
X-86024573Y51305000D01*
X-86024573Y52327000D01*
X-86004888Y52394039D01*
X-85952084Y52439794D01*
X-85900573Y52451000D01*
X-85513573Y52451000D01*
X-85446534Y52431315D01*
G37*
%LPD*%
M02*
