M48
; DRILL file {KiCad 9.0.0} date 2026-04-19T22:58:56+0900
; FORMAT={-:-/ absolute / metric / decimal}
; #@! TF.CreationDate,2026-04-19T22:58:56+09:00
; #@! TF.GenerationSoftware,Kicad,Pcbnew,9.0.0
; #@! TF.FileFunction,MixedPlating,1,2
FMAT,2
METRIC
; #@! TA.AperFunction,Plated,PTH,ViaDrill
T1C0.300
; #@! TA.AperFunction,Plated,PTH,ViaDrill
T2C0.400
; #@! TA.AperFunction,Plated,PTH,ViaDrill
T3C0.500
; #@! TA.AperFunction,Plated,PTH,ComponentDrill
T4C0.600
; #@! TA.AperFunction,Plated,PTH,ComponentDrill
T5C0.800
; #@! TA.AperFunction,Plated,PTH,ViaDrill
T6C0.900
; #@! TA.AperFunction,Plated,PTH,ComponentDrill
T7C0.900
; #@! TA.AperFunction,Plated,PTH,ComponentDrill
T8C0.950
; #@! TA.AperFunction,Plated,PTH,ComponentDrill
T9C1.000
; #@! TA.AperFunction,Plated,PTH,ComponentDrill
T10C1.600
; #@! TA.AperFunction,Plated,PTH,ComponentDrill
T11C1.900
; #@! TA.AperFunction,Plated,PTH,ComponentDrill
T12C2.700
; #@! TA.AperFunction,NonPlated,NPTH,ComponentDrill
T13C0.650
; #@! TA.AperFunction,NonPlated,NPTH,ComponentDrill
T14C3.200
%
G90
G05
T1
X-91.44Y27.305
X-79.63Y38.1
X-69.089Y34.219
X-58.16Y41.529
X-54.502Y39.751
X-53.88Y30.448
X-52.646Y35.433
X-50.565Y38.23
X-49.803Y41.529
X-45.993Y39.704
X-44.215Y35.433
X-42.183Y38.245
X-18.161Y4.953
X-16.256Y3.556
T2
X-99.06Y24.892
X-99.06Y23.368
X-99.06Y9.144
X-96.647Y8.76
X-96.52Y40.64
X-96.52Y35.56
X-96.52Y30.48
X-96.52Y27.305
X-96.52Y24.892
X-96.52Y23.368
X-96.52Y20.32
X-91.44Y35.56
X-91.44Y30.48
X-91.44Y27.305
X-91.44Y24.892
X-91.44Y23.368
X-91.44Y20.32
X-91.44Y16.764
X-91.44Y13.208
X-91.44Y10.16
X-91.44Y5.08
X-89.789Y16.256
X-88.9Y13.208
X-88.9Y10.16
X-88.72Y17.145
X-87.627Y4.826
X-87.627Y3.001
X-87.126Y8.64
X-87.122Y20.975
X-86.36Y35.56
X-86.36Y30.48
X-86.36Y27.305
X-86.36Y24.892
X-86.36Y23.368
X-86.36Y5.08
X-85.598Y18.669
X-85.471Y8.89
X-84.579Y4.826
X-84.579Y3.001
X-83.82Y15.24
X-82.296Y16.764
X-81.915Y18.669
X-81.28Y30.48
X-81.28Y27.305
X-81.28Y24.892
X-81.28Y23.368
X-81.28Y5.08
X-80.2Y14.605
X-79.934Y17.932
X-78.404Y10.169
X-78.209Y17.932
X-77.65Y5.544
X-77.47Y40.491
X-76.962Y10.16
X-76.837Y28.398
X-76.454Y58.175
X-76.2Y24.892
X-76.2Y23.368
X-76.2Y15.24
X-76.2Y13.462
X-76.124Y3.869
X-75.312Y36.373
X-75.312Y30.073
X-74.599Y5.544
X-74.567Y17.932
X-73.844Y10.169
X-73.787Y28.398
X-72.39Y17.018
X-71.12Y40.64
X-71.12Y28.321
X-71.12Y24.892
X-71.12Y23.368
X-71.12Y16.256
X-70.866Y4.572
X-70.866Y2.822
X-70.866Y0.969
X-69.596Y13.716
X-68.326Y13.716
X-68.075Y0.983
X-68.072Y2.836
X-67.056Y16.256
X-66.548Y14.478
X-66.294Y13.478
X-66.141Y12.49
X-66.04Y40.64
X-66.04Y30.099
X-65.81Y16.39
X-65.278Y2.822
X-65.142Y12.534
X-64.846Y22.075
X-64.77Y27.178
X-64.22Y12.147
X-63.759Y17.521
X-63.092Y23.876
X-63.021Y28.575
X-62.23Y19.05
X-61.779Y12.36
X-61.722Y20.066
X-61.468Y18.288
X-61.367Y23.876
X-60.96Y40.64
X-60.96Y35.56
X-60.96Y30.48
X-60.96Y27.305
X-60.96Y25.4
X-60.96Y20.828
X-60.96Y15.24
X-60.808Y11.079
X-60.447Y18.293
X-59.944Y16.764
X-59.588Y9.859
X-58.499Y16.801
X-58.16Y39.704
X-56.456Y30.483
X-55.88Y27.305
X-55.88Y25.4
X-55.88Y5.08
X-55.372Y9.652
X-55.245Y24.13
X-55.245Y22.315
X-55.118Y13.462
X-53.393Y13.462
X-52.705Y24.13
X-52.324Y8.636
X-50.946Y30.787
X-50.8Y27.305
X-50.8Y25.4
X-50.8Y13.335
X-50.8Y8.89
X-49.803Y39.704
X-48.26Y20.32
X-48.025Y30.483
X-46.736Y24.13
X-46.736Y22.278
X-45.72Y27.305
X-45.72Y25.4
X-45.72Y20.32
X-45.72Y10.16
X-45.466Y30.43
X-44.196Y24.13
X-42.672Y13.716
X-42.545Y20.574
X-42.545Y19.304
X-42.437Y30.787
X-40.64Y40.64
X-40.64Y34.925
X-40.64Y30.48
X-40.64Y27.305
X-40.64Y25.4
X-40.64Y20.32
X-40.64Y15.24
X-40.64Y10.16
X-40.64Y2.54
X-35.56Y34.925
X-35.56Y30.48
X-35.56Y27.305
X-35.56Y25.4
X-35.56Y20.32
X-35.56Y15.24
X-35.56Y11.176
X-35.56Y2.54
X-34.715Y41.552
X-34.715Y39.727
X-33.782Y4.064
X-32.937Y30.483
X-31.623Y24.202
X-31.623Y22.352
X-31.115Y2.54
X-30.905Y39.727
X-30.48Y27.305
X-30.48Y25.4
X-30.48Y20.32
X-30.48Y15.24
X-30.48Y5.08
X-29.845Y6.985
X-29.127Y35.433
X-29.083Y24.202
X-27.349Y30.76
X-27.095Y38.245
X-27.034Y6.958
X-26.587Y41.552
X-26.587Y39.727
X-25.4Y27.305
X-25.4Y25.4
X-25.4Y14.605
X-25.326Y2.413
X-24.809Y30.483
X-24.765Y5.08
X-24.065Y19.431
X-24.065Y18.161
X-24.065Y16.891
X-24.065Y15.621
X-23.539Y24.13
X-23.52Y22.255
X-20.999Y35.433
X-20.999Y24.13
X-20.32Y27.305
X-20.32Y25.4
X-20.32Y20.32
X-20.32Y5.08
X-20.32Y2.54
X-19.221Y30.76
X-19.115Y19.431
X-19.115Y15.621
X-19.05Y40.64
X-18.967Y38.245
X-15.24Y40.64
X-15.24Y35.56
X-15.24Y30.48
X-15.24Y27.305
X-15.24Y25.4
X-15.24Y20.955
X-15.24Y15.24
X-15.24Y5.08
X-15.24Y2.54
X-14.097Y6.858
X-13.955Y18.161
X-13.335Y40.64
X-13.335Y35.56
X-13.335Y30.48
X-13.335Y27.305
X-13.335Y25.4
X-12.954Y12.954
X-11.43Y18.415
X-11.413Y6.932
X-10.16Y40.64
X-10.16Y15.24
X-9.906Y22.225
X-9.652Y35.56
X-9.578Y2.413
X-5.08Y40.64
X-5.08Y36.195
X-5.08Y10.16
X-1.27Y40.64
X-1.27Y35.56
X-1.27Y30.48
X-1.27Y25.4
X-1.27Y20.32
X-1.27Y15.24
X-1.27Y10.16
T3
X-30.353Y30.502
X-22.777Y39.727
X-22.269Y30.43
T5
X-91.186Y59.886
X-91.186Y56.386
X-86.868Y67.312
X-86.868Y63.812
X-82.55Y59.888
X-82.55Y56.388
X-78.232Y67.312
X-78.232Y63.812
X2.735Y-1.525
X5.275Y-1.525
X7.815Y-1.525
T6
X-58.928Y32.512
T7
X-69.85Y8.382
X-67.31Y8.382
X-64.77Y8.382
T8
X-38.939Y9.292
X-36.439Y9.292
X-33.939Y9.292
X-31.439Y9.292
X-28.939Y9.292
X-23.271Y9.292
X-20.771Y9.292
X-18.271Y9.292
X-15.771Y9.292
X-13.271Y9.292
X-7.874Y35.5
X-7.874Y33.0
X-7.874Y30.5
X-7.874Y28.0
X-7.874Y22.352
X-7.874Y19.852
X-7.874Y17.352
X-7.874Y14.852
T9
X-96.647Y18.669
X-96.647Y16.129
X-96.647Y13.589
X-94.107Y18.669
X-94.107Y16.129
X-94.107Y13.589
X-57.658Y5.08
X-57.658Y2.58
X-56.407Y60.96
X-51.037Y5.08
X-51.037Y2.58
X-45.407Y60.96
X-44.433Y5.08
X-44.433Y2.58
X-33.098Y60.96
X-22.098Y60.96
T10
X-96.905Y51.503
X-96.88Y48.113
X-83.435Y51.503
X-83.435Y48.113
T11
X-53.407Y55.96
X-48.407Y55.96
X-30.098Y55.96
X-25.098Y55.96
T12
X-83.528Y41.7
X-83.528Y34.5
T13
X-89.247Y6.415
X-83.467Y6.415
T14
X-95.971Y65.971
X-95.971Y3.971
X-3.971Y65.971
X-3.971Y3.971
T4
G00X-90.677Y7.465
M15
G01X-90.677Y6.365
M16
G05
G00X-90.677Y3.135
M15
G01X-90.677Y2.335
M16
G05
G00X-90.078Y44.85
M15
G01X-88.978Y44.85
M16
G05
G00X-90.078Y31.35
M15
G01X-88.978Y31.35
M16
G05
G00X-82.037Y7.465
M15
G01X-82.037Y6.365
M16
G05
G00X-82.037Y3.135
M15
G01X-82.037Y2.335
M16
G05
M30
